{"glyphs":{"0":{"ha":819,"x_min":133,"x_max":819,"o":"m 133 491 q 154 690 133 599 q 220 853 176 781 q 327 966 264 924 q 476 1007 391 1007 q 731 853 638 1007 q 796 691 773 785 q 819 491 819 597 q 779 233 819 347 q 665 53 740 120 q 476 -18 585 -18 q 220 134 313 -18 q 133 491 133 277 m 262 491 q 290 266 262 363 q 381 121 319 169 q 476 90 422 90 q 637 206 580 90 q 690 491 690 313 q 661 719 690 619 q 570 867 632 818 q 476 899 530 899 q 315 779 372 899 q 262 491 262 668 z "},"1":{"ha":361,"x_min":83,"x_max":363,"o":"m 238 852 l 83 802 l 83 922 l 273 990 l 363 990 l 363 -1 l 238 -1 l 238 852 z "},"2":{"ha":779,"x_min":131,"x_max":778,"o":"m 446 900 q 246 745 300 900 l 131 788 q 216 919 161 865 q 347 994 270 972 q 449 1008 395 1008 q 636 958 558 1008 q 751 824 713 908 q 778 688 778 764 q 768 600 778 641 q 744 528 759 559 q 704 468 728 496 q 653 420 679 440 q 593 381 628 400 q 528 349 558 362 q 458 321 498 336 q 338 264 372 288 q 264 115 264 211 l 264 110 l 768 110 l 768 0 l 133 0 l 133 79 q 147 194 133 142 q 188 283 161 245 q 249 349 214 321 q 330 397 284 376 q 395 425 362 412 l 442 444 q 506 472 479 458 q 560 506 532 485 q 606 552 589 528 q 634 613 623 577 q 646 694 646 650 q 614 811 646 762 q 530 883 583 860 q 446 900 494 900 z "},"3":{"ha":777,"x_min":100,"x_max":772,"o":"m 612 515 q 772 274 772 439 q 670 54 772 135 q 570 3 628 22 q 447 -16 513 -16 q 328 0 384 -16 q 231 43 272 16 q 157 108 190 71 q 100 205 121 149 l 229 248 q 306 133 256 174 q 439 93 356 93 q 550 121 503 93 q 621 195 597 149 q 639 274 639 229 q 605 381 639 339 q 515 442 571 424 q 434 455 478 455 l 298 455 l 298 564 l 433 564 q 564 609 515 564 q 614 734 614 654 q 605 791 614 765 q 582 838 597 818 q 547 871 567 857 q 503 894 527 886 q 437 905 471 905 q 314 863 361 905 q 250 751 267 821 l 133 795 q 345 996 193 951 q 446 1009 393 1009 q 609 967 539 1009 q 715 856 679 925 q 741 734 741 804 q 705 600 741 656 q 612 515 669 543 z "},"4":{"ha":828,"x_min":133,"x_max":825,"o":"m 582 -1 l 582 184 l 133 184 l 133 274 l 562 985 l 707 985 l 707 291 l 825 291 l 825 184 l 707 184 l 707 -1 l 582 -1 m 582 291 l 582 821 l 283 291 l 582 291 z "},"5":{"ha":802,"x_min":125,"x_max":802,"o":"m 446 532 q 324 500 375 532 q 247 416 273 469 l 125 434 l 202 990 l 740 990 l 740 880 l 309 880 l 270 595 q 455 648 349 648 q 651 597 570 648 q 773 460 733 546 q 802 316 802 397 q 744 118 802 197 q 589 7 686 39 q 453 -15 525 -15 q 247 41 331 -15 q 125 193 163 97 l 244 248 q 319 140 266 180 q 453 100 373 100 q 544 116 503 100 q 612 159 585 132 q 655 224 639 186 q 672 316 672 264 q 634 445 672 394 q 532 518 596 496 q 446 532 491 532 z "},"6":{"ha":825,"x_min":134,"x_max":831,"o":"m 267 479 q 510 591 348 591 q 695 544 620 591 q 806 414 771 497 q 831 286 831 357 q 732 62 831 148 q 632 4 690 25 q 505 -18 574 -18 q 216 134 311 -18 q 134 489 134 264 q 148 661 134 583 q 190 805 161 739 q 267 918 218 871 q 380 989 315 965 q 499 1008 433 1008 q 666 968 594 1008 q 781 863 739 929 q 821 758 811 817 l 690 724 q 654 826 684 784 q 575 887 624 867 q 504 899 543 899 q 403 877 446 899 q 334 820 360 855 q 293 732 309 785 q 272 627 277 680 q 267 509 267 574 l 267 479 m 504 92 q 616 123 570 92 q 683 205 662 154 q 697 282 697 240 q 664 395 697 349 q 578 461 631 441 q 504 474 543 474 q 424 460 460 474 q 363 421 387 446 q 326 362 339 396 q 311 282 311 327 q 342 172 311 216 q 426 106 374 127 q 504 92 461 92 z "},"7":{"ha":669,"x_min":87,"x_max":671,"o":"m 671 914 l 400 0 l 273 0 l 549 882 l 87 882 l 87 989 l 671 989 l 671 914 z "},"8":{"ha":831,"x_min":133,"x_max":831,"o":"m 670 515 q 831 274 831 441 q 814 171 831 218 q 767 92 798 125 q 699 37 737 59 q 613 1 660 14 q 482 -16 550 -16 q 285 25 368 -16 q 161 145 202 67 q 133 274 133 199 q 294 515 133 439 q 200 600 236 543 q 164 734 164 656 q 220 901 164 836 q 366 991 275 966 q 482 1008 422 1008 q 660 967 585 1008 q 772 856 734 927 q 800 734 800 804 q 764 600 800 656 q 670 515 728 543 m 292 734 q 344 608 292 652 q 482 564 396 564 q 620 608 568 564 q 672 734 672 652 q 620 860 672 815 q 482 904 568 904 q 373 879 418 904 q 307 807 328 853 q 292 734 292 775 m 267 274 q 328 140 267 187 q 482 93 389 93 q 603 120 552 93 q 680 195 654 147 q 697 274 697 229 q 637 409 697 362 q 482 455 578 455 q 356 427 408 455 q 281 348 304 399 q 267 274 267 315 z "},"9":{"ha":782,"x_min":85,"x_max":782,"o":"m 650 502 q 550 420 612 450 q 406 391 488 391 q 273 413 333 391 q 173 474 214 435 q 110 567 133 513 q 85 696 85 623 q 184 920 85 833 q 284 978 226 956 q 411 999 342 999 q 700 848 605 999 q 782 492 782 718 q 734 200 782 321 q 586 19 686 78 q 417 -22 517 -22 q 250 16 322 -22 q 136 118 178 54 q 96 223 106 164 l 226 257 q 283 133 234 180 q 412 86 332 86 q 513 107 470 86 q 582 164 556 129 q 623 250 608 199 q 644 354 639 302 q 650 472 650 407 l 650 502 m 412 889 q 300 858 347 889 q 233 776 254 827 q 219 699 219 741 q 252 585 219 631 q 338 519 284 539 q 412 507 374 507 q 493 521 457 507 q 553 560 530 535 q 591 618 577 585 q 606 699 606 654 q 575 809 606 764 q 491 875 543 854 q 412 889 455 889 z "},"\r":{"ha":1389,"x_min":0,"x_max":0,"o":""},"\u0000":{"ha":1389,"x_min":0,"x_max":0,"o":""}," ":{"ha":407,"x_min":0,"x_max":0,"o":""},"!":{"ha":304,"x_min":134,"x_max":303,"o":"m 281 7 q 270 -4 281 7 q 218 -15 258 -15 q 156 7 178 -15 q 134 69 134 28 q 156 130 134 109 q 218 151 178 151 q 281 130 258 151 q 303 69 303 109 q 281 7 303 29 m 220 1001 q 222 1001 220 1001 q 266 986 248 1001 q 290 948 283 972 l 270 214 l 170 214 l 150 948 q 220 1001 165 1001 z "},"\"":{"ha":437,"x_min":138,"x_max":456,"o":"m 138 994 l 258 994 l 252 656 l 148 656 l 138 994 m 337 994 l 456 994 l 450 656 l 347 656 l 337 994 z "},"#":{"ha":919,"x_min":102,"x_max":950,"o":"m 340 239 l 264 -7 l 161 -7 l 235 239 l 102 239 l 102 332 l 262 332 l 358 647 l 204 647 l 204 740 l 386 740 l 461 985 l 564 985 l 489 740 l 689 740 l 764 985 l 867 985 l 793 740 l 950 740 l 950 647 l 765 647 l 671 332 l 848 332 l 848 239 l 643 239 l 568 -7 l 465 -7 l 538 239 l 340 239 m 566 332 l 661 647 l 461 647 l 367 332 l 566 332 z "},"$":{"ha":765,"x_min":114,"x_max":766,"o":"m 406 439 q 332 466 361 454 q 266 500 302 478 q 209 547 230 522 q 172 610 187 572 q 157 696 157 649 q 198 829 157 774 q 304 914 239 884 q 406 943 349 936 l 406 993 l 494 993 l 494 945 q 743 797 650 928 l 639 744 q 494 842 591 825 l 494 528 q 542 511 524 517 q 588 493 561 504 q 632 472 614 481 q 671 447 650 462 q 707 417 692 433 q 734 381 721 401 q 755 338 747 361 q 766 262 766 304 q 753 178 766 218 q 717 109 741 139 q 666 57 694 79 q 604 18 637 35 q 494 -14 554 -6 l 494 -77 l 406 -77 l 406 -16 q 226 42 300 -9 q 114 178 151 94 l 221 231 q 284 132 235 169 q 406 88 334 95 l 406 439 m 494 408 l 494 94 q 582 132 545 104 q 636 201 619 160 q 647 256 647 228 q 634 315 647 290 q 596 359 621 341 q 549 387 570 376 q 494 408 528 397 m 406 840 q 312 794 349 828 q 276 707 276 761 q 287 652 276 676 q 318 610 298 627 q 358 582 338 593 q 406 560 378 570 l 406 840 z "},"%":{"ha":892,"x_min":127,"x_max":885,"o":"m 693 19 q 578 49 625 19 q 513 132 532 79 q 500 198 500 163 q 530 301 500 259 q 608 365 559 344 q 693 380 644 380 q 808 349 762 380 q 873 266 854 319 q 885 198 885 233 q 856 96 885 138 q 777 34 826 55 q 693 19 741 19 m 756 118 q 766 133 756 118 q 777 198 777 149 q 756 279 777 248 q 693 311 734 311 q 630 279 651 311 q 608 198 608 248 q 630 118 608 149 q 693 87 652 87 q 756 118 734 87 m 320 629 q 205 660 252 629 q 140 742 159 690 q 127 808 127 774 q 157 912 127 869 q 235 975 186 954 q 320 990 271 990 q 435 960 389 990 q 500 876 481 929 q 512 808 512 844 q 497 734 512 768 q 459 680 483 701 q 404 644 436 658 q 320 629 368 629 m 383 728 q 394 744 383 728 q 404 808 404 759 q 383 889 404 858 q 320 921 361 921 q 257 889 278 921 q 235 808 235 858 q 257 728 235 759 q 320 698 279 698 q 383 728 361 698 m 833 970 l 260 -5 l 186 37 l 759 1012 l 833 970 z "},"&":{"ha":875,"x_min":116,"x_max":903,"o":"m 668 313 q 697 488 697 387 l 819 488 q 745 210 817 317 l 903 12 l 750 12 l 675 113 q 406 -14 568 -14 q 232 33 302 -14 q 133 159 162 79 q 116 255 116 207 q 182 427 116 346 q 338 551 239 498 l 288 616 q 241 696 258 657 q 224 786 224 736 q 260 909 224 859 q 355 985 296 960 q 443 1002 395 1002 q 571 962 519 1002 q 644 859 622 923 q 659 774 659 818 q 571 574 659 657 q 500 524 541 545 l 668 313 m 544 789 q 516 865 544 837 q 441 893 489 893 q 386 877 410 893 q 350 834 362 860 q 342 795 342 817 q 343 778 342 786 q 346 761 344 769 q 350 746 348 752 q 356 731 352 739 q 363 719 361 723 q 371 706 365 714 q 379 694 377 697 q 388 682 381 691 q 397 670 395 673 l 440 611 q 517 684 490 642 q 544 789 544 726 m 402 469 q 389 460 397 466 q 346 430 360 440 q 310 398 332 419 q 277 357 288 376 q 258 308 267 338 q 250 244 250 279 q 296 141 250 177 q 417 104 343 104 q 601 202 530 104 l 402 469 z "},"'":{"ha":248,"x_min":138,"x_max":258,"o":"m 138 994 l 258 994 l 252 656 l 148 656 l 138 994 z "},"(":{"ha":406,"x_min":134,"x_max":465,"o":"m 372 -281 q 150 186 201 -81 q 134 354 134 271 q 270 847 134 614 q 372 991 314 923 l 465 991 q 319 671 368 832 q 271 354 271 510 q 319 37 271 198 q 465 -281 368 -124 l 372 -281 z "},")":{"ha":406,"x_min":72,"x_max":402,"o":"m 72 -281 q 217 37 169 -124 q 265 354 265 198 q 217 671 265 510 q 72 991 169 832 l 164 991 q 387 524 338 786 q 402 354 402 439 q 264 -138 402 97 q 164 -281 220 -215 l 72 -281 z "},"*":{"ha":547,"x_min":112,"x_max":564,"o":"m 532 885 l 564 808 l 420 748 l 507 620 l 435 568 l 337 690 l 235 568 l 170 621 l 256 748 l 112 808 l 145 885 l 284 842 l 295 989 l 382 989 l 390 842 l 532 885 z "},"+":{"ha":884,"x_min":156,"x_max":863,"o":"m 450 490 l 450 804 l 569 804 l 569 490 l 863 490 l 863 379 l 569 379 l 569 70 l 450 70 l 450 379 l 156 379 l 156 490 l 450 490 z "},",":{"ha":328,"x_min":124,"x_max":326,"o":"m 204 -6 q 151 27 170 -1 q 131 96 131 55 q 146 154 131 128 q 184 193 161 180 q 222 203 201 203 q 299 161 273 203 q 326 60 326 119 q 299 -69 326 -10 q 231 -170 273 -128 q 161 -214 200 -199 l 124 -171 q 153 -140 144 -151 q 177 -108 162 -129 q 198 -65 191 -87 q 204 -17 204 -43 q 204 -12 204 -15 l 204 -6 z "},"-":{"ha":543,"x_min":64,"x_max":479,"o":"m 479 335 l 64 340 l 64 431 l 479 429 l 479 335 z "},".":{"ha":315,"x_min":130,"x_max":312,"o":"m 287 168 q 299 152 287 168 q 312 92 312 136 q 287 17 312 48 q 221 -14 262 -14 q 155 17 180 -14 q 130 92 130 47 q 145 150 130 125 q 184 190 160 176 q 221 199 201 199 q 287 168 262 199 z "},"/":{"ha":542,"x_min":83,"x_max":595,"o":"m 490 943 l 595 943 l 189 -204 l 83 -204 l 490 943 z "},":":{"ha":302,"x_min":139,"x_max":303,"o":"m 139 521 q 162 589 139 559 q 221 618 185 618 q 280 589 258 618 q 303 521 303 561 q 281 453 303 481 q 221 425 258 425 q 161 453 184 425 q 139 521 139 481 m 303 186 q 281 117 303 145 q 221 89 258 89 q 161 117 184 89 q 139 186 139 145 q 153 238 139 214 q 187 273 167 261 q 221 282 203 282 q 280 254 258 282 q 303 186 303 225 z "},";":{"ha":328,"x_min":124,"x_max":326,"o":"m 284 258 q 272 243 284 258 q 221 229 260 229 q 158 258 182 229 q 135 330 135 288 q 149 384 135 360 q 186 422 163 408 q 221 431 201 431 q 283 401 260 431 q 307 330 307 372 q 284 258 307 288 m 204 -40 q 151 -7 170 -35 q 131 62 131 21 q 146 120 131 94 q 184 159 161 146 q 222 169 201 169 q 299 127 273 169 q 326 26 326 85 q 299 -103 326 -44 q 231 -203 273 -162 q 161 -248 200 -233 l 124 -205 q 153 -174 144 -184 q 177 -142 162 -163 q 198 -99 191 -121 q 204 -51 204 -77 q 204 -46 204 -49 l 204 -40 z "},"<":{"ha":730,"x_min":133,"x_max":745,"o":"m 745 207 l 745 80 l 133 422 l 133 533 l 745 876 l 745 749 l 251 477 l 745 207 z "},"=":{"ha":707,"x_min":85,"x_max":701,"o":"m 85 465 l 701 465 l 701 357 l 85 357 l 85 465 m 85 703 l 701 703 l 701 595 l 85 595 l 85 703 z "},">":{"ha":730,"x_min":119,"x_max":732,"o":"m 614 477 l 119 749 l 119 876 l 732 533 l 732 422 l 119 80 l 119 207 l 614 477 z "},"?":{"ha":713,"x_min":115,"x_max":715,"o":"m 399 14 q 387 -1 399 14 q 336 -16 376 -16 q 274 14 297 -16 q 250 85 250 43 q 264 141 250 116 q 301 178 279 165 q 336 187 317 187 q 399 157 376 187 q 422 85 422 127 q 399 14 422 43 m 391 307 q 392 271 391 294 q 393 235 393 248 l 266 231 q 263 307 263 275 q 366 524 263 454 q 484 593 397 545 q 524 619 507 606 q 556 651 541 632 q 579 694 571 669 q 587 750 587 720 q 542 857 587 820 q 422 895 496 895 q 297 851 345 895 q 235 734 250 808 l 115 777 q 195 911 142 856 q 324 989 248 966 q 429 1004 373 1004 q 589 962 521 1004 q 690 851 656 920 q 715 741 715 802 q 711 690 715 714 q 699 647 707 667 q 681 612 690 627 q 657 582 672 596 q 630 557 642 568 q 598 536 617 547 q 564 516 578 524 q 528 497 550 509 q 493 477 507 486 q 418 410 445 450 q 391 307 391 370 z "},"@":{"ha":1177,"x_min":132,"x_max":1177,"o":"m 604 794 q 791 707 706 794 l 804 783 l 892 783 l 840 398 q 836 363 836 366 q 848 311 836 328 q 890 294 860 294 q 970 375 937 294 q 1000 538 1000 447 q 945 751 1000 663 q 797 886 890 840 q 623 924 723 924 q 339 802 458 924 q 221 507 221 680 q 242 359 221 427 q 300 241 262 292 q 390 156 338 191 q 503 100 441 121 q 675 73 586 73 q 907 123 808 73 q 1067 260 1006 174 l 1177 260 q 1029 100 1121 165 q 816 7 937 35 q 665 -9 741 -9 q 391 51 507 -9 q 208 217 275 111 q 132 507 132 338 q 275 854 132 711 q 623 998 419 998 q 873 935 770 998 q 1034 764 977 872 q 1089 538 1089 661 q 1053 347 1089 430 q 949 231 1017 264 q 876 216 918 216 q 802 235 830 216 q 753 290 774 254 q 581 217 673 217 q 400 298 474 217 q 347 385 367 335 q 327 492 327 434 q 372 659 327 587 q 488 768 416 730 q 604 794 539 794 m 745 440 l 762 536 l 762 552 q 734 641 762 604 q 663 694 707 678 q 603 705 635 705 q 477 635 529 705 q 429 487 429 569 q 441 416 429 450 q 472 359 452 383 q 517 321 491 336 q 581 304 545 304 q 685 343 644 304 q 745 440 726 381 z "},"A":{"ha":925,"x_min":112,"x_max":948,"o":"m 602 989 l 948 -1 l 808 -1 l 720 270 l 340 270 l 252 -1 l 112 -1 l 458 989 l 602 989 m 372 377 l 687 377 l 530 844 l 372 377 z "},"B":{"ha":818,"x_min":132,"x_max":818,"o":"m 634 521 q 768 431 718 492 q 818 273 818 370 q 758 110 818 171 q 600 20 698 48 q 439 -1 530 -1 l 132 -1 l 132 991 l 411 991 q 618 950 530 991 q 747 834 706 909 q 774 728 774 785 q 634 521 774 587 m 689 277 q 627 409 689 368 q 458 450 564 450 l 255 450 l 255 107 l 439 107 q 689 277 689 107 m 255 884 l 255 557 l 409 557 q 633 654 587 557 q 648 721 648 684 q 635 784 648 756 q 600 831 622 812 q 548 861 578 849 q 484 879 517 873 q 411 884 450 884 l 255 884 z "},"C":{"ha":846,"x_min":132,"x_max":873,"o":"m 523 95 q 673 145 618 95 q 755 285 728 195 l 873 250 q 643 5 805 60 q 523 -13 588 -13 q 233 132 338 -13 q 132 496 132 269 q 189 790 132 667 q 354 970 245 913 q 522 1008 427 1008 q 812 861 707 1008 q 869 753 846 813 l 752 720 q 670 853 724 807 q 522 899 616 899 q 275 663 326 899 q 260 496 260 588 q 406 123 260 206 q 523 95 456 95 z "},"D":{"ha":876,"x_min":137,"x_max":878,"o":"m 412 107 q 666 210 582 107 q 751 494 751 313 q 702 724 751 632 q 557 857 653 816 q 409 884 494 884 l 258 884 l 258 107 l 412 107 m 137 -1 l 137 991 l 408 991 q 689 913 578 991 q 846 698 800 835 q 878 494 878 606 q 807 205 878 322 q 609 35 736 87 q 412 -1 522 -1 l 137 -1 z "},"E":{"ha":743,"x_min":132,"x_max":747,"o":"m 132 -1 l 132 991 l 725 991 l 725 884 l 253 884 l 253 568 l 686 568 l 686 461 l 253 461 l 253 106 l 747 106 l 747 -1 l 132 -1 z "},"F":{"ha":727,"x_min":134,"x_max":728,"o":"m 134 -1 l 134 990 l 728 990 l 728 883 l 254 883 l 254 568 l 702 568 l 702 461 l 254 461 l 254 -1 l 134 -1 z "},"G":{"ha":860,"x_min":131,"x_max":863,"o":"m 258 490 q 264 367 258 422 q 288 259 271 311 q 333 171 305 206 q 407 114 361 136 q 514 93 453 93 q 642 124 589 93 q 723 210 696 155 q 741 297 741 248 l 741 414 l 512 414 l 512 520 l 861 520 l 861 0 l 762 0 l 750 93 q 650 14 713 43 q 509 -16 587 -16 q 229 123 330 -16 q 131 490 131 259 q 187 786 131 662 q 351 969 243 910 q 517 1008 423 1008 q 807 862 701 1008 q 863 756 841 815 l 745 722 q 664 854 718 808 q 517 901 610 901 q 321 786 389 901 q 258 490 258 680 z "},"H":{"ha":819,"x_min":132,"x_max":817,"o":"m 253 461 l 253 -1 l 132 -1 l 132 990 l 253 990 l 253 568 l 698 568 l 698 990 l 817 990 l 817 -1 l 698 -1 l 698 461 l 253 461 z "},"I":{"ha":264,"x_min":134,"x_max":260,"o":"m 134 990 l 260 990 l 260 -1 l 134 -1 l 134 990 z "},"J":{"ha":583,"x_min":75,"x_max":584,"o":"m 584 277 q 517 61 584 139 q 322 -16 451 -16 q 192 12 248 -16 q 105 90 137 40 q 75 174 82 125 l 198 203 q 324 89 213 89 q 431 138 400 89 q 461 277 461 186 l 461 991 l 584 991 l 584 277 z "},"K":{"ha":831,"x_min":135,"x_max":870,"o":"m 458 574 l 870 -1 l 724 -1 l 376 486 l 256 352 l 256 -1 l 135 -1 l 135 990 l 256 990 l 256 517 l 696 990 l 837 990 l 458 574 z "},"L":{"ha":686,"x_min":134,"x_max":682,"o":"m 134 -1 l 134 989 l 255 989 l 255 106 l 682 106 l 682 -1 l 134 -1 z "},"M":{"ha":1060,"x_min":135,"x_max":1059,"o":"m 596 135 q 750 564 649 281 q 901 985 851 847 l 1059 985 l 1059 -1 l 946 -1 l 946 709 l 947 795 q 788 351 892 638 q 661 -1 684 63 l 532 -1 q 407 348 511 58 q 247 795 302 638 l 248 709 l 248 -1 l 135 -1 l 135 985 l 292 985 l 596 135 z "},"N":{"ha":834,"x_min":134,"x_max":834,"o":"m 676 0 l 243 825 l 247 710 l 247 0 l 134 0 l 134 985 l 289 985 l 724 166 l 721 267 l 721 985 l 834 985 l 834 0 l 676 0 z "},"O":{"ha":915,"x_min":132,"x_max":916,"o":"m 132 494 q 189 789 132 666 q 357 968 246 911 q 525 1006 430 1006 q 816 863 711 1006 q 916 494 916 725 q 859 203 916 325 q 693 23 802 81 q 525 -15 620 -15 q 233 130 340 -15 q 158 289 184 196 q 132 494 132 382 m 789 494 q 642 869 789 784 q 525 897 592 897 q 277 661 329 897 q 261 494 261 586 q 408 121 261 205 q 525 93 458 93 q 772 328 721 93 q 789 494 789 402 z "},"P":{"ha":792,"x_min":134,"x_max":795,"o":"m 431 989 q 579 970 512 989 q 694 913 646 951 q 769 821 743 875 q 795 701 795 767 q 779 602 795 647 q 732 525 762 557 q 664 470 702 492 q 581 435 627 448 q 431 415 513 415 l 254 415 l 254 0 l 134 0 l 134 989 l 431 989 m 668 701 q 604 839 668 795 q 431 882 539 882 l 254 882 l 254 522 l 431 522 q 604 566 541 522 q 668 701 668 609 z "},"Q":{"ha":904,"x_min":134,"x_max":926,"o":"m 709 191 q 777 494 777 298 q 635 869 777 785 q 520 897 587 897 q 414 875 460 897 q 340 815 368 852 q 293 726 311 779 q 268 617 275 673 q 261 494 261 561 q 404 121 261 203 q 520 93 453 93 q 629 118 582 93 l 497 241 l 570 319 l 709 191 m 905 494 q 797 114 905 247 l 926 5 l 852 -77 l 718 40 q 520 -15 631 -15 q 232 130 335 -15 q 159 289 184 196 q 134 494 134 382 q 157 700 134 608 q 230 861 181 792 q 353 968 279 930 q 520 1006 425 1006 q 633 990 581 1006 q 724 947 686 975 q 794 881 763 920 q 846 798 825 842 q 880 701 866 753 q 905 494 905 607 z "},"R":{"ha":824,"x_min":136,"x_max":857,"o":"m 455 987 q 603 969 536 987 q 718 914 669 951 q 793 823 767 877 q 820 704 820 771 q 802 602 820 648 q 753 524 785 555 q 682 471 721 492 q 593 436 642 450 l 857 -1 l 714 -1 l 465 420 l 257 420 l 257 -1 l 136 -1 l 136 987 l 455 987 m 694 704 q 630 838 694 795 q 455 880 566 880 l 257 880 l 257 529 l 455 529 q 694 704 694 529 z "},"S":{"ha":780,"x_min":96,"x_max":793,"o":"m 657 791 q 462 898 592 898 q 349 874 396 898 q 282 807 302 851 q 270 751 270 781 q 274 716 270 733 q 284 687 278 700 q 301 661 290 673 q 322 640 313 648 q 349 622 332 631 q 376 607 365 612 q 407 593 387 601 q 437 582 426 586 q 468 572 448 578 q 497 562 488 565 q 563 538 537 548 q 623 513 588 529 q 681 480 658 496 q 728 441 705 465 q 767 391 751 418 q 793 278 793 345 q 766 158 793 212 q 693 66 738 104 q 582 3 646 26 q 441 -20 517 -20 q 350 -11 393 -20 q 270 15 306 -2 q 204 53 234 31 q 151 103 175 75 q 96 188 117 141 l 211 245 q 289 133 228 173 q 438 92 349 92 q 568 122 513 92 q 650 203 623 151 q 666 272 666 235 q 660 313 666 294 q 646 346 654 332 q 622 373 637 359 q 594 394 606 386 q 560 411 582 401 q 526 426 538 421 q 491 439 514 431 q 484 441 486 440 q 438 457 469 447 q 391 474 408 468 q 348 490 375 479 q 303 510 320 501 q 264 531 287 518 q 227 557 242 544 q 197 588 212 570 q 170 624 181 605 q 142 739 142 671 q 231 929 142 852 q 332 986 273 965 q 460 1006 390 1006 q 640 963 563 1006 q 768 847 718 920 l 657 791 z "},"T":{"ha":768,"x_min":132,"x_max":770,"o":"m 391 882 l 132 882 l 132 989 l 770 989 l 770 882 l 511 882 l 511 -4 l 391 -4 l 391 882 z "},"U":{"ha":819,"x_min":132,"x_max":817,"o":"m 310 147 q 339 119 310 147 q 475 92 368 92 q 640 148 582 92 q 698 310 698 203 l 698 992 l 817 992 l 817 316 q 761 115 817 195 q 607 3 705 35 q 475 -18 545 -18 q 278 32 359 -18 q 159 170 197 82 q 132 316 132 232 l 132 992 l 253 992 l 253 310 q 310 147 253 203 z "},"V":{"ha":895,"x_min":115,"x_max":923,"o":"m 923 989 q 581 -1 730 429 l 457 -1 l 115 989 l 247 989 l 519 133 q 578 325 536 186 q 643 531 621 463 q 699 707 664 599 q 764 906 733 814 q 791 989 777 946 l 923 989 z "},"W":{"ha":1266,"x_min":102,"x_max":1285,"o":"m 237 989 l 431 175 l 627 989 l 762 989 l 958 175 q 1141 952 1041 532 q 1149 989 1145 973 l 1285 989 q 1044 83 1270 935 q 1021 -1 1033 40 l 891 -1 l 738 619 l 693 818 q 633 559 665 695 q 559 256 600 423 q 496 -1 518 89 l 368 -1 q 285 297 326 147 q 183 681 245 447 q 102 989 122 914 l 237 989 z "},"X":{"ha":840,"x_min":104,"x_max":869,"o":"m 559 494 l 869 -1 l 731 -1 l 486 413 l 240 -1 l 104 -1 l 412 494 q 261 745 360 578 q 113 989 161 912 l 250 989 l 486 581 l 722 989 l 860 989 l 559 494 z "},"Y":{"ha":888,"x_min":111,"x_max":909,"o":"m 450 429 l 111 989 l 247 989 l 509 559 l 772 989 l 909 989 l 570 429 l 570 0 l 450 0 l 450 429 z "},"Z":{"ha":798,"x_min":131,"x_max":798,"o":"m 798 990 l 798 908 l 276 106 l 785 106 l 785 -1 l 131 -1 l 131 86 l 651 885 l 173 885 l 173 990 l 798 990 z "},"[":{"ha":362,"x_min":133,"x_max":389,"o":"m 133 995 l 389 995 l 389 886 l 245 886 l 245 -163 l 389 -163 l 389 -277 l 133 -277 l 133 995 z "},"\\":{"ha":542,"x_min":87,"x_max":600,"o":"m 600 -204 l 494 -204 l 87 943 l 193 943 l 600 -204 z "},"]":{"ha":362,"x_min":106,"x_max":361,"o":"m 361 -277 l 106 -277 l 106 -163 l 250 -163 l 250 886 l 106 886 l 106 995 l 361 995 l 361 -277 z "},"^":{"ha":642,"x_min":111,"x_max":659,"o":"m 659 656 l 568 656 l 385 880 l 201 656 l 111 656 l 309 994 l 461 994 l 659 656 z "},"_":{"ha":588,"x_min":68,"x_max":720,"o":"m 68 -45 l 720 -45 l 720 -156 l 68 -156 l 68 -45 z "},"`":{"ha":296,"x_min":111,"x_max":319,"o":"m 111 994 l 258 994 l 319 656 l 229 656 l 111 994 z "},"a":{"ha":705,"x_min":126,"x_max":706,"o":"m 415 633 q 276 519 302 633 l 159 551 q 254 688 188 637 q 423 739 321 739 q 541 718 488 739 q 628 660 593 696 q 683 574 663 624 q 706 442 706 518 l 706 -1 l 591 -1 l 585 72 q 382 -15 505 -15 q 235 21 296 -15 q 145 118 174 56 q 126 211 126 160 q 141 297 126 258 q 182 364 156 336 q 242 411 209 392 q 313 442 275 431 q 425 458 368 458 q 581 423 511 458 l 581 444 q 540 584 581 534 q 415 633 499 633 m 428 353 q 301 318 349 353 q 253 214 253 284 q 407 94 253 94 q 508 122 467 94 q 568 197 550 150 q 581 265 581 229 l 581 314 q 428 353 527 353 z "},"b":{"ha":726,"x_min":137,"x_max":726,"o":"m 418 -13 q 253 65 305 -13 l 248 3 l 137 3 l 137 991 l 255 991 l 255 665 q 431 740 326 740 q 549 713 496 740 q 639 643 601 687 q 726 363 726 538 q 705 209 726 278 q 642 90 683 139 q 543 14 600 40 q 418 -13 486 -13 m 255 287 q 282 175 255 221 q 357 110 309 130 q 416 98 386 98 q 549 167 496 98 q 605 363 605 241 q 577 519 605 454 q 492 612 549 585 q 418 629 458 629 q 351 613 381 629 q 301 572 320 596 q 270 517 282 548 q 255 435 255 481 l 255 287 z "},"c":{"ha":707,"x_min":138,"x_max":720,"o":"m 445 91 q 544 123 502 91 q 608 206 585 155 l 720 173 q 615 35 684 87 q 445 -17 547 -17 q 342 -1 389 -17 q 261 45 296 16 q 203 112 227 75 q 163 194 178 149 q 138 357 138 264 q 187 581 138 488 q 326 713 236 673 q 445 739 382 739 q 615 686 547 739 q 720 548 684 634 l 608 515 q 545 598 585 566 q 445 631 504 631 q 392 622 416 631 q 349 600 368 614 q 316 565 331 585 q 291 523 301 545 q 274 476 281 502 q 259 357 259 425 q 288 200 259 265 q 373 107 316 135 q 445 91 407 91 z "},"d":{"ha":726,"x_min":138,"x_max":725,"o":"m 433 739 q 530 718 485 739 q 608 665 576 697 l 608 991 l 725 991 l 725 -1 l 614 -1 l 610 60 q 445 -17 557 -17 q 341 0 389 -17 q 259 47 294 17 q 201 116 225 78 q 161 201 176 155 q 138 357 138 271 q 185 579 138 486 q 318 713 232 671 q 433 739 372 739 m 608 429 q 579 543 608 494 q 503 614 550 592 q 445 629 474 629 q 380 616 410 629 q 330 581 351 604 q 296 532 310 558 q 273 473 282 505 q 259 357 259 422 q 289 205 259 269 q 375 111 319 140 q 447 94 409 94 q 538 124 500 94 q 594 200 575 153 q 608 281 608 235 l 608 429 z "},"e":{"ha":743,"x_min":134,"x_max":748,"o":"m 735 173 q 626 34 697 85 q 450 -17 555 -17 q 343 0 392 -17 q 259 48 294 17 q 198 118 223 79 q 157 204 173 157 q 134 357 134 273 q 182 578 134 486 q 317 711 230 670 q 441 738 374 738 q 547 720 499 738 q 629 668 595 701 q 687 595 663 635 q 726 505 710 554 q 748 332 748 429 l 255 332 q 306 158 256 223 q 452 92 355 92 q 623 206 572 92 l 735 173 m 618 438 q 505 616 595 577 q 443 628 475 628 q 347 597 387 628 q 285 517 307 566 q 262 438 268 482 l 618 438 z "},"f":{"ha":494,"x_min":101,"x_max":548,"o":"m 509 873 q 433 895 465 895 q 343 855 375 895 q 312 751 312 815 l 312 707 l 495 707 l 495 600 l 312 600 l 312 -1 l 195 -1 l 195 600 l 101 600 l 101 707 l 195 707 l 195 751 q 235 900 195 838 q 342 989 275 962 q 431 1006 385 1006 q 548 979 486 1006 l 509 873 z "},"g":{"ha":726,"x_min":132,"x_max":720,"o":"m 433 734 q 534 712 490 734 q 606 653 579 690 l 610 716 l 720 716 l 720 65 q 673 -151 720 -61 q 539 -281 626 -240 q 412 -309 482 -309 q 132 -118 214 -309 l 243 -85 q 307 -168 265 -138 q 410 -199 349 -199 q 555 -131 507 -199 q 603 48 603 -62 l 603 77 q 428 -10 543 -10 q 220 86 302 -10 q 134 356 134 187 q 182 571 134 479 q 315 705 231 663 q 433 734 370 734 m 603 444 q 590 519 603 486 q 554 575 577 553 q 502 610 532 598 q 442 622 473 622 q 377 610 407 622 q 328 577 348 598 q 293 530 307 555 q 269 473 279 505 q 254 356 254 423 q 284 209 254 272 q 368 117 314 146 q 440 99 401 99 q 531 129 493 99 q 589 205 568 159 q 603 283 603 239 l 603 444 z "},"h":{"ha":721,"x_min":136,"x_max":720,"o":"m 254 657 q 439 739 321 739 q 599 695 534 739 q 695 575 663 651 q 720 435 720 517 l 720 0 l 602 0 l 602 432 q 556 573 602 520 q 429 626 511 626 q 328 597 369 626 q 269 518 288 568 q 254 432 254 481 l 254 0 l 136 0 l 136 991 l 254 991 l 254 657 z "},"i":{"ha":286,"x_min":121,"x_max":294,"o":"m 270 827 q 259 812 270 827 q 208 798 247 798 q 145 827 168 798 q 121 899 121 857 q 136 955 121 930 q 172 991 150 979 q 208 1001 188 1001 q 270 971 247 1001 q 294 899 294 941 q 270 827 294 857 m 267 -1 l 150 -1 l 150 716 l 267 716 l 267 -1 z "},"j":{"ha":490,"x_min":52,"x_max":490,"o":"m 467 827 q 455 812 467 827 q 404 798 444 798 q 341 827 365 798 q 318 899 318 857 q 332 955 318 930 q 369 991 347 979 q 404 1001 385 1001 q 467 971 444 1001 q 490 899 490 941 q 467 827 490 857 m 230 -184 q 327 -133 296 -184 q 357 0 357 -81 l 357 709 l 475 709 l 475 0 q 457 -122 475 -67 q 405 -216 439 -178 q 324 -275 372 -255 q 229 -295 279 -295 q 52 -224 129 -295 l 135 -142 q 230 -184 176 -184 z "},"k":{"ha":760,"x_min":136,"x_max":768,"o":"m 254 314 l 254 -1 l 136 -1 l 136 988 l 254 988 l 254 453 l 588 716 l 751 716 l 439 465 l 768 -1 l 618 -1 l 347 389 l 254 314 z "},"l":{"ha":271,"x_min":150,"x_max":267,"o":"m 150 -1 l 150 988 l 267 988 l 267 -1 l 150 -1 z "},"m":{"ha":1061,"x_min":136,"x_max":1062,"o":"m 252 653 q 292 694 270 677 q 346 724 315 712 q 412 736 378 736 q 530 705 479 736 q 612 621 581 673 q 695 705 644 673 q 814 736 746 736 q 895 723 858 736 q 960 685 932 709 q 1008 631 988 661 q 1041 566 1027 602 q 1062 433 1062 509 l 1062 3 l 945 3 l 945 429 q 909 567 945 514 q 801 621 874 621 q 694 568 730 621 q 658 433 658 516 l 658 3 l 541 3 l 541 429 q 505 567 541 514 q 397 621 470 621 q 289 567 325 621 q 254 429 254 513 l 254 3 l 136 3 l 136 721 l 247 721 l 252 653 z "},"n":{"ha":719,"x_min":136,"x_max":720,"o":"m 252 654 q 439 739 319 739 q 599 695 534 739 q 695 575 663 651 q 720 435 720 517 l 720 0 l 602 0 l 602 429 q 556 570 602 517 q 429 623 511 623 q 328 593 369 623 q 269 515 288 564 q 254 429 254 478 l 254 0 l 136 0 l 136 723 l 247 723 l 252 654 z "},"o":{"ha":749,"x_min":135,"x_max":748,"o":"m 748 359 q 700 144 748 234 q 565 12 652 54 q 441 -14 509 -14 q 338 3 385 -14 q 256 52 290 20 q 197 121 222 83 q 157 206 173 160 q 135 359 135 275 q 182 578 135 488 q 318 709 230 669 q 441 734 374 734 q 546 718 498 734 q 628 671 593 701 q 686 603 662 641 q 726 517 710 564 q 748 359 748 448 m 627 359 q 600 514 627 450 q 518 608 573 579 q 441 626 484 626 q 387 618 412 626 q 343 596 362 610 q 310 562 325 582 q 286 520 295 542 q 269 472 276 498 q 256 359 256 422 q 283 208 256 272 q 365 114 311 143 q 441 95 399 95 q 507 107 477 95 q 557 142 536 120 q 592 191 578 165 q 614 250 606 218 q 627 359 627 299 z "},"p":{"ha":726,"x_min":136,"x_max":723,"o":"m 429 -17 q 330 3 376 -17 q 254 57 285 24 l 254 -296 l 136 -296 l 136 723 l 247 723 l 252 661 q 416 739 304 739 q 520 721 473 739 q 602 672 568 703 q 661 601 637 640 q 700 514 685 562 q 723 357 723 444 q 676 138 723 229 q 543 7 629 47 q 429 -17 489 -17 m 254 286 q 282 174 254 221 q 358 105 311 126 q 416 92 387 92 q 587 242 544 92 q 602 357 602 292 q 572 512 602 446 q 486 609 542 578 q 414 627 452 627 q 378 624 395 627 q 347 613 361 620 q 321 596 333 606 q 299 575 309 587 q 281 550 289 563 q 267 522 273 536 q 254 440 254 486 l 254 286 z "},"q":{"ha":720,"x_min":132,"x_max":718,"o":"m 438 739 q 603 661 551 739 l 608 723 l 718 723 l 718 -293 l 601 -293 l 601 57 q 524 3 570 24 q 426 -17 479 -17 q 218 83 299 -17 q 132 364 132 188 q 179 582 132 491 q 315 712 227 672 q 438 739 371 739 m 601 440 q 588 519 601 484 q 552 578 575 554 q 499 616 530 603 q 440 627 470 627 q 309 559 361 627 q 252 364 252 485 q 281 206 252 273 q 365 110 309 140 q 438 92 399 92 q 529 124 492 92 q 586 203 567 156 q 601 286 601 240 l 601 440 z "},"r":{"ha":526,"x_min":136,"x_max":549,"o":"m 484 578 q 397 611 444 611 q 289 557 325 611 q 254 419 254 503 l 254 1 l 136 1 l 136 718 l 247 718 l 252 650 q 294 692 270 674 q 350 722 318 711 q 417 734 382 734 q 549 688 486 734 l 484 578 z "},"s":{"ha":665,"x_min":96,"x_max":665,"o":"m 538 547 q 395 624 494 624 q 267 570 296 624 q 258 537 258 554 q 261 513 258 524 q 273 493 264 503 q 287 479 281 484 q 307 467 292 474 q 326 458 321 460 q 347 450 330 456 q 378 439 357 446 q 406 430 399 432 l 420 425 q 479 405 457 413 q 533 382 500 397 q 585 352 565 367 q 625 314 605 337 q 654 265 644 292 q 665 203 665 237 q 582 45 665 110 q 526 12 557 26 q 457 -10 495 -2 q 378 -18 418 -18 q 138 80 225 -18 q 96 151 111 111 l 210 207 q 265 124 221 153 q 376 94 309 94 q 469 111 429 94 q 528 160 509 128 q 540 203 540 180 q 530 240 540 224 q 508 267 520 257 q 476 285 495 276 q 404 311 448 298 q 326 334 360 325 q 254 360 292 343 q 191 397 216 377 q 149 454 165 418 q 132 537 132 490 q 206 674 132 616 q 392 734 283 734 q 544 696 479 734 q 649 595 608 659 l 538 547 z "},"t":{"ha":488,"x_min":91,"x_max":513,"o":"m 385 -14 q 276 9 321 -14 q 208 78 231 33 q 184 191 184 124 l 184 607 l 91 607 l 91 713 l 184 713 l 184 907 l 302 907 l 302 713 l 485 713 l 485 607 l 302 607 l 302 191 q 331 121 302 144 q 405 98 360 98 q 429 100 416 98 q 454 105 441 102 q 479 113 467 109 l 513 7 q 385 -14 445 -14 z "},"u":{"ha":720,"x_min":136,"x_max":720,"o":"m 604 66 q 416 -17 536 -17 q 257 26 321 -17 q 161 146 193 70 q 136 286 136 203 l 136 718 l 254 718 l 254 292 q 299 152 254 205 q 427 99 345 99 q 527 128 487 99 q 587 206 567 157 q 602 292 602 243 l 602 718 l 720 718 l 720 -1 l 609 -1 l 604 66 z "},"v":{"ha":742,"x_min":106,"x_max":769,"o":"m 438 146 l 641 717 l 769 717 l 499 0 l 377 0 l 106 717 l 234 717 l 438 146 z "},"w":{"ha":1029,"x_min":97,"x_max":1059,"o":"m 634 716 l 787 153 l 931 716 l 1059 716 l 849 -1 l 726 -1 l 577 551 l 431 -1 l 307 -1 l 97 716 l 225 716 l 369 153 l 522 716 l 634 716 z "},"x":{"ha":793,"x_min":117,"x_max":792,"o":"m 635 716 l 779 716 l 527 354 l 792 -1 l 642 -1 l 454 256 l 267 -1 l 117 -1 l 380 354 l 130 716 l 273 716 l 454 452 l 635 716 z "},"y":{"ha":797,"x_min":109,"x_max":800,"o":"m 163 -170 q 184 -185 177 -180 q 205 -195 191 -189 q 234 -200 220 -200 q 315 -152 277 -200 q 333 -124 324 -140 q 349 -95 342 -109 q 364 -61 356 -81 q 377 -29 372 -41 q 390 6 382 -16 q 402 39 398 28 l 123 718 l 251 718 l 467 187 l 671 718 l 800 718 l 519 5 q 499 -46 504 -33 q 478 -94 494 -58 q 454 -144 463 -129 q 428 -188 445 -160 q 395 -231 410 -216 q 359 -263 380 -246 q 315 -290 338 -280 q 244 -305 283 -305 q 171 -290 208 -305 q 109 -254 134 -275 l 163 -170 z "},"z":{"ha":682,"x_min":132,"x_max":679,"o":"m 166 616 l 166 716 l 679 716 l 679 631 l 278 99 l 669 99 l 669 -1 l 132 -1 l 132 87 l 530 616 l 166 616 z "},"{":{"ha":423,"x_min":135,"x_max":475,"o":"m 242 135 q 238 185 242 164 q 225 224 235 206 q 199 252 216 243 q 155 261 181 261 l 135 261 l 135 378 l 155 378 q 222 410 203 378 q 242 498 242 441 l 242 815 q 257 885 242 853 q 295 937 272 917 q 349 968 319 957 q 412 979 380 979 l 475 979 l 475 880 l 438 880 q 356 787 356 880 l 356 425 q 336 363 356 387 q 283 320 317 339 q 318 292 305 304 q 344 256 332 279 q 356 205 356 233 l 356 -74 q 375 -144 356 -120 q 438 -168 395 -168 l 475 -168 l 475 -267 l 412 -267 q 317 -239 357 -267 q 256 -168 277 -211 q 242 -98 242 -136 l 242 135 z "},"|":{"ha":267,"x_min":85,"x_max":212,"o":"m 85 987 l 212 987 l 212 -273 l 85 -273 l 85 987 z "},"}":{"ha":423,"x_min":81,"x_max":420,"o":"m 313 498 q 333 409 313 441 q 401 378 352 378 l 420 378 l 420 261 l 401 261 q 332 229 350 261 q 313 135 313 197 l 313 -98 q 283 -196 313 -156 q 205 -255 253 -236 q 142 -267 175 -267 l 81 -267 l 81 -168 l 117 -168 q 180 -144 161 -168 q 199 -74 199 -121 l 199 205 q 211 256 199 233 q 236 292 223 279 q 271 320 250 304 q 218 363 238 339 q 199 425 199 388 l 199 787 q 117 880 199 880 l 81 880 l 81 979 l 142 979 q 238 953 197 979 q 298 884 278 926 q 313 815 313 853 l 313 498 z "},"~":{"ha":624,"x_min":145,"x_max":619,"o":"m 619 1001 q 463 928 547 928 q 419 936 439 928 q 372 959 398 943 q 339 978 347 975 q 299 987 320 987 q 254 982 275 987 q 210 962 232 976 q 177 940 187 947 q 145 915 168 933 l 145 1017 q 304 1097 212 1097 q 341 1092 322 1097 q 372 1080 359 1086 q 401 1062 384 1073 q 429 1047 418 1052 q 469 1038 447 1038 q 495 1040 482 1038 q 520 1046 507 1042 q 542 1054 533 1050 q 564 1065 551 1057 q 583 1076 577 1073 q 602 1088 588 1079 q 619 1100 616 1098 l 619 1001 z "}," ":{"ha":703,"x_min":0,"x_max":0,"o":"z "},"¡":{"ha":296,"x_min":127,"x_max":296,"o":"m 213 -8 q 143 45 159 -8 l 163 779 l 263 779 l 283 45 q 258 6 277 21 q 213 -8 240 -8 m 212 841 q 149 862 171 841 q 127 924 127 884 q 149 986 127 964 q 212 1008 172 1008 q 274 986 252 1008 q 296 924 296 964 q 274 862 296 884 q 212 841 252 841 z "},"¢":{"ha":707,"x_min":138,"x_max":720,"o":"m 582 990 l 667 990 l 580 708 q 720 548 672 661 l 608 515 q 591 546 600 532 q 571 574 583 560 q 546 597 559 587 l 391 100 q 445 91 417 91 q 544 123 502 91 q 608 206 585 155 l 720 173 q 615 35 684 87 q 445 -17 547 -17 q 359 -5 399 -17 l 301 -191 l 216 -191 l 283 28 q 163 194 201 83 q 138 357 138 264 q 187 581 138 488 q 326 713 236 673 q 445 739 382 739 q 503 734 475 739 l 582 990 m 321 148 l 470 629 q 462 630 466 629 q 453 630 458 630 q 445 631 449 631 q 392 622 416 631 q 349 600 368 614 q 316 565 331 585 q 291 523 301 545 q 274 476 281 502 q 259 357 259 425 q 321 148 259 218 z "},"£":{"ha":742,"x_min":86,"x_max":738,"o":"m 153 -13 q 95 71 136 9 q 245 258 210 156 q 258 338 258 296 q 237 454 258 393 l 86 454 l 86 541 l 189 541 q 127 743 127 645 q 176 898 127 836 q 304 987 226 960 q 415 1005 357 1005 q 586 960 515 1005 q 698 839 657 914 q 736 725 726 787 l 625 725 q 598 798 616 765 q 552 854 579 830 q 490 891 524 878 q 414 904 455 904 q 346 892 377 904 q 294 861 315 881 q 260 814 273 841 q 247 749 247 785 q 311 541 247 656 l 535 541 l 535 454 l 343 454 q 372 333 372 393 q 276 113 372 221 q 368 125 324 125 q 477 105 409 125 q 585 85 545 85 q 689 123 640 85 l 738 45 q 576 -16 651 -16 q 444 13 525 -16 q 313 41 363 41 q 250 31 282 41 q 201 13 218 21 q 153 -13 184 5 z "},"¤":{"ha":860,"x_min":144,"x_max":851,"o":"m 333 484 q 341 433 333 457 q 362 390 349 409 q 394 358 376 372 q 431 335 411 344 q 495 323 461 323 q 587 351 548 323 q 644 421 625 378 q 656 484 656 450 q 629 576 656 538 q 557 633 602 614 q 495 646 528 646 q 403 618 441 646 q 346 547 365 591 q 333 484 333 517 m 777 487 q 729 331 777 402 l 851 209 l 778 136 l 657 257 q 495 205 583 205 q 336 255 409 205 l 217 136 l 144 209 l 263 328 q 214 487 214 403 q 265 649 214 574 l 144 770 l 217 843 l 339 721 q 495 768 412 768 q 654 719 581 768 l 778 843 l 851 770 l 727 646 q 777 487 777 571 z "},"¥":{"ha":888,"x_min":111,"x_max":909,"o":"m 909 989 l 663 585 l 808 585 l 808 488 l 605 488 l 570 429 l 570 368 l 808 368 l 808 271 l 570 271 l 570 0 l 450 0 l 450 271 l 203 271 l 203 368 l 450 368 l 450 429 l 414 488 l 203 488 l 203 585 l 356 585 l 111 989 l 247 989 l 509 559 l 772 989 l 909 989 z "},"¦":{"ha":267,"x_min":138,"x_max":268,"o":"m 138 312 l 268 312 l 268 -270 l 138 -270 l 138 312 m 138 990 l 268 990 l 268 408 l 138 408 l 138 990 z "},"§":{"ha":759,"x_min":134,"x_max":757,"o":"m 595 178 q 652 240 629 201 q 674 327 674 279 q 667 374 674 353 q 648 412 659 396 q 618 442 637 428 q 583 465 600 456 q 541 483 566 474 q 499 497 515 492 q 456 509 482 502 q 420 518 450 510 q 379 529 390 526 q 348 538 368 532 q 313 552 328 545 q 244 499 271 534 q 216 414 216 465 q 231 350 216 379 q 264 304 246 321 q 318 272 282 288 q 375 249 354 256 q 437 231 395 243 q 441 230 440 231 q 445 229 443 230 q 450 228 448 229 q 479 220 454 227 q 513 211 505 213 q 540 202 522 208 q 571 190 559 196 q 595 178 584 184 m 757 336 q 661 124 757 208 q 698 -14 698 68 q 604 -224 698 -142 q 402 -298 518 -298 q 193 -206 278 -298 q 144 -136 164 -176 l 233 -72 q 292 -159 249 -126 q 400 -192 336 -192 q 475 -179 440 -192 q 536 -144 511 -165 q 576 -94 561 -123 q 594 -19 594 -62 q 588 23 594 4 q 572 57 581 43 q 547 83 564 71 q 517 103 530 96 q 480 119 503 111 q 443 131 457 127 q 402 141 428 134 q 364 151 376 148 q 274 182 311 166 q 203 227 238 199 q 152 297 169 254 q 134 398 134 340 q 163 516 134 465 q 238 601 191 568 q 193 748 193 657 q 241 900 193 838 q 366 987 290 961 q 463 1004 414 1004 q 688 884 597 1004 l 602 820 q 461 901 550 901 q 371 881 410 901 q 312 825 332 860 q 296 761 296 798 q 301 722 296 740 q 314 691 305 705 q 333 666 323 677 q 359 645 343 654 q 389 629 376 635 q 423 616 402 623 q 457 606 444 610 q 492 596 470 602 q 526 587 515 591 q 600 563 569 575 q 662 530 630 551 q 713 485 693 510 q 745 421 732 459 q 757 336 757 383 z "},"¨":{"ha":583,"x_min":133,"x_max":581,"o":"m 427 1015 q 448 1074 427 1049 q 503 1099 470 1099 q 559 1074 537 1099 q 581 1015 581 1050 q 559 956 581 980 q 503 932 538 932 q 448 956 469 932 q 427 1015 427 980 m 133 1015 q 155 1074 133 1049 q 210 1099 176 1099 q 265 1074 243 1099 q 287 1015 287 1050 q 266 956 287 980 q 210 932 244 932 q 154 956 175 932 q 133 1015 133 980 z "},"©":{"ha":899,"x_min":136,"x_max":899,"o":"m 691 241 q 518 115 633 115 q 408 151 451 115 q 343 246 364 186 q 328 345 328 289 q 358 480 328 425 q 444 560 389 536 q 518 575 478 575 q 691 450 633 575 l 609 425 q 518 495 578 495 q 440 453 465 495 q 416 345 416 410 q 440 238 416 280 q 518 195 465 195 q 609 265 578 195 l 691 241 m 899 357 q 869 208 899 276 q 788 92 838 140 q 669 13 737 43 q 518 -16 600 -16 q 367 13 436 -16 q 248 92 298 43 q 167 208 197 140 q 136 357 136 275 q 167 508 136 439 q 248 627 198 577 q 367 708 298 677 q 518 739 435 739 q 669 708 600 739 q 788 627 738 677 q 869 508 838 576 q 899 357 899 439 m 821 357 q 732 572 821 483 q 518 661 644 661 q 304 572 393 661 q 215 357 215 483 q 267 188 215 258 q 400 84 319 117 q 518 61 455 61 q 690 111 618 61 q 798 240 763 161 q 821 357 821 294 z "},"ª":{"ha":445,"x_min":136,"x_max":439,"o":"m 287 931 q 244 917 258 931 q 222 873 230 903 l 150 892 q 291 998 190 998 q 399 956 359 998 q 439 843 439 914 l 439 614 l 368 614 l 366 642 q 320 615 342 624 q 270 607 299 607 q 193 626 224 607 q 146 678 161 645 q 136 727 136 700 q 180 823 136 788 q 292 858 225 858 q 363 844 325 858 q 287 931 358 931 m 283 675 q 340 697 318 675 q 363 754 363 720 l 363 775 q 293 791 330 791 q 234 776 256 791 q 212 729 212 760 q 283 675 212 675 z "},"«":{"ha":587,"x_min":132,"x_max":585,"o":"m 368 -17 l 132 368 l 368 762 l 368 603 l 278 371 l 368 141 l 368 -17 m 585 -17 l 349 368 l 585 762 l 585 603 l 495 371 l 585 141 l 585 -17 z "},"¬":{"ha":1061,"x_min":136,"x_max":1059,"o":"m 1059 223 l 932 223 l 932 427 l 136 427 l 136 537 l 1059 537 l 1059 223 z "},"­":{"ha":1563,"x_min":0,"x_max":0,"o":""},"®":{"ha":890,"x_min":134,"x_max":889,"o":"m 511 -13 q 362 17 430 -13 q 244 97 294 47 q 164 215 194 147 q 134 364 134 282 q 149 471 134 419 q 188 561 164 522 q 244 631 212 599 q 362 711 294 681 q 511 742 430 742 q 618 726 566 742 q 708 687 669 711 q 779 631 746 663 q 859 513 828 581 q 889 364 889 446 q 859 215 889 283 q 779 98 828 147 q 661 17 728 47 q 511 -13 593 -13 m 511 671 q 425 658 467 671 q 352 626 383 646 q 294 581 321 607 q 230 486 254 541 q 205 364 205 431 q 217 278 205 319 q 249 205 230 236 q 294 148 269 174 q 390 82 335 107 q 511 58 445 58 q 632 82 577 58 q 728 148 688 107 q 793 243 768 188 q 818 364 818 298 q 793 486 818 431 q 728 581 768 541 q 671 626 702 607 q 598 658 640 646 q 511 671 556 671 m 663 458 q 578 339 663 383 l 697 151 l 602 151 l 494 328 l 431 328 l 431 151 l 351 151 l 351 592 l 497 592 q 617 558 572 592 q 663 458 663 524 m 579 458 q 497 516 579 516 l 431 516 l 431 402 l 497 402 q 579 458 579 402 z "},"¯":{"ha":1563,"x_min":0,"x_max":0,"o":""},"°":{"ha":519,"x_min":85,"x_max":491,"o":"m 288 999 q 402 964 354 999 q 475 874 451 928 q 491 795 491 837 q 456 681 491 729 q 366 609 420 633 q 288 593 329 593 q 173 628 221 593 q 102 718 125 663 q 85 795 85 754 q 120 910 85 862 q 209 983 155 959 q 288 999 246 999 m 288 684 q 369 715 337 684 q 401 795 401 747 q 369 878 401 846 q 288 909 337 909 q 207 877 239 909 q 176 795 176 845 q 195 732 176 758 q 243 692 214 705 q 288 684 264 684 z "},"±":{"ha":884,"x_min":156,"x_max":863,"o":"m 156 164 l 863 164 l 863 54 l 156 54 l 156 164 m 450 618 l 450 932 l 569 932 l 569 618 l 863 618 l 863 508 l 569 508 l 569 212 l 450 212 l 450 508 l 156 508 l 156 618 l 450 618 z "},"²":{"ha":433,"x_min":83,"x_max":396,"o":"m 83 885 q 141 970 102 938 q 237 1002 180 1002 q 327 978 290 1002 q 382 913 364 954 q 396 850 396 885 q 391 806 396 827 q 378 771 386 786 q 358 742 371 755 q 333 719 345 728 q 302 700 321 709 q 270 684 283 690 q 235 670 256 678 q 190 646 207 660 q 171 608 174 633 l 391 608 l 391 534 l 89 534 l 89 583 q 172 726 89 686 q 208 741 183 732 q 247 758 232 751 q 278 778 261 765 q 302 808 294 790 q 311 852 311 827 q 291 908 311 887 q 236 930 271 930 q 187 910 205 930 q 157 855 169 891 l 83 885 z "},"³":{"ha":445,"x_min":83,"x_max":408,"o":"m 351 776 q 408 669 408 739 q 365 566 408 603 q 253 530 321 530 q 146 562 189 530 q 83 648 102 595 l 165 673 q 195 620 176 638 q 248 602 214 602 q 303 620 281 602 q 325 669 325 637 q 303 719 325 701 q 247 736 281 736 l 175 736 l 175 808 l 247 808 q 295 826 277 808 q 314 872 314 843 q 296 917 314 901 q 248 932 278 932 q 173 863 191 932 l 97 891 q 156 972 117 941 q 252 1004 195 1004 q 330 983 296 1004 q 381 930 363 963 q 394 872 394 905 q 351 776 394 811 z "},"´":{"ha":393,"x_min":80,"x_max":358,"o":"m 182 787 l 80 787 l 216 1048 l 358 1048 l 182 787 z "},"µ":{"ha":730,"x_min":136,"x_max":731,"o":"m 421 -17 q 256 37 313 -17 l 256 -279 l 136 -279 l 136 724 l 256 724 l 256 298 q 285 179 256 227 q 366 113 314 132 q 433 100 398 100 q 535 130 494 100 q 596 210 576 160 q 611 298 611 248 l 611 710 l 731 710 l 731 -1 l 618 -1 l 613 68 q 421 -17 547 -17 z "},"¶":{"ha":998,"x_min":136,"x_max":994,"o":"m 994 863 l 802 863 l 802 -274 l 686 -274 l 686 863 l 597 863 l 597 -274 l 467 -274 l 467 353 q 234 452 334 355 q 136 671 136 547 q 237 894 136 799 q 476 990 339 990 l 994 990 l 994 863 z "},"·":{"ha":1389,"x_min":0,"x_max":0,"o":""},"¸":{"ha":488,"x_min":157,"x_max":475,"o":"m 255 -296 q 185 -281 213 -296 q 157 -232 157 -266 q 159 -214 157 -224 l 213 -186 q 210 -209 210 -197 q 258 -242 210 -242 q 325 -225 294 -242 q 372 -184 355 -209 q 383 -142 383 -165 q 371 -120 383 -127 q 341 -112 358 -112 q 254 -153 296 -112 l 203 -144 l 355 79 l 373 20 l 319 -60 q 372 -51 347 -51 q 446 -69 417 -51 q 475 -126 475 -87 q 463 -185 475 -158 q 429 -231 450 -212 q 382 -263 407 -250 q 330 -285 357 -277 q 255 -296 290 -296 z "},"¹":{"ha":312,"x_min":140,"x_max":307,"o":"m 140 952 l 245 989 l 307 989 l 307 473 l 217 473 l 217 889 l 140 865 l 140 952 z "},"º":{"ha":469,"x_min":139,"x_max":459,"o":"m 299 1002 q 418 947 376 1002 q 459 807 459 892 q 434 695 459 742 q 363 627 409 649 q 299 613 334 613 q 181 668 222 613 q 139 807 139 723 q 150 887 139 851 q 183 948 161 923 q 235 988 204 974 q 299 1002 264 1002 m 213 807 q 235 717 213 753 q 299 682 256 682 q 363 717 342 682 q 385 807 385 753 q 364 899 385 863 q 299 934 343 934 q 234 899 255 934 q 213 807 213 863 z "},"»":{"ha":587,"x_min":132,"x_max":585,"o":"m 368 368 l 132 -17 l 132 141 l 222 371 l 132 603 l 132 762 l 368 368 m 585 368 l 349 -17 l 349 141 l 439 371 l 349 603 l 349 762 l 585 368 z "},"¼":{"ha":754,"x_min":118,"x_max":765,"o":"m 143 958 l 252 996 l 317 996 l 317 473 l 220 473 l 220 888 l 143 864 l 143 958 m 765 970 l 192 -5 l 118 37 l 691 1012 l 765 970 m 343 90 l 343 155 l 565 518 l 665 518 l 665 176 l 723 176 l 723 90 l 665 90 l 665 -1 l 568 -1 l 568 90 l 343 90 m 465 176 l 568 176 l 568 356 l 465 176 z "},"½":{"ha":815,"x_min":118,"x_max":816,"o":"m 454 393 q 635 529 507 529 q 737 502 694 529 q 801 428 780 474 q 816 354 816 395 q 802 278 816 311 q 763 222 789 245 q 710 185 736 199 q 646 157 684 171 q 616 146 627 151 q 592 134 606 142 q 570 113 578 125 q 560 85 562 101 l 811 85 l 811 -1 l 460 -1 l 460 54 q 465 102 460 80 q 476 141 469 124 q 496 172 484 157 q 522 197 509 186 q 553 217 534 207 q 587 234 572 227 q 625 248 602 240 q 660 264 646 257 q 688 284 673 271 q 709 314 703 296 q 716 357 716 332 q 694 419 716 395 q 633 442 671 442 q 576 420 596 442 q 544 360 557 399 l 454 393 m 143 958 l 252 996 l 317 996 l 317 473 l 220 473 l 220 888 l 143 864 l 143 958 m 765 970 l 192 -5 l 118 37 l 691 1012 l 765 970 z "},"¾":{"ha":846,"x_min":111,"x_max":860,"o":"m 860 970 l 287 -5 l 213 37 l 786 1012 l 860 970 m 438 90 l 438 155 l 660 518 l 760 518 l 760 176 l 818 176 l 818 90 l 760 90 l 760 -1 l 663 -1 l 663 90 l 438 90 m 559 176 l 663 176 l 663 356 l 559 176 m 421 747 q 486 627 486 703 q 435 510 486 552 q 306 467 385 467 q 183 505 232 467 q 111 604 134 542 l 207 636 q 242 575 222 595 q 302 555 263 555 q 361 574 338 555 q 385 627 385 593 q 361 681 385 661 q 300 700 337 700 l 214 700 l 214 787 l 299 787 q 352 805 332 787 q 372 854 372 823 q 352 904 372 885 q 301 922 332 922 q 219 840 240 922 l 127 875 q 305 1007 178 1007 q 396 984 357 1007 q 454 922 435 960 q 470 854 470 894 q 421 747 470 789 z "},"¿":{"ha":713,"x_min":106,"x_max":706,"o":"m 428 547 l 555 552 q 558 476 558 507 q 546 384 558 425 q 511 314 534 343 q 461 263 488 284 q 396 222 434 243 q 374 210 389 218 q 350 198 358 202 q 328 185 342 194 q 307 171 314 177 q 288 156 299 165 q 270 137 276 146 q 255 117 263 129 q 244 93 248 105 q 237 65 240 81 q 235 33 235 50 q 280 -75 235 -37 q 399 -112 325 -112 q 524 -68 477 -112 q 586 48 571 -25 l 706 7 q 657 -91 688 -48 q 393 -221 563 -221 q 286 -203 338 -221 q 217 -168 248 -189 q 160 -117 185 -146 q 121 -46 135 -87 q 106 42 106 -5 q 157 195 106 137 q 186 221 170 208 q 219 244 202 234 q 254 264 235 254 q 291 283 273 274 q 326 303 309 292 q 359 325 344 314 q 388 352 374 336 q 410 385 401 368 q 425 425 420 402 q 431 475 431 448 q 429 511 431 488 q 428 547 428 534 m 422 769 q 434 784 422 769 q 485 799 446 799 q 548 769 524 799 q 571 697 571 739 q 547 626 571 656 q 485 595 523 595 q 449 605 465 595 q 412 642 426 618 q 399 697 399 665 q 422 769 399 739 z "},"À":{"ha":877,"x_min":117,"x_max":892,"o":"m 432 923 l 224 1097 l 410 1097 l 554 923 l 432 923 m 749 0 l 669 242 l 340 242 l 259 0 l 117 0 l 434 899 l 574 899 l 892 0 l 749 0 m 505 737 l 374 353 l 635 353 l 505 737 z "},"Á":{"ha":877,"x_min":117,"x_max":892,"o":"m 588 924 l 466 924 l 609 1098 l 795 1098 l 588 924 m 749 0 l 669 242 l 340 242 l 259 0 l 117 0 l 434 899 l 574 899 l 892 0 l 749 0 m 505 737 l 374 353 l 635 353 l 505 737 z "},"Â":{"ha":877,"x_min":117,"x_max":892,"o":"m 725 923 l 604 923 l 489 1011 l 375 923 l 254 923 l 397 1097 l 396 1097 l 583 1097 l 582 1097 l 725 923 m 749 0 l 669 242 l 340 242 l 259 0 l 117 0 l 434 899 l 574 899 l 892 0 l 749 0 m 505 737 l 374 353 l 635 353 l 505 737 z "},"Ã":{"ha":877,"x_min":117,"x_max":892,"o":"m 692 1010 q 581 943 642 943 q 556 947 568 943 q 536 957 543 952 q 517 971 529 962 q 501 983 506 980 q 456 1001 475 1001 q 403 986 429 1001 q 345 939 377 972 l 345 1021 q 459 1097 396 1097 q 488 1092 475 1097 q 519 1072 500 1086 q 538 1056 538 1057 q 585 1038 564 1038 q 628 1046 607 1038 q 660 1064 648 1055 q 692 1091 672 1073 l 692 1010 m 749 0 l 669 242 l 340 242 l 259 0 l 117 0 l 434 899 l 574 899 l 892 0 l 749 0 m 505 737 l 374 353 l 635 353 l 505 737 z "},"Ä":{"ha":877,"x_min":117,"x_max":892,"o":"m 542 1015 q 564 1074 542 1049 q 618 1099 585 1099 q 674 1074 652 1099 q 696 1015 696 1050 q 674 956 696 980 q 618 932 653 932 q 563 956 584 932 q 542 1015 542 980 m 296 1015 q 317 1074 296 1049 q 372 1099 339 1099 q 428 1074 406 1099 q 450 1015 450 1050 q 428 956 450 980 q 372 932 407 932 q 317 956 338 932 q 296 1015 296 980 m 749 0 l 669 242 l 340 242 l 259 0 l 117 0 l 434 899 l 574 899 l 892 0 l 749 0 m 505 737 l 374 353 l 635 353 l 505 737 z "},"Å":{"ha":877,"x_min":117,"x_max":892,"o":"m 552 1012 q 536 1047 552 1032 q 500 1061 521 1061 q 463 1047 478 1061 q 447 1012 447 1033 q 463 976 447 991 q 500 962 478 962 q 537 976 522 962 q 552 1012 552 991 m 564 1074 q 577 1062 564 1074 q 590 1012 590 1050 q 564 949 590 974 q 500 925 538 925 q 435 949 461 925 q 408 1012 408 974 q 435 1074 408 1050 q 500 1099 461 1099 q 564 1074 538 1099 m 749 0 l 669 242 l 340 242 l 259 0 l 117 0 l 434 899 l 574 899 l 892 0 l 749 0 m 505 737 l 374 353 l 635 353 l 505 737 z "},"Æ":{"ha":1141,"x_min":119,"x_max":1137,"o":"m 614 545 l 614 878 l 543 878 l 433 545 l 614 545 m 1137 -1 l 614 -1 l 614 446 l 400 446 l 252 -1 l 119 -1 l 465 989 l 1137 989 l 1137 878 l 734 878 l 734 545 l 1069 545 l 1069 446 l 734 446 l 734 106 l 1137 106 l 1137 -1 z "},"Ç":{"ha":867,"x_min":136,"x_max":882,"o":"m 589 -119 q 502 -157 542 -119 l 445 -144 l 541 -14 l 526 -14 q 516 -14 521 -14 q 391 6 448 -14 q 293 61 334 25 q 223 140 252 96 q 175 239 195 184 q 136 477 136 347 q 164 703 136 602 q 252 878 193 804 q 399 985 312 951 q 529 1007 456 1007 q 660 987 600 1007 q 761 929 719 966 q 833 845 803 891 q 882 741 863 798 l 765 710 q 530 899 713 899 q 421 874 469 899 q 345 809 374 849 q 297 712 315 769 q 271 596 278 654 q 264 470 264 538 q 433 110 264 178 q 525 94 472 94 q 670 143 616 94 q 753 276 724 192 l 869 237 q 616 -3 788 37 l 577 -56 q 616 -52 600 -52 q 695 -72 665 -52 q 726 -134 726 -92 q 650 -257 726 -209 q 505 -300 582 -300 q 428 -283 458 -300 q 398 -229 398 -266 q 400 -209 398 -218 l 464 -179 q 458 -208 458 -197 q 471 -231 458 -223 q 503 -239 484 -239 q 568 -224 538 -239 q 614 -187 598 -210 q 627 -147 627 -170 q 615 -126 627 -133 q 589 -119 604 -119 z "},"È":{"ha":702,"x_min":96,"x_max":701,"o":"m 303 923 l 96 1097 l 281 1097 l 425 923 l 303 923 m 682 901 l 682 789 l 256 789 l 256 524 l 646 524 l 646 412 l 256 412 l 256 111 l 701 111 l 701 -1 l 131 -1 l 131 901 l 682 901 z "},"É":{"ha":702,"x_min":131,"x_max":734,"o":"m 527 924 l 405 924 l 548 1098 l 734 1098 l 527 924 m 682 901 l 682 789 l 256 789 l 256 524 l 646 524 l 646 412 l 256 412 l 256 111 l 701 111 l 701 -1 l 131 -1 l 131 901 l 682 901 z "},"Ê":{"ha":702,"x_min":131,"x_max":701,"o":"m 650 923 l 529 923 l 414 1011 l 300 923 l 179 923 l 322 1097 l 321 1097 l 508 1097 l 507 1097 l 650 923 m 682 901 l 682 789 l 256 789 l 256 524 l 646 524 l 646 412 l 256 412 l 256 111 l 701 111 l 701 -1 l 131 -1 l 131 901 l 682 901 z "},"Ë":{"ha":702,"x_min":131,"x_max":701,"o":"m 474 1015 q 496 1074 474 1049 q 551 1099 517 1099 q 606 1074 585 1099 q 628 1015 628 1050 q 607 956 628 980 q 551 932 585 932 q 495 956 516 932 q 474 1015 474 980 m 228 1015 q 250 1074 228 1049 q 304 1099 271 1099 q 360 1074 338 1099 q 382 1015 382 1050 q 360 956 382 980 q 304 932 339 932 q 249 956 270 932 q 228 1015 228 980 m 682 901 l 682 789 l 256 789 l 256 524 l 646 524 l 646 412 l 256 412 l 256 111 l 701 111 l 701 -1 l 131 -1 l 131 901 l 682 901 z "},"Ì":{"ha":450,"x_min":102,"x_max":447,"o":"m 310 923 l 102 1097 l 288 1097 l 432 923 l 310 923 m 447 -1 l 317 -1 l 317 900 l 447 900 l 447 -1 z "},"Í":{"ha":454,"x_min":134,"x_max":476,"o":"m 269 924 l 147 924 l 290 1098 l 476 1098 l 269 924 m 264 -1 l 134 -1 l 134 900 l 264 900 l 264 -1 z "},"Î":{"ha":572,"x_min":118,"x_max":589,"o":"m 589 923 l 468 923 l 353 1011 l 239 923 l 118 923 l 261 1097 l 260 1097 l 447 1097 l 446 1097 l 589 923 m 413 -1 l 283 -1 l 283 900 l 413 900 l 413 -1 z "},"Ï":{"ha":521,"x_min":126,"x_max":526,"o":"m 372 1015 q 394 1074 372 1049 q 449 1099 416 1099 q 505 1074 483 1099 q 526 1015 526 1050 q 505 956 526 980 q 449 932 484 932 q 393 956 414 932 q 372 1015 372 980 m 126 1015 q 148 1074 126 1049 q 203 1099 170 1099 q 258 1074 237 1099 q 280 1015 280 1050 q 259 956 280 980 q 203 932 237 932 q 147 956 168 932 q 126 1015 126 980 m 393 -1 l 263 -1 l 263 900 l 393 900 l 393 -1 z "},"Ð":{"ha":1032,"x_min":136,"x_max":1027,"o":"m 562 107 q 815 210 731 107 q 900 494 900 313 q 879 657 900 586 q 814 779 857 728 q 707 857 770 829 q 558 884 643 884 l 407 884 l 407 598 l 720 598 l 720 488 l 407 488 l 407 107 l 562 107 m 286 598 l 286 991 l 557 991 q 838 913 727 991 q 996 698 949 835 q 1027 494 1027 606 q 957 205 1027 322 q 758 35 886 87 q 562 -1 671 -1 l 286 -1 l 286 488 l 136 488 l 136 598 l 286 598 z "},"Ñ":{"ha":781,"x_min":134,"x_max":781,"o":"m 645 1010 q 533 943 594 943 q 508 947 521 943 q 489 957 496 952 q 470 971 481 962 q 454 983 458 980 q 408 1001 428 1001 q 356 986 382 1001 q 298 939 330 972 l 298 1021 q 412 1097 349 1097 q 440 1092 428 1097 q 472 1072 453 1086 q 491 1056 490 1057 q 537 1038 517 1038 q 580 1046 559 1038 q 613 1064 601 1055 q 645 1091 625 1073 l 645 1010 m 252 642 l 252 0 l 134 0 l 134 896 l 286 896 l 665 190 l 663 246 l 663 896 l 781 896 l 781 0 l 625 0 l 250 711 l 252 642 z "},"Ò":{"ha":855,"x_min":123,"x_max":857,"o":"m 330 923 l 123 1097 l 309 1097 l 452 923 l 330 923 m 857 448 q 834 262 857 346 q 765 116 811 178 q 652 20 719 54 q 496 -15 585 -15 q 227 117 324 -15 q 158 262 182 178 q 134 448 134 347 q 187 715 134 604 q 340 878 239 827 q 496 913 408 913 q 624 891 566 913 q 722 831 682 870 q 790 744 762 793 q 833 635 817 695 q 857 448 857 550 m 267 448 q 396 121 267 193 q 496 98 439 98 q 589 117 549 98 q 655 168 630 136 q 696 246 680 200 q 719 341 713 292 q 726 448 726 390 q 597 776 726 703 q 496 800 554 800 q 411 784 449 800 q 348 739 373 768 q 307 675 323 710 q 281 595 290 640 q 267 448 267 530 z "},"Ó":{"ha":855,"x_min":134,"x_max":869,"o":"m 663 924 l 541 924 l 684 1098 l 869 1098 l 663 924 m 857 448 q 834 262 857 346 q 765 116 811 178 q 652 20 719 54 q 496 -15 585 -15 q 227 117 324 -15 q 158 262 182 178 q 134 448 134 347 q 187 715 134 604 q 340 878 239 827 q 496 913 408 913 q 624 891 566 913 q 722 831 682 870 q 790 744 762 793 q 833 635 817 695 q 857 448 857 550 m 267 448 q 396 121 267 193 q 496 98 439 98 q 589 117 549 98 q 655 168 630 136 q 696 246 680 200 q 719 341 713 292 q 726 448 726 390 q 597 776 726 703 q 496 800 554 800 q 411 784 449 800 q 348 739 373 768 q 307 675 323 710 q 281 595 290 640 q 267 448 267 530 z "},"Ô":{"ha":855,"x_min":134,"x_max":857,"o":"m 739 923 l 617 923 l 503 1011 l 389 923 l 267 923 l 410 1097 l 410 1097 l 596 1097 l 595 1097 l 739 923 m 857 448 q 834 262 857 346 q 765 116 811 178 q 652 20 719 54 q 496 -15 585 -15 q 227 117 324 -15 q 158 262 182 178 q 134 448 134 347 q 187 715 134 604 q 340 878 239 827 q 496 913 408 913 q 624 891 566 913 q 722 831 682 870 q 790 744 762 793 q 833 635 817 695 q 857 448 857 550 m 267 448 q 396 121 267 193 q 496 98 439 98 q 589 117 549 98 q 655 168 630 136 q 696 246 680 200 q 719 341 713 292 q 726 448 726 390 q 597 776 726 703 q 496 800 554 800 q 411 784 449 800 q 348 739 373 768 q 307 675 323 710 q 281 595 290 640 q 267 448 267 530 z "},"Õ":{"ha":855,"x_min":134,"x_max":857,"o":"m 692 1010 q 581 943 642 943 q 556 947 568 943 q 536 957 543 952 q 517 971 529 962 q 501 983 506 980 q 456 1001 475 1001 q 403 986 429 1001 q 345 939 377 972 l 345 1021 q 459 1097 396 1097 q 488 1092 475 1097 q 519 1072 500 1086 q 538 1056 538 1057 q 585 1038 564 1038 q 628 1046 607 1038 q 660 1064 648 1055 q 692 1091 672 1073 l 692 1010 m 857 448 q 834 262 857 346 q 765 116 811 178 q 652 20 719 54 q 496 -15 585 -15 q 227 117 324 -15 q 158 262 182 178 q 134 448 134 347 q 187 715 134 604 q 340 878 239 827 q 496 913 408 913 q 624 891 566 913 q 722 831 682 870 q 790 744 762 793 q 833 635 817 695 q 857 448 857 550 m 267 448 q 396 121 267 193 q 496 98 439 98 q 589 117 549 98 q 655 168 630 136 q 696 246 680 200 q 719 341 713 292 q 726 448 726 390 q 597 776 726 703 q 496 800 554 800 q 411 784 449 800 q 348 739 373 768 q 307 675 323 710 q 281 595 290 640 q 267 448 267 530 z "},"Ö":{"ha":855,"x_min":134,"x_max":857,"o":"m 549 1015 q 570 1074 549 1049 q 625 1099 592 1099 q 681 1074 659 1099 q 703 1015 703 1050 q 681 956 703 980 q 625 932 660 932 q 570 956 591 932 q 549 1015 549 980 m 302 1015 q 324 1074 302 1049 q 379 1099 346 1099 q 435 1074 413 1099 q 456 1015 456 1050 q 435 956 456 980 q 379 932 414 932 q 323 956 345 932 q 302 1015 302 980 m 857 448 q 834 262 857 346 q 765 116 811 178 q 652 20 719 54 q 496 -15 585 -15 q 227 117 324 -15 q 158 262 182 178 q 134 448 134 347 q 187 715 134 604 q 340 878 239 827 q 496 913 408 913 q 624 891 566 913 q 722 831 682 870 q 790 744 762 793 q 833 635 817 695 q 857 448 857 550 m 267 448 q 396 121 267 193 q 496 98 439 98 q 589 117 549 98 q 655 168 630 136 q 696 246 680 200 q 719 341 713 292 q 726 448 726 390 q 597 776 726 703 q 496 800 554 800 q 411 784 449 800 q 348 739 373 768 q 307 675 323 710 q 281 595 290 640 q 267 448 267 530 z "},"×":{"ha":877,"x_min":178,"x_max":841,"o":"m 259 105 l 178 186 l 429 437 l 178 687 l 259 768 l 510 517 l 760 768 l 841 687 l 590 437 l 841 186 l 760 105 l 510 355 l 259 105 z "},"Ø":{"ha":915,"x_min":132,"x_max":932,"o":"m 826 990 l 932 990 l 829 844 q 916 494 916 708 q 859 203 916 325 q 693 23 802 81 q 525 -15 620 -15 q 286 71 383 -15 l 240 5 l 134 5 l 227 138 q 157 295 182 204 q 132 494 132 386 q 189 789 132 666 q 357 968 246 911 q 525 1006 430 1006 q 664 981 602 1006 q 772 913 725 957 l 826 990 m 353 165 q 426 112 383 132 q 525 93 469 93 q 772 328 721 93 q 789 494 789 402 q 787 561 789 529 q 780 622 785 592 q 768 681 775 652 q 751 733 761 709 l 353 165 m 704 816 q 525 897 637 897 q 277 661 329 897 q 261 494 261 586 q 303 245 261 342 l 704 816 z "},"Ù":{"ha":774,"x_min":130,"x_max":777,"o":"m 337 923 l 130 1097 l 315 1097 l 459 923 l 337 923 m 456 98 q 601 146 551 98 q 651 288 651 194 l 651 911 l 777 911 l 777 293 q 724 107 777 181 q 579 3 671 33 q 456 -16 522 -16 q 273 30 348 -16 q 161 157 197 75 q 136 293 136 215 l 136 911 l 263 911 l 263 288 q 313 146 263 195 q 456 98 363 98 z "},"Ú":{"ha":774,"x_min":136,"x_max":788,"o":"m 581 924 l 459 924 l 602 1098 l 788 1098 l 581 924 m 456 98 q 601 146 551 98 q 651 288 651 194 l 651 911 l 777 911 l 777 293 q 724 107 777 181 q 579 3 671 33 q 456 -16 522 -16 q 273 30 348 -16 q 161 157 197 75 q 136 293 136 215 l 136 911 l 263 911 l 263 288 q 313 146 263 195 q 456 98 363 98 z "},"Û":{"ha":774,"x_min":136,"x_max":777,"o":"m 698 923 l 576 923 l 462 1011 l 348 923 l 227 923 l 370 1097 l 369 1097 l 555 1097 l 555 1097 l 698 923 m 456 98 q 601 146 551 98 q 651 288 651 194 l 651 911 l 777 911 l 777 293 q 724 107 777 181 q 579 3 671 33 q 456 -16 522 -16 q 273 30 348 -16 q 161 157 197 75 q 136 293 136 215 l 136 911 l 263 911 l 263 288 q 313 146 263 195 q 456 98 363 98 z "},"Ü":{"ha":774,"x_min":136,"x_max":777,"o":"m 494 1015 q 516 1074 494 1049 q 571 1099 538 1099 q 627 1074 605 1099 q 648 1015 648 1050 q 627 956 648 980 q 571 932 606 932 q 515 956 536 932 q 494 1015 494 980 m 248 1015 q 270 1074 248 1049 q 325 1099 292 1099 q 380 1074 359 1099 q 402 1015 402 1050 q 381 956 402 980 q 325 932 359 932 q 269 956 290 932 q 248 1015 248 980 m 456 98 q 601 146 551 98 q 651 288 651 194 l 651 911 l 777 911 l 777 293 q 724 107 777 181 q 579 3 671 33 q 456 -16 522 -16 q 273 30 348 -16 q 161 157 197 75 q 136 293 136 215 l 136 911 l 263 911 l 263 288 q 313 146 263 195 q 456 98 363 98 z "},"Ý":{"ha":860,"x_min":120,"x_max":876,"o":"m 642 924 l 520 924 l 663 1098 l 849 1098 l 642 924 m 264 908 l 498 519 l 732 908 l 876 908 l 560 394 l 560 0 l 435 0 l 435 394 l 120 908 l 264 908 z "},"Þ":{"ha":758,"x_min":134,"x_max":755,"o":"m 579 320 q 604 340 579 320 q 629 454 629 360 q 579 588 629 547 q 429 629 530 629 l 258 629 l 258 553 l 256 553 l 256 279 l 429 279 q 579 320 530 279 m 134 553 l 135 551 l 135 553 l 134 553 m 135 553 l 135 986 l 258 986 l 258 735 l 429 735 q 668 665 581 735 q 755 454 755 595 q 668 243 755 313 q 429 174 581 174 l 256 174 l 256 -6 l 136 -6 l 136 553 l 135 553 z "},"ß":{"ha":652,"x_min":106,"x_max":655,"o":"m 452 70 q 528 95 497 70 q 559 161 559 119 q 545 214 559 193 q 505 254 530 235 q 476 274 493 263 q 445 294 458 285 q 416 313 431 302 q 388 337 401 324 q 366 365 376 350 q 351 427 351 390 q 366 488 351 460 q 397 532 380 515 q 439 570 415 548 q 475 608 463 591 q 484 636 484 621 q 458 709 484 679 q 395 753 433 739 q 345 763 370 763 q 239 723 279 763 q 199 618 199 684 l 199 -1 l 106 -1 l 106 617 q 145 750 106 697 q 250 826 184 804 q 345 841 293 841 q 475 810 420 841 q 557 726 530 779 q 577 639 577 688 q 516 524 577 567 q 464 476 478 496 q 455 443 455 463 q 464 410 455 425 q 482 386 473 394 q 507 366 491 378 q 533 348 515 361 q 560 329 551 335 q 584 310 568 323 q 608 287 600 296 q 626 262 616 278 q 642 232 637 247 q 651 197 648 217 q 655 155 655 177 q 637 80 655 113 q 592 26 619 46 q 530 -7 565 5 q 457 -18 494 -18 q 332 20 382 -18 q 262 123 282 59 l 333 168 q 373 97 341 124 q 452 70 404 70 z "},"à":{"ha":705,"x_min":111,"x_max":706,"o":"m 299 765 l 111 923 l 279 923 l 410 765 l 299 765 m 415 633 q 276 519 302 633 l 159 551 q 254 688 188 637 q 423 739 321 739 q 586 695 520 739 q 683 574 651 651 q 706 442 706 518 l 706 -1 l 591 -1 l 585 72 q 382 -15 505 -15 q 235 21 296 -15 q 145 118 174 56 q 126 211 126 160 q 141 297 126 258 q 182 364 156 336 q 242 411 209 392 q 313 442 275 431 q 425 458 368 458 q 581 423 511 458 l 581 444 q 540 584 581 534 q 415 633 499 633 m 428 353 q 301 318 349 353 q 253 214 253 284 q 407 94 253 94 q 508 122 467 94 q 568 197 550 150 q 581 265 581 229 l 581 314 q 428 353 527 353 z "},"á":{"ha":705,"x_min":126,"x_max":706,"o":"m 517 760 l 406 760 l 536 918 l 705 918 l 517 760 m 415 633 q 276 519 302 633 l 159 551 q 254 688 188 637 q 423 739 321 739 q 586 695 520 739 q 683 574 651 651 q 706 442 706 518 l 706 -1 l 591 -1 l 585 72 q 382 -15 505 -15 q 235 21 296 -15 q 145 118 174 56 q 126 211 126 160 q 141 297 126 258 q 182 364 156 336 q 242 411 209 392 q 313 442 275 431 q 425 458 368 458 q 581 423 511 458 l 581 444 q 540 584 581 534 q 415 633 499 633 m 428 353 q 301 318 349 353 q 253 214 253 284 q 407 94 253 94 q 508 122 467 94 q 568 197 550 150 q 581 265 581 229 l 581 314 q 428 353 527 353 z "},"â":{"ha":705,"x_min":126,"x_max":706,"o":"m 623 765 l 511 765 l 408 845 l 304 765 l 193 765 l 323 923 l 492 923 l 623 765 m 415 633 q 276 519 302 633 l 159 551 q 254 688 188 637 q 423 739 321 739 q 586 695 520 739 q 683 574 651 651 q 706 442 706 518 l 706 -1 l 591 -1 l 585 72 q 382 -15 505 -15 q 235 21 296 -15 q 145 118 174 56 q 126 211 126 160 q 141 297 126 258 q 182 364 156 336 q 242 411 209 392 q 313 442 275 431 q 425 458 368 458 q 581 423 511 458 l 581 444 q 540 584 581 534 q 415 633 499 633 m 428 353 q 301 318 349 353 q 253 214 253 284 q 407 94 253 94 q 508 122 467 94 q 568 197 550 150 q 581 265 581 229 l 581 314 q 428 353 527 353 z "},"ã":{"ha":705,"x_min":126,"x_max":706,"o":"m 618 833 q 506 766 567 766 q 481 771 494 766 q 461 781 469 776 q 443 794 454 785 q 427 807 431 804 q 381 825 401 825 q 329 810 355 825 q 271 763 302 795 l 271 845 q 385 920 321 920 q 413 915 401 920 q 445 895 426 910 q 464 880 463 880 q 510 862 490 862 q 553 870 532 862 q 586 887 574 878 q 618 915 597 897 l 618 833 m 415 633 q 276 519 302 633 l 159 551 q 254 688 188 637 q 423 739 321 739 q 586 695 520 739 q 683 574 651 651 q 706 442 706 518 l 706 -1 l 591 -1 l 585 72 q 382 -15 505 -15 q 235 21 296 -15 q 145 118 174 56 q 126 211 126 160 q 141 297 126 258 q 182 364 156 336 q 242 411 209 392 q 313 442 275 431 q 425 458 368 458 q 581 423 511 458 l 581 444 q 540 584 581 534 q 415 633 499 633 m 428 353 q 301 318 349 353 q 253 214 253 284 q 407 94 253 94 q 508 122 467 94 q 568 197 550 150 q 581 265 581 229 l 581 314 q 428 353 527 353 z "},"ä":{"ha":705,"x_min":126,"x_max":706,"o":"m 456 842 q 476 895 456 873 q 526 918 496 918 q 576 896 557 918 q 596 842 596 874 q 577 788 596 810 q 526 766 557 766 q 476 788 495 766 q 456 842 456 810 m 233 842 q 253 895 233 873 q 302 918 273 918 q 353 896 333 918 q 372 842 372 874 q 353 788 372 810 q 302 766 334 766 q 252 788 271 766 q 233 842 233 810 m 415 633 q 276 519 302 633 l 159 551 q 254 688 188 637 q 423 739 321 739 q 586 695 520 739 q 683 574 651 651 q 706 442 706 518 l 706 -1 l 591 -1 l 585 72 q 382 -15 505 -15 q 235 21 296 -15 q 145 118 174 56 q 126 211 126 160 q 141 297 126 258 q 182 364 156 336 q 242 411 209 392 q 313 442 275 431 q 425 458 368 458 q 581 423 511 458 l 581 444 q 540 584 581 534 q 415 633 499 633 m 428 353 q 301 318 349 353 q 253 214 253 284 q 407 94 253 94 q 508 122 467 94 q 568 197 550 150 q 581 265 581 229 l 581 314 q 428 353 527 353 z "},"å":{"ha":705,"x_min":126,"x_max":706,"o":"m 490 863 q 472 901 490 885 q 432 918 455 918 q 390 902 407 918 q 373 863 373 887 q 390 823 373 839 q 432 807 408 807 q 473 823 456 807 q 490 863 490 840 m 360 932 q 375 945 360 932 q 432 959 389 959 q 504 932 475 959 q 532 863 532 905 q 504 793 532 821 q 432 766 475 766 q 359 793 389 766 q 330 863 330 821 q 360 932 330 905 m 415 633 q 276 519 302 633 l 159 551 q 254 688 188 637 q 423 739 321 739 q 586 695 520 739 q 683 574 651 651 q 706 442 706 518 l 706 -1 l 591 -1 l 585 72 q 382 -15 505 -15 q 235 21 296 -15 q 145 118 174 56 q 126 211 126 160 q 141 297 126 258 q 182 364 156 336 q 242 411 209 392 q 313 442 275 431 q 425 458 368 458 q 581 423 511 458 l 581 444 q 540 584 581 534 q 415 633 499 633 m 428 353 q 301 318 349 353 q 253 214 253 284 q 407 94 253 94 q 508 122 467 94 q 568 197 550 150 q 581 265 581 229 l 581 314 q 428 353 527 353 z "},"æ":{"ha":1104,"x_min":129,"x_max":1103,"o":"m 250 216 q 385 99 250 99 q 497 145 456 99 q 538 266 538 192 l 538 313 q 404 349 489 349 q 291 315 332 349 q 250 216 250 281 m 825 623 q 740 593 774 623 q 686 517 706 563 q 666 441 671 484 l 978 441 q 923 577 964 532 q 825 623 882 623 m 613 623 q 823 738 690 738 q 1024 631 949 738 q 1103 328 1103 519 l 659 328 q 678 212 661 262 q 735 130 696 161 q 833 98 774 98 q 985 212 939 98 l 1092 177 q 831 -17 1017 -17 q 610 104 690 -17 q 508 18 571 50 q 362 -15 445 -15 q 231 22 286 -15 q 148 119 176 59 q 129 212 129 161 q 176 360 129 301 q 300 445 224 419 q 401 461 349 461 q 538 428 475 461 l 538 443 q 393 627 538 627 q 270 514 293 627 l 157 547 q 244 687 184 634 q 399 739 304 739 q 613 623 543 739 z "},"ç":{"ha":707,"x_min":137,"x_max":725,"o":"m 408 -299 q 369 -295 387 -299 q 335 -284 351 -292 q 310 -262 319 -276 q 301 -228 300 -248 q 303 -208 301 -220 l 367 -178 q 365 -183 366 -182 q 364 -187 365 -184 q 363 -191 363 -190 q 362 -195 363 -193 q 362 -199 362 -197 q 361 -203 361 -201 q 361 -208 361 -205 q 375 -231 361 -224 q 408 -238 388 -238 q 493 -213 456 -238 q 530 -145 530 -187 q 490 -118 530 -118 q 444 -128 463 -118 q 405 -157 424 -138 l 348 -144 l 440 -17 l 430 -17 q 329 2 375 -15 q 250 50 283 20 q 193 118 217 80 q 155 203 170 157 q 141 270 146 234 q 137 345 137 306 q 167 531 137 453 q 208 612 183 576 q 266 677 232 648 q 345 722 299 706 q 445 738 391 738 q 545 723 499 738 q 626 679 591 707 q 684 616 660 651 q 725 538 709 581 l 611 509 q 548 596 589 563 q 447 630 508 630 q 320 566 372 630 q 299 533 309 551 q 281 492 289 514 q 268 446 273 470 q 259 395 262 421 q 256 342 256 368 q 267 247 256 292 q 299 167 278 203 q 357 111 321 132 q 439 90 393 90 q 601 200 546 90 l 711 163 q 514 -8 646 23 l 480 -56 q 524 -50 501 -50 q 598 -71 568 -50 q 629 -131 629 -92 q 616 -191 629 -163 q 579 -238 602 -219 q 531 -270 557 -257 q 475 -290 505 -283 q 408 -299 440 -299 z "},"è":{"ha":743,"x_min":111,"x_max":748,"o":"m 299 765 l 111 923 l 279 923 l 410 765 l 299 765 m 735 173 q 626 34 697 85 q 450 -17 555 -17 q 343 0 392 -17 q 259 48 294 17 q 198 118 223 79 q 157 204 173 157 q 134 357 134 273 q 182 578 134 486 q 317 711 230 670 q 441 738 374 738 q 547 720 499 738 q 629 668 595 701 q 687 595 663 635 q 726 505 710 554 q 748 332 748 429 l 255 332 q 306 158 256 223 q 452 92 355 92 q 623 206 572 92 l 735 173 m 618 438 q 505 616 595 577 q 443 628 475 628 q 347 597 387 628 q 285 517 307 566 q 262 438 268 482 l 618 438 z "},"é":{"ha":743,"x_min":134,"x_max":748,"o":"m 557 760 l 447 760 l 577 918 l 746 918 l 557 760 m 735 173 q 626 34 697 85 q 450 -17 555 -17 q 343 0 392 -17 q 259 48 294 17 q 198 118 223 79 q 157 204 173 157 q 134 357 134 273 q 182 578 134 486 q 317 711 230 670 q 441 738 374 738 q 547 720 499 738 q 629 668 595 701 q 687 595 663 635 q 726 505 710 554 q 748 332 748 429 l 255 332 q 306 158 256 223 q 452 92 355 92 q 623 206 572 92 l 735 173 m 618 438 q 505 616 595 577 q 443 628 475 628 q 347 597 387 628 q 285 517 307 566 q 262 438 268 482 l 618 438 z "},"ê":{"ha":743,"x_min":134,"x_max":748,"o":"m 643 765 l 532 765 l 428 845 l 325 765 l 214 765 l 344 923 l 513 923 l 643 765 m 735 173 q 626 34 697 85 q 450 -17 555 -17 q 343 0 392 -17 q 259 48 294 17 q 198 118 223 79 q 157 204 173 157 q 134 357 134 273 q 182 578 134 486 q 317 711 230 670 q 441 738 374 738 q 547 720 499 738 q 629 668 595 701 q 687 595 663 635 q 726 505 710 554 q 748 332 748 429 l 255 332 q 306 158 256 223 q 452 92 355 92 q 623 206 572 92 l 735 173 m 618 438 q 505 616 595 577 q 443 628 475 628 q 347 597 387 628 q 285 517 307 566 q 262 438 268 482 l 618 438 z "},"ë":{"ha":743,"x_min":134,"x_max":748,"o":"m 484 842 q 504 895 484 873 q 553 918 524 918 q 604 896 584 918 q 623 842 623 874 q 604 788 623 810 q 553 766 585 766 q 503 788 522 766 q 484 842 484 810 m 260 842 q 280 895 260 873 q 330 918 300 918 q 380 896 360 918 q 399 842 399 874 q 380 788 399 810 q 330 766 361 766 q 279 788 298 766 q 260 842 260 810 m 735 173 q 626 34 697 85 q 450 -17 555 -17 q 343 0 392 -17 q 259 48 294 17 q 198 118 223 79 q 157 204 173 157 q 134 357 134 273 q 182 578 134 486 q 317 711 230 670 q 441 738 374 738 q 547 720 499 738 q 629 668 595 701 q 687 595 663 635 q 726 505 710 554 q 748 332 748 429 l 255 332 q 306 158 256 223 q 452 92 355 92 q 623 206 572 92 l 735 173 m 618 438 q 505 616 595 577 q 443 628 475 628 q 347 597 387 628 q 285 517 307 566 q 262 438 268 482 l 618 438 z "},"ì":{"ha":402,"x_min":97,"x_max":403,"o":"m 286 765 l 97 923 l 266 923 l 397 765 l 286 765 m 403 -1 l 286 -1 l 286 716 l 403 716 l 403 -1 z "},"í":{"ha":424,"x_min":136,"x_max":448,"o":"m 259 760 l 149 760 l 279 918 l 448 918 l 259 760 m 254 -1 l 136 -1 l 136 716 l 254 716 l 254 -1 z "},"î":{"ha":517,"x_min":112,"x_max":541,"o":"m 541 765 l 430 765 l 326 845 l 223 765 l 112 765 l 242 923 l 411 923 l 541 765 m 389 -1 l 272 -1 l 272 716 l 389 716 l 389 -1 z "},"ï":{"ha":465,"x_min":124,"x_max":460,"o":"m 321 842 q 341 895 321 873 q 391 918 361 918 q 441 896 421 918 q 460 842 460 874 q 441 788 460 810 q 391 766 422 766 q 340 788 359 766 q 321 842 321 810 m 124 842 q 144 895 124 873 q 194 918 164 918 q 244 896 224 918 q 264 842 264 874 q 244 788 264 810 q 194 766 225 766 q 143 788 163 766 q 124 842 124 810 m 342 -1 l 224 -1 l 224 716 l 342 716 l 342 -1 z "},"ð":{"ha":659,"x_min":94,"x_max":659,"o":"m 94 1002 q 340 946 226 1002 l 383 1006 l 438 959 l 401 909 q 554 739 492 846 q 643 500 616 632 q 659 345 659 420 q 614 122 659 214 q 479 -3 569 31 q 390 -18 440 -18 q 197 81 269 -18 q 149 178 166 122 q 132 297 132 234 q 169 472 132 397 q 273 586 206 547 q 386 613 321 613 q 488 585 442 613 q 441 727 480 663 q 345 835 403 791 l 279 749 l 227 792 l 285 871 q 94 918 203 915 l 94 1002 m 254 297 q 272 188 254 237 q 325 114 291 140 q 390 94 351 94 q 469 125 437 94 q 514 200 501 156 q 527 297 527 244 q 457 481 527 429 q 390 501 431 501 q 309 470 341 501 q 266 396 277 439 q 254 297 254 352 z "},"ñ":{"ha":719,"x_min":136,"x_max":720,"o":"m 604 833 q 492 766 553 766 q 468 771 480 766 q 448 781 455 776 q 429 794 441 785 q 413 807 418 804 q 368 825 387 825 q 315 810 341 825 q 257 763 289 795 l 257 845 q 371 920 308 920 q 400 915 387 920 q 431 895 412 910 q 450 880 450 880 q 496 862 476 862 q 539 870 519 862 q 572 887 560 878 q 604 915 584 897 l 604 833 m 252 654 q 439 739 319 739 q 599 695 534 739 q 695 575 663 651 q 720 435 720 517 l 720 0 l 602 0 l 602 429 q 556 570 602 517 q 429 623 511 623 q 328 593 369 623 q 269 515 288 564 q 254 429 254 478 l 254 0 l 136 0 l 136 723 l 247 723 l 252 654 z "},"ò":{"ha":749,"x_min":111,"x_max":748,"o":"m 299 765 l 111 923 l 279 923 l 410 765 l 299 765 m 748 359 q 700 144 748 234 q 565 12 652 54 q 441 -14 509 -14 q 338 3 385 -14 q 256 52 290 20 q 197 121 222 83 q 157 206 173 160 q 135 359 135 275 q 182 578 135 488 q 318 709 230 669 q 441 734 374 734 q 546 718 498 734 q 628 671 593 701 q 686 603 662 641 q 726 517 710 564 q 748 359 748 448 m 627 359 q 600 514 627 450 q 518 608 573 579 q 441 626 484 626 q 387 618 412 626 q 343 596 362 610 q 310 562 325 582 q 286 520 295 542 q 269 472 276 498 q 256 359 256 422 q 283 208 256 272 q 365 114 311 143 q 441 95 399 95 q 507 107 477 95 q 557 142 536 120 q 592 191 578 165 q 614 250 606 218 q 627 359 627 299 z "},"ó":{"ha":749,"x_min":135,"x_max":748,"o":"m 557 760 l 447 760 l 577 918 l 746 918 l 557 760 m 748 359 q 700 144 748 234 q 565 12 652 54 q 441 -14 509 -14 q 338 3 385 -14 q 256 52 290 20 q 197 121 222 83 q 157 206 173 160 q 135 359 135 275 q 182 578 135 488 q 318 709 230 669 q 441 734 374 734 q 546 718 498 734 q 628 671 593 701 q 686 603 662 641 q 726 517 710 564 q 748 359 748 448 m 627 359 q 600 514 627 450 q 518 608 573 579 q 441 626 484 626 q 387 618 412 626 q 343 596 362 610 q 310 562 325 582 q 286 520 295 542 q 269 472 276 498 q 256 359 256 422 q 283 208 256 272 q 365 114 311 143 q 441 95 399 95 q 507 107 477 95 q 557 142 536 120 q 592 191 578 165 q 614 250 606 218 q 627 359 627 299 z "},"ô":{"ha":749,"x_min":135,"x_max":748,"o":"m 650 765 l 538 765 l 435 845 l 332 765 l 220 765 l 351 923 l 519 923 l 650 765 m 748 359 q 700 144 748 234 q 565 12 652 54 q 441 -14 509 -14 q 338 3 385 -14 q 256 52 290 20 q 197 121 222 83 q 157 206 173 160 q 135 359 135 275 q 182 578 135 488 q 318 709 230 669 q 441 734 374 734 q 546 718 498 734 q 628 671 593 701 q 686 603 662 641 q 726 517 710 564 q 748 359 748 448 m 627 359 q 600 514 627 450 q 518 608 573 579 q 441 626 484 626 q 387 618 412 626 q 343 596 362 610 q 310 562 325 582 q 286 520 295 542 q 269 472 276 498 q 256 359 256 422 q 283 208 256 272 q 365 114 311 143 q 441 95 399 95 q 507 107 477 95 q 557 142 536 120 q 592 191 578 165 q 614 250 606 218 q 627 359 627 299 z "},"õ":{"ha":749,"x_min":135,"x_max":748,"o":"m 638 833 q 526 766 587 766 q 502 771 514 766 q 482 781 489 776 q 463 794 475 785 q 447 807 452 804 q 401 825 421 825 q 349 810 375 825 q 291 763 323 795 l 291 845 q 405 920 342 920 q 434 915 421 920 q 465 895 446 910 q 484 880 484 880 q 530 862 510 862 q 573 870 553 862 q 606 887 594 878 q 638 915 618 897 l 638 833 m 748 359 q 700 144 748 234 q 565 12 652 54 q 441 -14 509 -14 q 338 3 385 -14 q 256 52 290 20 q 197 121 222 83 q 157 206 173 160 q 135 359 135 275 q 182 578 135 488 q 318 709 230 669 q 441 734 374 734 q 546 718 498 734 q 628 671 593 701 q 686 603 662 641 q 726 517 710 564 q 748 359 748 448 m 627 359 q 600 514 627 450 q 518 608 573 579 q 441 626 484 626 q 387 618 412 626 q 343 596 362 610 q 310 562 325 582 q 286 520 295 542 q 269 472 276 498 q 256 359 256 422 q 283 208 256 272 q 365 114 311 143 q 441 95 399 95 q 507 107 477 95 q 557 142 536 120 q 592 191 578 165 q 614 250 606 218 q 627 359 627 299 z "},"ö":{"ha":749,"x_min":135,"x_max":748,"o":"m 477 842 q 497 895 477 873 q 547 918 517 918 q 597 896 577 918 q 616 842 616 874 q 597 788 616 810 q 547 766 578 766 q 496 788 515 766 q 477 842 477 810 m 253 842 q 273 895 253 873 q 323 918 293 918 q 373 896 353 918 q 393 842 393 874 q 373 788 393 810 q 323 766 354 766 q 272 788 292 766 q 253 842 253 810 m 748 359 q 700 144 748 234 q 565 12 652 54 q 441 -14 509 -14 q 338 3 385 -14 q 256 52 290 20 q 197 121 222 83 q 157 206 173 160 q 135 359 135 275 q 182 578 135 488 q 318 709 230 669 q 441 734 374 734 q 546 718 498 734 q 628 671 593 701 q 686 603 662 641 q 726 517 710 564 q 748 359 748 448 m 627 359 q 600 514 627 450 q 518 608 573 579 q 441 626 484 626 q 387 618 412 626 q 343 596 362 610 q 310 562 325 582 q 286 520 295 542 q 269 472 276 498 q 256 359 256 422 q 283 208 256 272 q 365 114 311 143 q 441 95 399 95 q 507 107 477 95 q 557 142 536 120 q 592 191 578 165 q 614 250 606 218 q 627 359 627 299 z "},"÷":{"ha":884,"x_min":156,"x_max":863,"o":"m 513 288 q 578 256 553 288 q 604 180 604 224 q 589 122 604 147 q 551 83 574 96 q 513 73 534 73 q 447 104 471 73 q 422 180 422 136 q 437 238 422 213 q 475 278 452 264 q 513 288 492 288 m 513 776 q 578 744 553 776 q 604 669 604 713 q 589 610 604 635 q 551 571 574 585 q 513 562 534 562 q 447 593 471 562 q 422 669 422 624 q 437 727 422 701 q 475 766 452 752 q 513 776 492 776 m 156 483 l 863 483 l 863 379 l 156 379 l 156 483 z "},"ø":{"ha":749,"x_min":135,"x_max":748,"o":"m 582 990 l 667 990 l 578 703 q 726 517 682 650 q 748 359 748 448 q 700 144 748 234 q 565 12 652 54 q 441 -14 509 -14 q 359 -3 398 -14 l 301 -191 l 216 -191 l 284 30 q 157 206 197 87 q 135 359 135 275 q 182 578 135 488 q 318 709 230 669 q 441 734 374 734 q 501 729 473 734 l 582 990 m 392 102 q 441 95 415 95 q 507 107 477 95 q 557 142 536 120 q 592 191 578 165 q 614 250 606 218 q 627 359 627 299 q 544 591 627 525 l 392 102 m 321 148 l 469 624 q 441 626 455 626 q 387 618 412 626 q 343 596 362 610 q 310 562 325 582 q 286 520 295 542 q 269 472 276 498 q 256 359 256 422 q 321 148 256 220 z "},"ù":{"ha":720,"x_min":111,"x_max":720,"o":"m 299 765 l 111 923 l 279 923 l 410 765 l 299 765 m 604 66 q 416 -17 536 -17 q 257 26 321 -17 q 161 146 193 70 q 136 286 136 203 l 136 718 l 254 718 l 254 292 q 299 152 254 205 q 427 99 345 99 q 527 128 487 99 q 587 206 567 157 q 602 292 602 243 l 602 718 l 720 718 l 720 -1 l 609 -1 l 604 66 z "},"ú":{"ha":720,"x_min":136,"x_max":732,"o":"m 544 760 l 433 760 l 564 918 l 732 918 l 544 760 m 604 66 q 416 -17 536 -17 q 257 26 321 -17 q 161 146 193 70 q 136 286 136 203 l 136 718 l 254 718 l 254 292 q 299 152 254 205 q 427 99 345 99 q 527 128 487 99 q 587 206 567 157 q 602 292 602 243 l 602 718 l 720 718 l 720 -1 l 609 -1 l 604 66 z "},"û":{"ha":720,"x_min":136,"x_max":720,"o":"m 643 765 l 532 765 l 428 845 l 325 765 l 214 765 l 344 923 l 513 923 l 643 765 m 604 66 q 416 -17 536 -17 q 257 26 321 -17 q 161 146 193 70 q 136 286 136 203 l 136 718 l 254 718 l 254 292 q 299 152 254 205 q 427 99 345 99 q 527 128 487 99 q 587 206 567 157 q 602 292 602 243 l 602 718 l 720 718 l 720 -1 l 609 -1 l 604 66 z "},"ü":{"ha":720,"x_min":136,"x_max":720,"o":"m 463 842 q 483 895 463 873 q 533 918 503 918 q 583 896 564 918 q 603 842 603 874 q 584 788 603 810 q 533 766 564 766 q 483 788 502 766 q 463 842 463 810 m 239 842 q 259 895 239 873 q 309 918 279 918 q 359 896 340 918 q 379 842 379 874 q 360 788 379 810 q 309 766 340 766 q 259 788 278 766 q 239 842 239 810 m 604 66 q 416 -17 536 -17 q 257 26 321 -17 q 161 146 193 70 q 136 286 136 203 l 136 718 l 254 718 l 254 292 q 299 152 254 205 q 427 99 345 99 q 527 128 487 99 q 587 206 567 157 q 602 292 602 243 l 602 718 l 720 718 l 720 -1 l 609 -1 l 604 66 z "},"ý":{"ha":797,"x_min":109,"x_max":800,"o":"m 612 760 l 501 760 l 631 918 l 800 918 l 612 760 m 163 -170 q 184 -185 177 -180 q 205 -195 191 -189 q 234 -200 220 -200 q 315 -152 277 -200 q 333 -124 324 -140 q 349 -95 342 -109 q 364 -61 356 -81 q 377 -29 372 -41 q 390 6 382 -16 q 402 39 398 28 l 123 718 l 251 718 l 467 187 l 671 718 l 800 718 l 519 5 q 499 -46 504 -33 q 478 -94 494 -58 q 454 -144 463 -129 q 428 -188 445 -160 q 395 -231 410 -216 q 359 -263 380 -246 q 315 -290 338 -280 q 244 -305 283 -305 q 171 -290 208 -305 q 109 -254 134 -275 l 163 -170 z "},"þ":{"ha":744,"x_min":140,"x_max":742,"o":"m 264 448 l 264 298 q 292 184 264 233 q 369 115 321 136 q 427 102 398 102 q 493 114 463 102 q 543 148 522 126 q 578 196 564 170 q 601 254 592 222 q 615 371 615 304 q 585 526 615 460 q 498 621 555 591 q 426 638 464 638 q 334 608 371 638 q 278 530 296 578 q 264 448 264 495 m 440 -12 q 264 61 334 -12 l 264 -279 l 140 -279 l 140 991 l 265 991 l 264 683 q 427 755 319 755 q 515 744 474 755 q 587 712 556 732 q 644 663 618 692 q 688 601 670 634 q 719 530 706 568 q 742 371 742 459 q 694 146 742 239 q 557 13 646 54 q 440 -12 502 -12 z "},"ÿ":{"ha":797,"x_min":109,"x_max":800,"o":"m 511 842 q 531 895 511 873 q 581 918 551 918 q 631 896 611 918 q 650 842 650 874 q 631 788 650 810 q 581 766 612 766 q 530 788 549 766 q 511 842 511 810 m 273 842 q 293 895 273 873 q 343 918 313 918 q 393 896 374 918 q 413 842 413 874 q 394 788 413 810 q 343 766 374 766 q 293 788 312 766 q 273 842 273 810 m 163 -170 q 184 -185 177 -180 q 205 -195 191 -189 q 234 -200 220 -200 q 315 -152 277 -200 q 333 -124 324 -140 q 349 -95 342 -109 q 364 -61 356 -81 q 377 -29 372 -41 q 390 6 382 -16 q 402 39 398 28 l 123 718 l 251 718 l 467 187 l 671 718 l 800 718 l 519 5 q 499 -46 504 -33 q 478 -94 494 -58 q 454 -144 463 -129 q 428 -188 445 -160 q 395 -231 410 -216 q 359 -263 380 -246 q 315 -290 338 -280 q 244 -305 283 -305 q 171 -290 208 -305 q 109 -254 134 -275 l 163 -170 z "},"ı":{"ha":286,"x_min":150,"x_max":267,"o":"m 267 -1 l 150 -1 l 150 716 l 267 716 l 267 -1 z "},"Œ":{"ha":1262,"x_min":137,"x_max":1263,"o":"m 707 494 q 579 883 707 795 q 479 912 536 912 q 307 799 366 912 q 250 494 250 690 q 378 107 250 194 q 479 78 420 78 q 651 190 592 78 q 707 494 707 297 m 477 1025 q 709 907 620 1025 l 709 991 l 1263 991 l 1263 884 l 829 884 l 829 568 l 1202 568 l 1202 461 l 829 461 l 829 106 l 1263 106 l 1263 -1 l 709 -1 l 709 84 q 477 -34 620 -34 q 225 115 317 -34 q 159 283 182 185 q 137 494 137 380 q 185 797 137 668 q 331 986 233 925 q 477 1025 395 1025 z "},"œ":{"ha":1141,"x_min":136,"x_max":1135,"o":"m 579 359 q 555 514 579 449 q 481 608 532 578 q 412 626 450 626 q 256 472 293 626 q 245 359 245 422 q 269 208 245 273 q 343 114 294 143 q 412 95 374 95 q 455 101 435 95 q 490 118 475 107 q 517 143 505 129 q 539 175 530 157 q 555 212 549 193 q 567 250 562 230 q 579 359 579 299 m 1018 438 q 968 574 1006 521 q 861 628 929 628 q 718 517 765 628 q 699 438 703 482 l 1018 438 m 635 597 q 726 699 670 661 q 859 738 782 738 q 1058 632 983 738 q 1135 332 1135 522 l 692 332 q 718 192 692 250 q 795 109 744 134 q 869 92 827 92 q 1023 206 977 92 l 1124 173 q 1027 34 1090 85 q 867 -17 964 -17 q 728 22 787 -17 q 635 127 670 62 q 545 24 601 63 q 412 -14 490 -14 q 213 88 290 -14 q 136 359 136 193 q 178 577 136 486 q 300 709 220 669 q 412 734 351 734 q 635 597 560 734 z "},"ˆ":{"ha":563,"x_min":78,"x_max":547,"o":"m 211 866 l 78 866 l 237 1093 l 386 1093 l 547 866 l 412 866 l 311 1008 l 211 866 z "},"˚":{"ha":587,"x_min":264,"x_max":400,"o":"m 284 770 q 298 738 284 751 q 332 724 313 724 q 366 738 352 724 q 380 770 380 751 q 366 801 380 788 q 332 814 351 814 q 299 801 313 814 q 284 770 284 788 m 264 770 q 283 816 264 798 q 332 834 303 834 q 380 816 361 834 q 400 770 400 798 q 380 723 400 741 q 332 705 361 705 q 283 723 303 705 q 264 770 264 741 z "},"˜":{"ha":529,"x_min":155,"x_max":503,"o":"m 503 1010 q 391 943 452 943 q 366 947 378 943 q 346 957 353 952 q 328 971 339 962 q 311 983 316 980 q 266 1001 286 1001 q 213 986 239 1001 q 155 939 187 972 l 155 1021 q 269 1097 206 1097 q 298 1092 286 1097 q 329 1072 311 1086 q 349 1056 348 1057 q 395 1038 374 1038 q 438 1046 417 1038 q 470 1064 458 1055 q 503 1091 482 1073 l 503 1010 z "},"ஂ":{"ha":818,"x_min":136,"x_max":818,"o":"m 407 913 q 422 899 407 913 q 476 884 436 884 q 546 911 516 884 q 575 977 575 938 q 547 1052 575 1020 q 477 1084 519 1084 q 408 1053 438 1084 q 378 982 378 1021 q 407 913 378 942 m 437 43 l 435 -15 q 255 72 334 -1 l 296 113 q 437 43 347 55 m 244 174 l 203 133 q 136 317 142 211 l 193 317 q 244 174 199 236 m 705 79 q 518 -15 634 3 l 518 43 q 665 119 603 56 l 705 79 m 244 540 q 193 396 201 469 l 136 396 q 201 581 144 493 l 244 540 m 818 317 q 758 144 812 220 l 716 184 q 761 317 757 246 l 818 317 m 437 670 q 297 604 351 652 l 256 644 q 435 730 328 720 l 437 670 m 818 396 l 761 396 q 716 532 750 480 l 757 575 q 818 396 814 493 m 705 636 l 665 595 q 518 670 612 652 l 521 730 q 705 636 634 711 m 475 1187 q 620 1125 561 1187 q 680 975 680 1063 q 620 836 680 893 q 476 776 558 776 q 336 837 401 776 q 271 974 271 898 q 329 1125 271 1063 q 475 1187 387 1187 z "},"ஃ":{"ha":1160,"x_min":136,"x_max":1160,"o":"m 267 120 q 279 106 267 120 q 326 92 292 92 q 385 118 359 92 q 410 179 410 144 q 386 247 410 216 q 328 278 363 278 q 267 250 293 278 q 241 184 241 221 q 267 120 241 149 m 909 120 q 922 106 909 120 q 968 92 935 92 q 1027 118 1002 92 q 1053 179 1053 144 q 1029 247 1053 216 q 971 278 1006 278 q 910 250 936 278 q 884 184 884 221 q 909 120 884 149 m 588 861 q 600 847 588 861 q 646 833 612 833 q 704 859 679 833 q 730 920 730 886 q 706 989 730 959 q 647 1019 683 1019 q 588 990 612 1019 q 563 925 563 962 q 588 861 563 890 m 136 176 q 190 326 136 263 q 326 389 243 389 q 464 327 412 389 q 517 178 517 264 q 461 38 517 98 q 327 -22 405 -22 q 196 41 256 -22 q 136 176 136 104 m 779 176 q 832 326 779 263 q 968 389 886 389 q 1107 327 1055 389 q 1160 178 1160 264 q 1104 38 1160 98 q 970 -22 1048 -22 q 839 41 899 -22 q 779 176 779 104 m 456 917 q 509 1067 456 1004 q 644 1130 562 1130 q 783 1067 730 1130 q 836 918 836 1004 q 780 779 836 838 q 647 719 725 719 q 515 781 578 719 q 456 917 456 841 z "},"அ":{"ha":1659,"x_min":136,"x_max":1659,"o":"m 251 57 q 297 -22 251 14 q 412 -81 343 -59 q 551 -115 480 -103 q 680 -127 623 -127 q 1021 -66 870 -127 q 1240 106 1173 -5 l 296 106 q 251 57 251 106 m 954 439 q 931 493 954 471 q 878 515 909 515 q 808 441 808 515 q 882 362 808 362 q 954 439 954 362 m 694 460 q 783 667 694 595 q 1020 738 871 738 q 1295 614 1184 738 q 1407 307 1407 491 q 1397 214 1407 256 l 1539 216 l 1539 722 l 1659 722 l 1659 -273 l 1539 -273 l 1539 106 l 1373 106 q 1143 -130 1316 -37 q 701 -228 958 -228 q 542 -219 619 -228 q 390 -188 465 -210 q 259 -134 315 -166 q 170 -50 204 -101 q 136 66 136 2 q 176 168 136 121 q 275 214 216 214 l 1276 214 q 1290 301 1290 264 q 1207 529 1290 434 q 998 624 1124 624 q 844 571 892 624 q 905 591 866 591 q 1020 546 972 591 q 1067 434 1067 501 q 1016 305 1067 355 q 884 255 964 255 q 748 314 801 255 q 694 460 694 373 z "},"ஆ":{"ha":2121,"x_min":136,"x_max":2121,"o":"m 1237 104 l 294 104 q 251 56 251 104 q 425 -87 251 -31 q 677 -129 564 -129 q 1020 -67 867 -129 q 1237 104 1172 -6 m 807 439 q 827 383 807 406 q 880 361 848 361 q 952 438 952 361 q 930 492 952 469 q 878 514 908 514 q 827 492 848 514 q 807 439 807 470 m 693 458 q 782 665 693 593 q 1019 736 870 736 q 1301 605 1190 736 q 1405 305 1405 482 q 1397 213 1405 258 l 1573 213 l 1573 720 l 1694 720 l 1694 69 q 1870 157 1768 157 q 2049 88 1980 157 q 2121 -90 2121 16 q 1895 -412 2121 -301 q 1487 -498 1716 -498 q 1366 -491 1426 -498 q 1245 -469 1306 -485 q 1138 -430 1184 -453 q 1063 -370 1092 -407 q 1034 -289 1034 -334 q 1096 -194 1034 -227 q 1242 -161 1159 -161 q 1512 -260 1430 -161 l 1440 -331 q 1245 -260 1372 -260 q 1153 -293 1153 -260 q 1188 -341 1153 -319 q 1274 -375 1223 -363 q 1376 -394 1325 -387 q 1468 -400 1428 -400 q 1801 -334 1649 -400 q 2001 -85 2001 -248 q 1961 1 2001 -31 q 1862 33 1922 33 q 1743 -9 1792 33 q 1694 -115 1694 -51 l 1694 -273 l 1573 -273 l 1573 104 l 1373 104 q 1089 -155 1303 -66 q 699 -229 911 -229 q 347 -176 496 -229 q 136 65 136 -101 q 178 167 136 119 q 274 213 218 213 l 1275 213 q 1289 300 1289 250 q 1210 524 1289 431 q 996 623 1125 623 q 844 570 892 623 q 902 590 864 590 q 1017 544 968 590 q 1066 433 1066 498 q 1015 304 1066 354 q 884 254 964 254 q 746 312 800 254 q 693 458 693 371 z "},"இ":{"ha":1400,"x_min":136,"x_max":1400,"o":"m 598 -228 q 396 -8 479 -138 q 266 -190 266 -98 q 404 -283 266 -283 q 598 -228 483 -283 m 960 91 q 800 111 879 111 q 515 56 642 111 q 732 -165 599 -80 q 960 91 878 -64 m 1191 -133 q 1155 -26 1191 -75 q 1069 49 1118 23 q 844 -221 985 -106 q 1027 -263 932 -263 q 1191 -133 1191 -263 m 793 454 q 772 503 793 483 q 722 522 751 522 q 654 454 654 522 q 726 385 654 385 q 793 454 793 385 m 859 1179 q 1149 1109 1026 1179 q 1336 913 1272 1040 q 1400 617 1400 787 l 1400 100 l 1278 100 l 1278 589 q 1176 918 1278 789 q 875 1053 1068 1053 q 515 905 653 1053 q 377 537 377 756 q 461 153 377 338 q 815 220 621 220 q 1001 197 909 220 q 1027 376 1027 306 q 833 644 1027 644 q 686 586 736 644 q 749 605 713 605 q 860 561 814 605 q 906 453 906 517 q 855 331 906 378 q 728 283 804 283 q 591 340 642 283 q 540 483 540 398 q 624 678 540 602 q 826 757 711 757 q 1062 658 973 757 q 1152 407 1152 558 q 1111 153 1152 267 q 1252 34 1193 115 q 1310 -144 1310 -46 q 1221 -324 1310 -261 q 1020 -377 1151 -377 q 719 -301 857 -377 q 384 -399 548 -399 q 205 -353 275 -399 q 136 -217 136 -308 q 202 -43 136 -130 q 347 91 268 43 q 248 529 248 319 q 410 986 248 804 q 859 1179 580 1179 z "},"ஈ":{"ha":972,"x_min":136,"x_max":972,"o":"m 410 433 q 473 407 448 433 q 498 342 498 381 q 473 276 498 302 q 410 250 449 250 q 346 276 370 250 q 321 342 321 302 q 347 406 321 380 q 410 433 372 433 m 972 620 l 684 620 l 684 0 l 567 0 l 567 620 l 255 620 l 255 0 l 136 0 l 136 734 l 972 734 l 972 620 m 834 433 q 898 407 873 433 q 922 342 922 381 q 898 276 922 302 q 834 250 873 250 q 770 276 795 250 q 746 342 746 302 q 771 406 746 380 q 834 433 796 433 z "},"உ":{"ha":1366,"x_min":136,"x_max":1366,"o":"m 385 471 q 364 516 385 496 q 316 536 343 536 q 251 472 251 536 q 319 407 251 407 q 385 471 385 407 m 323 308 q 195 362 245 308 q 145 498 145 417 q 243 690 145 619 q 457 751 330 751 q 707 674 605 751 q 814 442 814 589 q 734 247 814 321 q 530 170 650 170 l 308 170 q 263 138 263 170 q 308 100 263 100 l 1366 100 l 1366 -1 l 278 -1 q 179 39 226 -1 q 136 136 136 77 q 178 230 136 191 q 278 270 221 270 l 532 270 q 652 318 604 270 q 700 438 700 366 q 623 589 700 534 q 433 644 545 644 q 285 597 322 644 q 342 613 313 613 q 449 571 403 613 q 495 469 495 528 q 445 353 495 399 q 323 308 395 308 z "},"ஊ":{"ha":1915,"x_min":136,"x_max":1915,"o":"m 385 471 q 364 516 385 496 q 316 536 343 536 q 251 472 251 536 q 319 407 251 407 q 385 471 385 407 m 1222 298 q 1158 369 1222 369 q 1097 298 1097 369 q 1158 225 1097 225 q 1222 298 1222 225 m 323 308 q 195 362 245 308 q 145 498 145 417 q 243 690 145 619 q 457 751 330 751 q 707 674 605 751 q 814 442 814 589 q 734 247 814 321 q 530 170 650 170 l 308 170 q 263 130 263 170 q 308 92 263 92 l 1915 92 l 1915 -1 l 278 -1 q 179 39 226 -1 q 136 136 136 77 q 178 230 136 191 q 278 270 221 270 l 532 270 q 652 318 604 270 q 700 438 700 366 q 623 589 700 534 q 433 644 545 644 q 285 597 322 644 q 342 613 313 613 q 449 571 403 613 q 495 469 495 528 q 445 353 495 399 q 323 308 395 308 m 1317 293 q 1272 175 1317 220 q 1154 129 1226 129 q 971 218 1040 129 q 911 416 911 298 q 990 640 911 549 q 1198 727 1065 727 q 1381 642 1322 727 l 1381 713 l 1895 713 l 1895 620 l 1742 620 l 1742 145 l 1643 145 l 1643 620 l 1476 620 l 1476 145 l 1381 145 l 1381 488 q 1326 595 1381 557 q 1207 632 1278 632 q 1059 564 1117 632 q 1002 406 1002 498 q 1031 300 1002 349 q 1028 316 1028 313 q 1066 418 1028 377 q 1165 458 1105 458 q 1275 411 1233 458 q 1317 293 1317 363 z "},"எ":{"ha":1211,"x_min":136,"x_max":1211,"o":"m 457 95 q 519 125 494 95 q 544 195 544 155 q 520 265 544 237 q 457 293 497 293 q 393 266 416 293 q 370 195 370 239 q 394 124 370 153 q 457 95 418 95 m 136 347 q 189 551 136 463 q 336 686 243 640 q 549 732 430 732 l 1211 732 l 1211 618 l 948 618 l 948 1 l 830 1 l 830 618 l 526 618 q 327 541 406 618 q 248 343 248 463 q 297 179 248 250 q 292 218 292 217 q 339 348 292 297 q 464 399 387 399 q 604 338 550 399 q 658 189 658 278 q 600 40 658 97 q 449 -18 541 -18 q 218 96 308 -18 q 136 347 136 204 z "},"ஏ":{"ha":1211,"x_min":136,"x_max":1211,"o":"m 457 95 q 519 125 494 95 q 544 195 544 155 q 520 265 544 237 q 457 293 497 293 q 394 265 418 293 q 370 195 370 237 q 394 124 370 153 q 457 95 417 95 m 136 345 q 252 626 136 520 q 549 732 368 732 l 1211 732 l 1211 617 l 964 617 l 964 -1 q 774 -112 854 -36 q 655 -294 694 -188 l 553 -227 q 671 -47 596 -124 q 848 72 747 29 l 848 617 l 526 617 q 327 539 404 617 q 250 340 250 462 q 298 179 250 250 q 292 218 292 206 q 339 348 292 297 q 464 399 387 399 q 604 338 550 399 q 658 189 658 278 q 600 40 658 97 q 449 -18 541 -18 q 220 95 308 -18 q 136 345 136 201 z "},"ஐ":{"ha":1213,"x_min":136,"x_max":1213,"o":"m 332 361 q 383 381 361 361 q 404 431 404 401 q 381 481 404 460 q 328 503 357 503 q 277 483 297 503 q 258 431 258 463 q 279 381 258 401 q 332 361 300 361 m 764 -121 q 812 -240 764 -193 q 933 -288 861 -288 q 1047 -252 998 -288 q 1097 -153 1097 -216 q 993 -24 1097 -47 l 1047 76 q 1213 -156 1213 18 q 1128 -332 1213 -262 q 936 -401 1045 -401 q 705 -290 768 -401 q 439 -401 608 -401 q 225 -309 311 -401 q 136 -88 136 -214 q 233 129 136 41 q 461 217 332 217 l 871 217 q 1032 279 968 217 q 1096 437 1096 340 q 1049 575 1096 520 q 925 629 1002 629 q 764 481 764 629 l 764 277 l 640 277 l 640 481 q 449 633 640 633 q 293 571 351 633 q 358 589 321 589 q 475 543 427 589 q 524 430 524 498 q 470 303 524 351 q 335 255 417 255 q 195 316 251 255 q 138 464 138 377 q 181 608 138 543 q 294 710 223 673 q 449 746 365 746 q 693 656 614 746 q 917 747 766 747 q 1128 656 1042 747 q 1213 439 1213 568 q 1126 197 1213 294 q 902 100 1040 100 l 458 100 q 312 43 371 100 q 251 -96 251 -16 q 311 -233 251 -178 q 453 -288 369 -288 q 585 -235 528 -288 q 640 -103 640 -183 l 640 54 l 764 54 l 764 -121 z "},"ஒ":{"ha":1245,"x_min":136,"x_max":1245,"o":"m 407 114 q 463 140 441 114 q 484 203 484 167 q 463 268 484 241 q 407 294 441 294 q 351 267 374 294 q 328 203 328 239 q 351 141 328 169 q 407 114 374 114 m 400 1 q 210 86 283 1 q 136 296 136 172 q 315 635 136 511 q 696 746 475 746 q 1072 637 916 746 q 1245 307 1245 515 q 1198 141 1245 204 q 1044 71 1141 71 q 905 122 964 71 q 844 255 846 173 q 803 163 803 212 q 848 49 803 98 q 955 0 892 0 l 1133 0 l 1133 -127 l 932 -127 q 852 -217 880 -127 q 768 -363 817 -322 q 597 -408 711 -408 q 463 -388 522 -408 q 368 -323 404 -368 q 331 -212 331 -277 q 393 -71 331 -131 q 537 -11 455 -11 q 582 -16 549 -11 l 582 -130 q 547 -123 568 -123 q 478 -148 507 -123 q 449 -210 449 -172 q 494 -273 449 -251 q 598 -294 539 -294 q 716 -247 682 -294 q 722 -234 718 -245 q 738 -192 726 -222 q 762 -132 750 -161 q 810 -56 784 -81 q 692 155 692 -7 q 761 332 692 259 q 933 408 833 408 q 1015 396 976 408 q 955 270 955 362 q 981 208 955 233 q 1044 182 1008 182 q 1111 216 1087 182 q 1135 301 1135 251 q 990 548 1135 460 q 701 624 867 624 q 399 544 523 624 q 252 285 252 450 q 260 254 252 270 q 304 366 260 327 q 415 408 350 408 q 556 348 500 408 q 612 201 612 288 q 551 57 612 112 q 400 1 491 1 z "},"ஓ":{"ha":1245,"x_min":136,"x_max":1245,"o":"m 563 -205 q 542 -157 563 -177 q 492 -137 521 -137 q 444 -156 465 -137 q 425 -205 425 -173 q 492 -271 425 -271 q 563 -205 563 -271 m 407 121 q 461 146 438 121 q 484 205 484 172 q 461 263 484 237 q 407 290 437 290 q 352 263 376 290 q 328 205 328 237 q 352 146 328 172 q 407 121 375 121 m 556 348 q 584 318 556 348 q 612 201 612 288 q 551 58 612 114 q 400 1 490 1 q 206 91 281 1 q 136 296 136 176 q 317 635 136 510 q 696 746 478 746 q 1072 637 916 746 q 1245 307 1245 515 q 1196 141 1245 206 q 1044 71 1140 71 q 905 122 964 71 q 844 255 846 173 q 803 163 803 212 q 848 49 803 98 q 955 0 892 0 l 1133 0 l 1133 -127 l 940 -127 q 873 -180 896 -127 q 859 -224 869 -195 q 844 -269 848 -254 q 582 -410 781 -410 q 395 -353 471 -410 q 320 -198 320 -296 q 364 -76 320 -124 q 480 -27 408 -27 q 596 -74 549 -27 q 644 -190 644 -121 q 581 -316 644 -271 q 732 -220 686 -316 q 739 -199 734 -216 q 746 -177 744 -183 q 752 -157 747 -172 q 761 -136 758 -142 q 769 -116 764 -129 q 779 -97 774 -104 q 790 -81 784 -90 q 803 -66 796 -73 q 818 -56 810 -60 q 692 155 692 -3 q 762 332 692 258 q 933 408 834 408 q 1015 396 976 408 q 955 270 955 362 q 983 209 955 236 q 1044 182 1010 182 q 1111 216 1087 182 q 1135 301 1135 251 q 990 548 1135 460 q 701 624 865 624 q 399 544 523 624 q 252 285 252 450 q 260 254 252 270 q 304 365 260 321 q 415 408 348 408 q 556 348 500 408 z "},"ஔ":{"ha":2493,"x_min":136,"x_max":2493,"o":"m 563 -205 q 542 -157 563 -177 q 492 -137 521 -137 q 444 -156 465 -137 q 425 -205 425 -173 q 492 -271 425 -271 q 563 -205 563 -271 m 407 121 q 461 146 438 121 q 484 205 484 172 q 461 263 484 237 q 407 290 437 290 q 352 263 376 290 q 328 205 328 237 q 352 146 328 172 q 407 121 375 121 m 1633 171 q 1688 196 1667 171 q 1709 258 1709 221 q 1688 319 1709 294 q 1633 343 1668 343 q 1579 319 1599 343 q 1558 258 1558 294 q 1579 196 1558 222 q 1633 171 1600 171 m 556 348 q 584 318 556 348 q 612 201 612 288 q 551 58 612 114 q 400 1 490 1 q 206 91 281 1 q 136 296 136 176 q 317 635 136 510 q 696 746 478 746 q 1072 637 916 746 q 1245 307 1245 515 q 1196 141 1245 206 q 1044 71 1140 71 q 905 122 964 71 q 844 255 846 173 q 803 163 803 212 q 848 49 803 98 q 955 0 892 0 l 1133 0 l 1133 -127 l 940 -127 q 873 -180 896 -127 q 859 -224 869 -195 q 844 -269 848 -254 q 582 -410 781 -410 q 395 -353 471 -410 q 320 -198 320 -296 q 364 -76 320 -124 q 480 -27 408 -27 q 596 -74 549 -27 q 644 -190 644 -121 q 581 -316 644 -271 q 732 -220 686 -316 q 739 -199 734 -216 q 746 -177 744 -183 q 752 -157 747 -172 q 761 -136 758 -142 q 769 -116 764 -129 q 779 -97 774 -104 q 790 -81 784 -90 q 803 -66 796 -73 q 818 -56 810 -60 q 692 155 692 -3 q 762 332 692 258 q 933 408 834 408 q 1015 396 976 408 q 955 270 955 362 q 983 209 955 236 q 1044 182 1010 182 q 1111 216 1087 182 q 1135 301 1135 251 q 990 548 1135 460 q 701 624 865 624 q 399 544 523 624 q 252 285 252 450 q 260 254 252 270 q 304 365 260 321 q 415 408 348 408 q 556 348 500 408 m 1345 396 q 1437 653 1345 551 q 1678 755 1529 755 q 1896 650 1831 755 l 1896 738 l 2493 738 l 2493 635 l 2314 635 l 2314 81 l 2203 81 l 2203 635 l 2002 635 l 2002 81 l 1896 81 l 1896 479 q 1835 601 1896 553 q 1690 648 1773 648 q 1515 569 1585 648 q 1446 381 1446 490 q 1489 247 1446 310 q 1482 278 1482 262 q 1526 395 1482 350 q 1640 441 1569 441 q 1769 388 1723 441 q 1817 252 1817 331 q 1764 117 1817 170 q 1628 64 1711 64 q 1417 165 1495 64 q 1345 396 1345 260 z "},"க":{"ha":1006,"x_min":136,"x_max":1006,"o":"m 810 429 q 955 367 904 429 q 1006 203 1006 306 q 818 -19 1006 -19 q 713 1 756 -19 l 755 99 q 812 83 784 83 q 892 198 892 83 q 802 309 892 309 l 713 309 l 713 221 q 642 43 713 105 q 448 -19 570 -19 q 239 54 334 -19 q 136 241 136 133 q 317 429 136 429 l 321 429 l 321 731 l 926 731 l 926 616 l 713 616 l 713 429 l 810 429 m 601 429 l 601 616 l 437 616 l 437 429 l 601 429 m 251 239 q 282 163 251 199 q 358 108 313 127 q 448 88 403 88 q 601 217 593 88 l 601 309 l 354 309 q 251 239 251 309 z "},"ங":{"ha":1130,"x_min":136,"x_max":1130,"o":"m 669 458 q 821 400 763 458 q 879 247 879 341 q 819 107 879 167 l 1010 107 l 1010 727 l 1130 727 l 1130 0 l 431 0 l 431 107 l 629 107 q 716 146 678 107 q 754 233 754 184 q 724 311 754 279 q 648 343 694 343 q 578 317 610 343 q 545 255 545 290 l 545 172 l 431 172 l 431 610 l 252 610 l 252 0 l 136 0 l 136 731 l 808 731 l 808 610 l 545 610 l 545 404 q 669 458 590 458 z "},"ச":{"ha":925,"x_min":136,"x_max":925,"o":"m 705 221 q 634 43 705 105 q 439 -19 562 -19 q 233 54 327 -19 q 136 241 136 130 q 180 381 136 334 q 310 429 224 429 l 313 429 l 313 731 l 910 731 l 910 616 l 705 616 l 705 429 l 925 429 l 925 309 l 705 309 l 705 221 m 593 429 l 593 616 l 429 616 l 429 429 l 593 429 m 251 239 q 311 133 251 178 q 439 88 370 88 q 593 217 585 88 l 593 309 l 345 309 q 251 239 251 309 z "},"ஜ":{"ha":1213,"x_min":136,"x_max":1213,"o":"m 332 361 q 383 381 361 361 q 404 431 404 401 q 381 481 404 460 q 328 503 357 503 q 277 483 297 503 q 258 431 258 463 q 279 381 258 401 q 332 361 300 361 m 1213 439 q 1174 268 1213 345 q 1064 145 1135 191 q 902 100 993 100 l 449 100 q 309 43 366 100 q 251 -95 251 -15 q 307 -233 251 -178 q 446 -288 361 -288 q 617 -193 548 -288 q 680 -102 649 -148 q 743 -11 711 -56 q 987 84 834 84 q 1146 15 1083 84 q 1213 -153 1213 -58 q 1152 -327 1213 -253 q 998 -401 1090 -401 q 835 -345 905 -401 q 765 -205 765 -289 l 884 -205 q 914 -266 884 -243 q 987 -290 947 -290 q 1067 -251 1036 -290 q 1099 -157 1099 -211 q 1065 -67 1099 -109 q 987 -26 1031 -26 q 795 -123 870 -26 q 738 -205 782 -143 q 670 -304 693 -268 q 446 -401 587 -401 q 227 -309 315 -401 q 136 -90 136 -214 q 227 127 136 37 q 445 217 316 217 l 871 217 q 1032 279 968 217 q 1096 437 1096 340 q 1049 575 1096 520 q 925 629 1002 629 q 764 481 764 629 l 764 277 l 640 277 l 640 481 q 449 633 640 633 q 293 571 351 633 q 358 589 321 589 q 475 543 427 589 q 524 430 524 498 q 470 303 524 351 q 335 255 417 255 q 195 316 251 255 q 138 464 138 377 q 181 608 138 543 q 294 710 223 673 q 449 746 365 746 q 693 656 614 746 q 917 747 766 747 q 1128 656 1042 747 q 1213 439 1213 568 z "},"ஞ":{"ha":1554,"x_min":136,"x_max":1554,"o":"m 631 125 q 643 110 631 125 q 694 95 656 95 q 758 125 733 95 q 783 195 783 155 q 758 264 783 235 q 694 293 732 293 q 630 265 654 293 q 606 195 606 237 q 631 125 606 155 m 1286 456 q 1428 410 1366 456 q 1522 289 1491 363 q 1554 127 1554 215 q 1501 -95 1554 17 q 1273 -330 1431 -247 q 895 -414 1116 -414 q 359 -227 573 -414 q 136 286 136 -31 q 301 749 136 602 l 380 673 q 245 292 245 549 q 435 -149 245 18 q 895 -311 619 -311 q 1388 -58 1257 -311 q 1435 129 1435 37 q 1392 278 1435 218 q 1271 339 1348 339 q 1203 317 1234 339 q 1172 263 1172 296 l 1172 9 l 1059 9 l 1059 617 l 760 617 q 566 537 643 617 q 488 339 488 457 q 532 179 488 252 q 529 218 529 206 q 578 348 529 296 q 703 399 627 399 q 841 337 787 399 q 895 189 895 276 q 836 40 895 98 q 686 -18 777 -18 q 456 92 542 -18 q 376 343 376 192 q 481 624 376 518 q 761 732 590 732 l 1474 732 l 1474 617 l 1172 617 l 1172 393 q 1286 456 1207 456 z "},"ட":{"ha":1008,"x_min":136,"x_max":1008,"o":"m 1008 -1 l 136 -1 l 136 734 l 252 734 l 252 115 l 1008 115 l 1008 -1 z "},"ண":{"ha":2115,"x_min":136,"x_max":2115,"o":"m 438 95 q 500 125 476 95 q 525 195 525 155 q 500 264 525 235 q 438 293 475 293 q 375 265 399 293 q 351 195 351 237 q 375 124 351 153 q 438 95 399 95 m 1002 283 q 902 529 1002 422 q 815 283 815 452 q 907 103 815 103 q 1002 283 1002 103 m 1518 283 q 1431 529 1518 438 q 1340 283 1340 450 q 1431 103 1340 103 q 1518 283 1518 103 m 639 189 q 581 40 639 97 q 430 -18 522 -18 q 214 83 296 -18 q 136 315 136 180 q 274 635 136 515 q 613 749 411 749 q 891 667 767 749 q 1157 750 1015 750 q 1427 670 1309 750 l 1428 670 q 1624 734 1512 734 l 2115 734 l 2115 620 l 1887 620 l 1887 -1 l 1765 -1 l 1765 620 l 1624 620 q 1523 587 1560 620 q 1643 275 1643 458 q 1442 -18 1643 -18 q 1268 87 1326 -18 q 1223 293 1223 170 q 1339 594 1223 475 q 1166 640 1270 640 q 998 587 1057 640 q 1126 275 1126 448 q 1118 183 1126 226 q 1095 102 1111 140 q 1054 39 1078 65 q 995 -3 1030 12 q 917 -18 960 -18 q 745 87 801 -18 q 699 293 699 169 q 808 589 699 465 q 613 636 720 636 q 363 555 469 636 q 251 327 251 469 q 286 184 251 243 q 274 235 274 218 q 324 352 274 304 q 445 399 374 399 q 584 337 529 399 q 639 189 639 275 z "},"த":{"ha":1028,"x_min":136,"x_max":1028,"o":"m 270 239 q 330 133 270 178 q 458 88 389 88 q 612 217 604 88 l 612 309 l 363 309 q 270 239 270 309 m 612 429 l 612 616 l 448 616 l 448 429 l 612 429 m 724 221 q 652 43 724 105 q 458 -19 580 -19 q 252 54 346 -19 q 155 241 155 132 q 199 381 155 334 q 329 429 243 429 l 332 429 l 332 731 l 937 731 l 937 616 l 724 616 l 724 429 l 779 429 q 963 343 892 429 q 1028 145 1028 262 q 920 -96 1028 -2 q 667 -184 814 -184 l 324 -184 q 273 -204 293 -184 q 252 -254 252 -223 q 290 -309 252 -297 l 213 -385 q 136 -244 136 -336 q 188 -125 136 -174 q 311 -76 239 -76 l 670 -76 q 838 -11 767 -76 q 909 152 909 54 q 865 267 909 224 q 749 309 822 309 q 724 309 742 311 l 724 221 z "},"ந":{"ha":966,"x_min":136,"x_max":966,"o":"m 685 339 q 615 318 646 339 q 585 263 585 297 l 585 5 l 471 5 l 471 616 l 296 616 l 296 5 l 176 5 l 176 735 l 871 735 l 871 616 l 585 616 l 585 397 q 705 456 623 456 q 892 361 820 456 q 966 140 966 265 q 916 -29 966 46 q 783 -144 866 -104 q 601 -184 700 -184 l 324 -184 q 273 -204 293 -184 q 252 -254 252 -223 q 290 -309 252 -297 l 213 -385 q 136 -244 136 -336 q 187 -125 136 -174 q 309 -76 239 -76 l 604 -76 q 770 -11 697 -76 q 844 145 844 54 q 800 281 844 224 q 685 339 755 339 z "},"ன":{"ha":1533,"x_min":136,"x_max":1533,"o":"m 277 238 q 326 353 277 308 q 445 399 374 399 q 584 337 529 399 q 639 189 639 275 q 581 40 639 97 q 430 -18 522 -18 q 214 83 294 -18 q 136 315 136 182 q 198 545 136 446 q 369 696 261 644 q 613 749 477 749 q 891 669 769 749 q 1085 732 977 730 l 1533 732 l 1533 620 l 1362 620 l 1362 5 l 1241 5 l 1241 620 l 1097 620 q 1006 587 1041 620 q 1098 451 1071 517 q 1126 275 1126 385 q 1118 183 1126 226 q 1095 102 1111 140 q 1054 39 1078 65 q 995 -3 1030 12 q 917 -18 960 -18 q 745 87 801 -18 q 699 293 699 169 q 808 589 699 465 q 613 636 718 636 q 355 548 458 636 q 251 327 251 458 q 286 184 251 243 q 277 238 277 213 m 1002 283 q 910 526 1002 430 q 815 283 815 446 q 907 103 815 103 q 1002 283 1002 103 m 438 95 q 500 125 476 95 q 525 195 525 155 q 500 264 525 235 q 438 293 475 293 q 375 265 399 293 q 351 195 351 237 q 375 124 351 153 q 438 95 399 95 z "},"ப":{"ha":947,"x_min":136,"x_max":947,"o":"m 947 -1 l 136 -1 l 136 734 l 252 734 l 252 115 l 830 115 l 830 734 l 947 734 l 947 -1 z "},"ம":{"ha":1146,"x_min":136,"x_max":1146,"o":"m 777 633 q 707 604 737 633 q 677 534 677 574 l 677 121 l 883 121 q 1010 292 1010 121 q 951 510 1010 405 q 777 633 880 633 m 549 529 q 614 687 549 622 q 770 751 678 751 q 1043 605 933 751 q 1146 301 1146 469 q 1069 82 1146 164 q 859 0 993 0 l 136 0 l 136 731 l 256 731 l 256 121 l 549 121 l 549 529 z "},"ய":{"ha":1004,"x_min":136,"x_max":1004,"o":"m 258 205 q 284 130 258 163 q 349 98 310 98 q 420 133 395 98 q 446 213 446 169 l 446 732 l 567 732 l 567 99 l 890 99 l 890 732 l 1004 732 l 1004 -5 l 463 -5 l 463 58 q 353 -16 425 -16 q 136 189 136 -16 l 136 732 l 258 732 l 258 205 z "},"ர":{"ha":856,"x_min":136,"x_max":856,"o":"m 593 -1 q 402 -112 482 -36 q 283 -294 322 -188 l 182 -227 q 307 -42 226 -121 q 475 72 388 35 l 475 620 l 254 620 l 254 1 l 136 1 l 136 735 l 856 735 l 856 620 l 593 620 l 593 -1 z "},"ற":{"ha":1017,"x_min":136,"x_max":1017,"o":"m 176 537 q 242 688 176 625 q 396 751 307 751 q 551 681 490 751 q 719 751 611 751 q 956 601 881 751 q 1017 307 1017 483 q 991 118 1017 207 q 916 -38 964 30 q 792 -145 867 -105 q 627 -184 718 -184 l 326 -184 q 273 -204 294 -184 q 252 -254 252 -224 q 293 -309 252 -296 l 214 -388 q 136 -244 136 -338 q 188 -124 136 -174 q 311 -75 240 -75 l 629 -75 q 841 57 766 -75 q 903 316 903 170 q 892 430 903 375 q 861 531 882 484 q 802 606 840 578 q 718 633 765 633 q 644 602 675 633 q 613 529 613 571 l 613 -1 l 488 -1 l 488 529 q 460 602 488 570 q 392 633 432 633 q 329 601 355 633 q 302 529 302 568 l 302 -1 l 176 -1 l 176 537 z "},"ல":{"ha":1267,"x_min":136,"x_max":1267,"o":"m 393 125 q 406 110 393 125 q 456 95 418 95 q 518 125 494 95 q 543 195 543 155 q 518 264 543 235 q 456 293 493 293 q 394 264 418 293 q 369 195 369 235 q 393 125 369 155 m 967 84 q 1046 108 1012 84 q 1101 173 1081 132 q 1132 262 1122 213 q 1142 365 1142 311 q 989 690 1142 593 l 1066 773 q 1267 384 1267 642 q 1250 228 1267 300 q 1197 101 1232 157 q 1105 14 1162 45 q 974 -18 1048 -18 q 800 54 864 -18 q 732 233 732 130 l 732 479 q 675 600 732 555 q 545 636 627 636 q 334 552 420 636 q 248 342 248 467 q 297 178 248 243 q 290 218 290 198 q 338 348 290 297 q 463 399 386 399 q 602 337 547 399 q 656 189 656 275 q 598 40 656 97 q 448 -18 540 -18 q 217 92 303 -18 q 136 343 136 194 q 252 636 136 519 q 545 750 366 750 q 696 720 627 750 q 807 632 765 690 q 849 499 849 574 l 849 251 q 880 133 849 182 q 967 84 911 84 z "},"ள":{"ha":1412,"x_min":136,"x_max":1412,"o":"m 456 95 q 518 124 494 95 q 543 195 543 154 q 519 265 543 237 q 456 293 496 293 q 393 265 416 293 q 369 195 369 237 q 393 124 369 153 q 456 95 418 95 m 656 189 q 598 40 656 97 q 448 -18 540 -18 q 216 95 302 -18 q 136 350 136 204 q 233 632 136 520 q 505 750 335 750 q 749 624 680 750 l 749 731 l 1412 731 l 1412 620 l 1211 620 l 1211 1 l 1093 1 l 1093 620 l 865 620 l 865 1 l 749 1 l 749 442 q 681 581 749 527 q 518 635 612 635 q 321 545 397 635 q 244 335 244 453 q 300 170 244 237 q 290 218 290 212 q 338 348 290 297 q 463 399 386 399 q 602 337 547 399 q 656 189 656 275 z "},"ழ":{"ha":1166,"x_min":136,"x_max":1166,"o":"m 798 633 q 727 604 758 633 q 697 534 697 574 l 697 121 l 903 121 q 1031 292 1031 121 q 971 510 1031 406 q 798 633 901 633 m 570 529 q 634 687 570 622 q 791 751 699 751 q 1063 605 954 751 q 1166 301 1166 469 q 1089 82 1166 164 q 879 0 1013 0 l 700 0 l 700 -18 q 807 -88 700 -88 l 979 -88 l 979 -214 l 852 -214 q 738 -283 799 -214 q 618 -412 638 -396 q 410 -480 533 -480 q 228 -425 307 -480 q 136 -267 136 -364 q 191 -125 136 -176 q 335 -72 248 -72 l 475 -72 l 475 -187 l 330 -187 q 256 -255 256 -187 q 303 -337 256 -307 q 412 -368 350 -368 q 533 -332 486 -368 q 608 -250 563 -307 q 694 -163 655 -190 q 571 0 571 -149 l 156 0 l 156 731 l 277 731 l 277 121 l 570 121 l 570 529 z "},"வ":{"ha":1314,"x_min":136,"x_max":1314,"o":"m 458 95 q 520 125 496 95 q 545 195 545 155 q 522 265 545 237 q 458 293 498 293 q 394 266 418 293 q 370 195 370 238 q 395 124 370 154 q 458 95 420 95 m 659 189 q 600 40 659 98 q 450 -18 541 -18 q 221 95 309 -18 q 136 345 136 203 q 254 636 136 520 q 548 749 368 749 q 848 635 728 749 q 966 340 966 523 q 891 113 966 220 l 1200 113 l 1200 731 l 1314 731 l 1314 -1 l 742 -1 l 735 76 q 850 328 850 177 q 764 548 850 460 q 547 636 677 636 q 336 551 422 636 q 250 340 250 464 q 296 179 250 256 q 293 218 293 206 q 339 349 293 300 q 465 399 387 399 q 605 338 550 399 q 659 189 659 277 z "},"ஶ":{"ha":1223,"x_min":136,"x_max":1223,"o":"m 1012 98 q 1079 127 1053 98 q 1105 201 1105 157 l 1105 602 l 914 602 l 914 241 q 940 140 914 182 q 1012 98 965 98 m 363 98 q 440 142 410 98 q 471 241 471 186 l 471 715 l 1223 715 l 1223 187 q 1162 45 1223 102 q 1013 -11 1101 -11 q 856 52 918 -11 q 795 212 795 115 l 795 602 l 589 602 l 589 212 q 523 53 589 117 q 361 -11 457 -11 q 203 46 270 -11 q 136 187 136 103 l 136 715 l 255 715 l 255 201 q 288 128 255 159 q 363 98 320 98 z "},"ஷ":{"ha":1721,"x_min":136,"x_max":1721,"o":"m 458 95 q 520 125 496 95 q 545 195 545 155 q 522 265 545 237 q 458 293 498 293 q 395 264 420 293 q 370 195 370 236 q 395 124 370 153 q 458 95 419 95 m 1234 632 q 1143 600 1178 632 q 1108 511 1108 567 q 1181 376 1108 427 q 1337 332 1244 332 l 1337 540 q 1307 606 1337 581 q 1234 632 1277 632 m 1600 115 l 1600 285 q 1457 220 1535 224 l 1457 115 l 1600 115 m 1457 339 q 1576 394 1525 351 q 1628 498 1628 436 l 1721 498 l 1721 -1 l 1457 -1 l 1457 -369 l 1337 -369 l 1337 -1 l 726 -1 l 718 80 q 833 336 833 176 q 760 554 833 473 q 555 635 687 635 q 339 551 429 635 q 250 340 250 467 q 296 179 250 256 q 293 218 293 206 q 339 349 293 300 q 465 399 387 399 q 605 338 550 399 q 659 189 659 277 q 600 40 659 98 q 450 -18 541 -18 q 221 95 309 -18 q 136 345 136 203 q 258 636 136 524 q 556 749 380 749 q 840 636 729 749 q 948 349 948 526 q 875 115 948 225 l 1337 115 l 1337 217 q 1099 294 1196 217 q 993 514 993 376 q 1064 685 993 621 q 1245 749 1135 749 q 1397 693 1333 749 q 1457 548 1457 642 l 1457 339 z "},"ஸ":{"ha":1583,"x_min":136,"x_max":1583,"o":"m 456 95 q 518 124 494 95 q 543 195 543 153 q 519 265 543 237 q 456 293 496 293 q 394 265 417 293 q 370 195 370 237 q 393 124 370 153 q 456 95 416 95 m 1291 84 q 1371 107 1337 84 q 1426 172 1406 131 q 1455 261 1446 212 q 1465 365 1465 309 q 1310 690 1465 593 l 1390 773 q 1583 384 1583 648 q 1573 256 1583 315 q 1540 146 1563 197 q 1486 59 1518 95 q 1404 3 1453 23 q 1295 -18 1356 -18 q 1123 54 1191 -18 q 1057 233 1057 125 l 1057 552 q 1028 612 1057 587 q 962 637 1000 637 l 958 637 q 861 536 861 637 l 861 0 l 746 0 l 746 471 q 541 637 746 637 q 334 551 418 637 q 250 340 250 465 q 294 179 250 254 q 290 218 290 199 q 338 348 290 298 q 464 399 387 399 q 603 337 548 399 q 658 189 658 275 q 599 39 658 96 q 448 -18 541 -18 q 218 95 309 -18 q 136 345 136 203 q 244 625 136 507 q 526 750 357 748 l 537 750 q 689 722 620 750 q 781 643 758 693 q 845 719 791 688 q 959 750 899 750 q 1107 701 1043 750 q 1172 576 1172 652 l 1172 233 q 1291 84 1172 84 z "},"ஹ":{"ha":1950,"x_min":136,"x_max":1950,"o":"m 475 95 q 537 125 512 95 q 562 195 562 155 q 538 265 562 237 q 475 293 515 293 q 411 264 436 293 q 387 195 387 236 q 411 124 387 153 q 475 95 435 95 m 1111 537 q 1176 688 1111 624 q 1329 751 1241 751 q 1485 681 1425 751 q 1653 751 1546 751 q 1889 601 1814 751 q 1950 307 1950 483 q 1858 -27 1950 105 q 1560 -184 1748 -184 l 326 -184 q 274 -204 295 -184 q 254 -254 254 -224 q 293 -309 254 -297 l 214 -388 q 136 -244 136 -338 q 188 -124 136 -174 q 312 -75 241 -75 l 1564 -75 q 1775 57 1701 -75 q 1836 316 1836 167 q 1826 430 1836 376 q 1794 531 1815 485 q 1737 606 1773 578 q 1652 633 1700 633 q 1577 603 1609 633 q 1546 529 1546 572 l 1546 -1 l 1421 -1 l 1421 529 q 1394 602 1421 571 q 1326 633 1367 633 q 1263 601 1290 633 q 1237 529 1237 568 l 1237 -1 l 742 -1 l 734 80 q 849 336 849 176 q 776 554 849 473 q 571 635 703 635 q 355 551 446 635 q 266 340 266 467 q 312 179 266 256 q 309 218 309 206 q 355 349 309 300 q 481 399 404 399 q 621 338 566 399 q 675 189 675 277 q 616 40 675 98 q 467 -18 557 -18 q 237 95 326 -18 q 152 345 152 203 q 274 636 152 524 q 572 749 397 749 q 856 636 745 749 q 964 349 964 526 q 891 115 964 225 q 996 117 958 117 q 1111 115 1031 117 l 1111 537 z "},"ா":{"ha":798,"x_min":136,"x_max":798,"o":"m 798 605 l 574 605 l 574 -1 l 460 -1 l 460 605 l 251 605 l 251 1 l 136 1 l 136 718 l 798 718 l 798 605 z "},"ி":{"ha":765,"x_min":136,"x_max":765,"o":"m 449 1153 q 670 1069 576 1153 q 765 863 765 984 l 765 0 l 643 0 l 643 854 q 585 980 643 928 q 449 1031 526 1031 q 305 991 360 1031 q 250 876 250 952 q 279 781 250 826 q 347 719 308 736 q 345 715 356 716 q 184 723 184 717 q 195 726 184 724 q 136 882 136 789 q 224 1080 136 1006 q 449 1153 313 1153 z "},"ீ":{"ha":689,"x_min":136,"x_max":689,"o":"m 498 879 q 551 907 529 879 q 572 970 572 936 q 550 1031 572 1003 q 498 1059 528 1059 q 445 1031 466 1059 q 423 970 423 1004 q 444 907 423 935 q 498 879 465 879 m 458 1183 q 624 1127 559 1183 q 689 977 689 1072 q 640 835 689 891 q 509 779 590 779 q 380 831 431 779 q 328 960 328 883 q 343 1042 328 1003 q 250 884 250 989 q 278 789 250 840 q 338 708 321 708 q 304 705 328 705 q 264 709 283 705 q 220 724 245 712 q 178 754 196 735 q 148 808 160 773 q 136 890 136 844 q 232 1107 136 1023 q 458 1183 320 1183 z "},"ு":{"ha":975,"x_min":136,"x_max":975,"o":"m 644 398 q 662 380 644 398 q 732 361 681 361 q 821 398 784 361 q 859 488 859 436 q 822 576 859 540 q 732 613 785 613 q 643 576 680 613 q 606 488 606 540 q 644 398 606 436 m 732 731 q 904 660 832 731 q 975 488 975 588 q 904 317 975 388 q 732 245 833 245 q 562 317 632 245 q 491 488 491 388 q 519 602 491 549 l 136 602 l 136 731 l 732 731 z "},"ூ":{"ha":1488,"x_min":136,"x_max":1488,"o":"m 840 460 q 919 496 889 460 q 948 586 948 533 q 823 669 948 669 l 727 669 l 727 594 q 759 499 727 539 q 840 460 791 460 m 1065 586 q 1001 414 1065 484 q 840 343 937 343 q 677 419 743 343 q 612 594 612 494 l 612 675 l 136 682 l 137 793 l 612 796 q 727 1108 612 983 q 1029 1234 843 1234 q 1369 1070 1241 1234 q 1488 705 1488 920 q 1331 289 1488 460 q 926 111 1167 111 q 543 274 703 111 l 609 363 q 922 229 739 229 q 1248 372 1118 229 q 1377 704 1377 509 q 1287 989 1377 871 q 1029 1120 1190 1120 q 811 1027 895 1120 q 727 796 727 932 l 856 796 q 1007 738 949 796 q 1065 586 1065 680 z "},"ெ":{"ha":1077,"x_min":136,"x_max":1077,"o":"m 677 92 q 762 135 726 92 q 798 229 798 178 q 762 324 798 281 q 677 366 726 366 q 590 324 626 366 q 555 229 555 282 q 591 135 555 177 q 677 92 627 92 m 910 225 q 835 48 910 113 q 643 -18 760 -18 q 266 165 408 -18 q 136 576 136 332 q 282 975 136 814 q 666 1142 433 1142 q 954 1043 838 1142 q 1077 770 1077 940 l 1077 1 l 966 1 l 966 760 q 878 953 966 878 q 661 1028 789 1028 q 365 902 479 1028 q 251 591 251 776 q 315 300 251 428 q 488 125 379 173 q 441 258 441 182 q 512 411 441 348 q 677 475 583 475 q 847 405 783 475 q 910 225 910 335 z "},"ே":{"ha":1012,"x_min":136,"x_max":1012,"o":"m 787 157 q 858 194 829 157 q 887 275 887 230 q 858 355 887 320 q 787 391 829 391 q 716 355 745 391 q 688 275 688 319 q 716 194 688 231 q 787 157 745 157 m 795 757 q 866 792 837 757 q 895 872 895 827 q 866 952 895 917 q 795 987 837 987 q 725 952 753 987 q 696 872 696 916 q 725 792 696 828 q 795 757 753 757 m 1005 277 q 957 126 1005 191 q 831 31 909 62 q 658 0 753 0 q 274 168 420 0 q 136 571 136 327 q 271 974 136 810 q 650 1147 414 1147 q 895 1082 793 1147 q 1012 868 1012 1004 q 950 705 1012 772 q 796 637 888 637 q 639 705 701 637 q 578 872 578 773 q 662 1032 578 966 q 366 895 477 1032 q 267 581 267 770 q 358 267 267 399 q 633 115 460 115 l 654 115 q 570 275 570 169 q 631 442 570 374 q 788 510 692 510 q 943 441 881 510 q 1005 277 1005 372 z "},"ை":{"ha":1373,"x_min":136,"x_max":1373,"o":"m 418 118 q 477 145 454 118 q 499 210 499 172 q 477 276 499 249 q 418 302 454 302 q 358 275 382 302 q 335 210 335 248 q 358 145 335 172 q 418 118 382 118 m 947 294 q 849 534 947 445 q 770 294 770 444 q 857 125 770 125 q 947 294 947 125 m 606 205 q 550 67 606 123 q 411 11 494 11 q 209 107 287 11 q 136 323 136 194 q 269 623 136 506 q 582 736 397 736 q 840 665 728 736 q 1031 739 937 739 q 1286 623 1194 739 q 1373 349 1373 513 q 1253 11 1373 136 l 1166 79 q 1264 350 1264 176 q 1202 550 1264 468 q 1036 632 1141 632 q 933 606 983 632 q 1062 286 1062 496 q 1042 149 1062 210 q 978 50 1023 89 q 867 11 932 11 q 776 35 816 11 q 711 99 736 58 q 674 192 687 140 q 662 302 662 243 q 754 593 662 479 q 582 625 685 625 q 347 551 444 625 q 244 335 244 471 q 275 199 244 243 q 266 248 266 220 q 312 358 266 314 q 425 401 358 401 q 555 344 503 401 q 606 205 606 286 z "},"ொ":{"ha":2528,"x_min":136,"x_max":2528,"o":"m 677 92 q 762 135 726 92 q 798 229 798 178 q 762 324 798 281 q 677 366 726 366 q 590 324 626 366 q 555 229 555 282 q 591 135 555 177 q 677 92 627 92 m 910 225 q 835 48 910 113 q 643 -18 760 -18 q 266 165 408 -18 q 136 576 136 332 q 282 975 136 814 q 666 1142 433 1142 q 954 1043 838 1142 q 1077 770 1077 940 l 1077 1 l 966 1 l 966 760 q 878 953 966 878 q 661 1028 789 1028 q 365 902 479 1028 q 251 591 251 776 q 315 300 251 428 q 488 125 379 173 q 441 258 441 182 q 512 411 441 348 q 677 475 583 475 q 847 405 783 475 q 910 225 910 335 m 1435 43 l 1434 -15 q 1253 72 1332 -1 l 1294 113 q 1435 43 1345 55 m 1242 174 l 1202 133 q 1134 317 1140 211 l 1191 317 q 1242 174 1197 236 m 1704 79 q 1516 -15 1632 3 l 1516 43 q 1663 119 1601 56 l 1704 79 m 1242 540 q 1191 396 1199 469 l 1134 396 q 1199 581 1142 493 l 1242 540 m 1816 317 q 1756 144 1810 220 l 1714 184 q 1759 317 1755 246 l 1816 317 m 1435 670 q 1295 604 1350 652 l 1255 644 q 1434 730 1326 720 l 1435 670 m 1816 396 l 1759 396 q 1714 532 1748 480 l 1755 575 q 1816 396 1812 493 m 1704 636 l 1663 595 q 1516 670 1611 652 l 1519 730 q 1704 636 1632 711 m 2528 605 l 2303 605 l 2303 -1 l 2189 -1 l 2189 605 l 1980 605 l 1980 1 l 1865 1 l 1865 718 l 2528 718 l 2528 605 z "},"ோ":{"ha":2452,"x_min":136,"x_max":2452,"o":"m 787 157 q 858 194 829 157 q 887 275 887 230 q 858 355 887 320 q 787 391 829 391 q 716 355 745 391 q 688 275 688 319 q 716 194 688 231 q 787 157 745 157 m 795 757 q 866 792 837 757 q 895 872 895 827 q 866 952 895 917 q 795 987 837 987 q 725 952 753 987 q 696 872 696 916 q 725 792 696 828 q 795 757 753 757 m 1005 277 q 957 126 1005 191 q 831 31 909 62 q 658 0 753 0 q 274 168 420 0 q 136 571 136 327 q 271 974 136 810 q 650 1147 414 1147 q 895 1082 793 1147 q 1012 868 1012 1004 q 950 705 1012 772 q 796 637 888 637 q 639 705 701 637 q 578 872 578 773 q 662 1032 578 966 q 366 895 477 1032 q 267 581 267 770 q 358 267 267 399 q 633 115 460 115 l 654 115 q 570 275 570 169 q 631 442 570 374 q 788 510 692 510 q 943 441 881 510 q 1005 277 1005 372 m 1359 43 l 1358 -15 q 1177 72 1256 -1 l 1218 113 q 1359 43 1269 55 m 1166 174 l 1126 133 q 1058 317 1064 211 l 1115 317 q 1166 174 1121 236 m 1628 79 q 1440 -15 1556 3 l 1440 43 q 1587 119 1525 56 l 1628 79 m 1166 540 q 1115 396 1123 469 l 1058 396 q 1123 581 1066 493 l 1166 540 m 1740 317 q 1681 144 1734 220 l 1638 184 q 1683 317 1679 246 l 1740 317 m 1359 670 q 1219 604 1274 652 l 1179 644 q 1358 730 1250 720 l 1359 670 m 1740 396 l 1683 396 q 1638 532 1672 480 l 1679 575 q 1740 396 1736 493 m 1628 636 l 1587 595 q 1440 670 1535 652 l 1443 730 q 1628 636 1556 711 m 2452 605 l 2227 605 l 2227 -1 l 2113 -1 l 2113 605 l 1904 605 l 1904 1 l 1789 1 l 1789 718 l 2452 718 l 2452 605 z "},"ௌ":{"ha":2833,"x_min":136,"x_max":2833,"o":"m 677 92 q 762 135 726 92 q 798 229 798 178 q 762 324 798 281 q 677 366 726 366 q 590 324 626 366 q 555 229 555 282 q 591 135 555 177 q 677 92 627 92 m 2178 292 q 2116 361 2178 361 q 2056 292 2056 361 q 2116 220 2056 220 q 2178 292 2178 220 m 910 225 q 835 48 910 113 q 643 -18 760 -18 q 266 165 408 -18 q 136 576 136 332 q 282 975 136 814 q 666 1142 433 1142 q 954 1043 838 1142 q 1077 770 1077 940 l 1077 1 l 966 1 l 966 760 q 878 953 966 878 q 661 1028 789 1028 q 365 902 479 1028 q 251 591 251 776 q 315 300 251 428 q 488 125 379 173 q 441 258 441 182 q 512 411 441 348 q 677 475 583 475 q 847 405 783 475 q 910 225 910 335 m 1435 43 l 1434 -15 q 1253 72 1332 -1 l 1294 113 q 1435 43 1345 55 m 1242 174 l 1202 133 q 1134 317 1140 211 l 1191 317 q 1242 174 1197 236 m 1704 79 q 1516 -15 1632 3 l 1516 43 q 1663 119 1601 56 l 1704 79 m 1242 540 q 1191 396 1199 469 l 1134 396 q 1199 581 1142 493 l 1242 540 m 1816 317 q 1756 144 1810 220 l 1714 184 q 1759 317 1755 246 l 1816 317 m 1435 670 q 1295 604 1350 652 l 1255 644 q 1434 730 1326 720 l 1435 670 m 1816 396 l 1759 396 q 1714 532 1748 480 l 1755 575 q 1816 396 1812 493 m 1704 636 l 1663 595 q 1516 670 1611 652 l 1519 730 q 1704 636 1632 711 m 2110 125 q 1985 164 2040 125 q 1902 267 1930 203 q 1873 407 1873 331 q 1950 624 1873 536 q 2154 711 2027 711 q 2333 627 2277 711 l 2333 697 l 2833 697 l 2833 605 l 2684 605 l 2684 141 l 2588 141 l 2588 605 l 2425 605 l 2425 141 l 2333 141 l 2333 477 q 2282 577 2333 538 q 2163 617 2231 617 q 2020 551 2078 617 q 1963 396 1963 486 q 1991 293 1963 340 q 1988 308 1988 307 q 2025 408 1988 369 q 2123 448 2062 448 q 2229 401 2188 448 q 2271 286 2271 354 q 2225 170 2271 216 q 2110 125 2180 125 z "},"்":{"ha":355,"x_min":136,"x_max":355,"o":"m 244 1080 q 323 1040 291 1080 q 355 951 355 1000 q 323 860 355 899 q 244 821 291 821 q 167 860 199 821 q 136 951 136 900 q 167 1040 136 1000 q 244 1080 199 1080 z "},"ௐ":{"ha":1218,"x_min":136,"x_max":1218,"o":"m 593 -217 q 578 -162 593 -189 q 541 -136 564 -136 q 528 -148 528 -136 l 528 -251 l 572 -251 q 593 -217 593 -251 m 399 119 q 453 146 431 119 q 476 206 476 173 q 454 269 476 241 q 399 296 431 296 q 345 268 367 296 q 323 206 323 241 q 345 146 323 173 q 399 119 368 119 m 461 -52 q 427 -91 461 -91 q 393 -52 393 -91 q 427 -15 393 -15 q 461 -52 461 -15 m 393 9 q 208 94 280 9 q 136 298 136 178 q 307 624 136 506 q 673 730 457 730 q 1042 624 889 730 q 1218 300 1218 505 q 1165 134 1218 201 q 1023 68 1113 68 q 886 121 945 68 q 826 250 828 172 q 803 160 803 222 q 863 46 803 92 q 991 0 923 0 l 1131 0 l 1131 -123 l 968 -123 q 894 -136 927 -123 q 837 -173 861 -149 q 796 -226 813 -197 q 764 -294 779 -255 q 705 -412 728 -385 q 562 -464 660 -464 l 396 -464 q 236 -420 286 -464 q 186 -274 186 -377 l 186 -107 q 212 -35 186 -65 q 279 -5 239 -5 q 349 -36 319 -5 q 378 -106 378 -66 l 378 -251 l 463 -251 q 461 -187 461 -222 q 540 -72 461 -72 q 626 -116 590 -72 q 662 -214 662 -161 q 635 -286 662 -258 q 566 -315 608 -315 l 315 -315 l 315 -103 q 290 -72 315 -72 q 264 -103 264 -72 l 264 -278 q 372 -369 264 -369 l 568 -369 q 658 -300 629 -369 q 712 -163 684 -236 q 834 -54 750 -81 q 686 168 686 19 q 752 331 686 264 q 914 399 819 399 q 993 385 950 399 q 935 263 935 353 q 962 204 935 230 q 1023 178 989 178 q 1087 212 1063 178 q 1111 294 1111 246 q 964 536 1111 450 q 674 609 838 609 q 388 534 505 609 q 248 286 248 448 q 256 255 248 269 q 300 363 256 319 q 407 407 343 407 q 545 348 490 407 q 600 203 600 288 q 540 64 600 119 q 393 9 481 9 z "},"ௗ":{"ha":1096,"x_min":136,"x_max":1096,"o":"m 439 292 q 378 361 439 361 q 317 292 317 361 q 378 220 317 220 q 439 292 439 220 m 373 125 q 201 207 267 125 q 136 407 136 289 q 212 624 136 538 q 415 711 288 711 q 594 627 538 711 l 594 697 l 1096 697 l 1096 605 l 947 605 l 947 141 l 850 141 l 850 605 l 688 605 l 688 141 l 594 141 l 594 477 q 544 578 594 538 q 426 617 494 617 q 282 552 340 617 q 225 396 225 486 q 252 293 225 338 q 251 308 251 300 q 288 408 251 369 q 385 448 325 448 q 492 401 450 448 q 533 286 533 354 q 488 170 533 216 q 373 125 443 125 z "},"௦":{"ha":722,"x_min":136,"x_max":722,"o":"m 644 515 q 602 773 644 661 q 429 930 546 930 q 254 773 312 930 q 210 515 210 661 q 254 260 210 373 q 430 103 312 103 q 602 260 546 103 q 644 515 644 372 m 722 515 q 669 179 722 315 q 430 -16 593 -16 q 187 179 262 -16 q 136 515 136 312 q 189 853 136 717 q 430 1050 264 1050 q 669 853 593 1050 q 722 515 722 717 z "},"௧":{"ha":993,"x_min":136,"x_max":993,"o":"m 433 98 q 564 149 515 98 q 613 283 613 201 l 613 458 l 343 458 q 251 424 288 458 q 214 334 214 389 q 279 170 214 243 q 433 98 343 98 m 613 585 l 613 909 l 399 909 l 399 585 l 613 585 m 684 308 q 669 179 684 237 q 625 77 654 121 q 546 9 595 33 q 433 -15 497 -15 q 323 15 382 -15 q 188 141 240 57 q 136 335 136 226 q 324 585 136 585 l 327 585 l 327 1028 l 838 1028 l 838 909 l 684 909 l 684 585 l 789 585 q 993 279 993 585 q 983 171 993 222 q 953 77 973 120 q 897 10 932 35 q 815 -15 862 -15 q 734 5 770 -15 l 765 103 q 808 91 785 91 q 906 274 906 91 q 876 404 906 349 q 789 458 846 458 l 684 458 l 684 308 z "},"௨":{"ha":914,"x_min":136,"x_max":914,"o":"m 658 624 q 605 821 658 733 q 438 922 542 922 q 274 821 337 922 q 221 624 221 733 q 274 426 221 513 q 438 324 337 324 q 605 426 542 324 q 658 624 658 513 m 349 220 q 323 218 342 219 q 294 215 304 216 q 268 212 285 214 q 242 205 252 209 q 223 195 233 201 q 209 180 214 189 q 205 160 205 172 q 273 104 205 104 l 914 104 l 914 -3 l 243 -3 q 163 44 191 -3 q 136 156 136 91 q 241 312 136 257 q 149 621 149 452 q 181 813 149 725 q 267 962 213 902 q 441 1044 344 1044 q 535 1022 490 1044 q 612 962 579 999 q 668 880 645 924 q 705 789 692 836 q 730 621 730 710 q 699 429 730 516 q 612 282 667 341 q 441 198 536 198 q 349 220 399 198 z "},"௩":{"ha":1006,"x_min":136,"x_max":1006,"o":"m 621 731 q 718 705 675 731 q 789 636 762 680 q 831 537 817 592 q 846 422 846 482 q 735 125 846 234 l 1006 125 l 1006 16 l 311 16 l 311 106 l 382 106 q 754 397 754 106 q 740 502 754 454 q 692 583 725 550 q 613 616 659 616 q 515 557 552 616 q 477 425 477 499 l 477 376 l 406 376 l 406 911 l 209 911 l 209 292 l 136 292 l 136 1028 l 661 1028 l 661 911 l 477 911 l 477 642 q 621 731 536 731 z "},"௪":{"ha":1023,"x_min":136,"x_max":1023,"o":"m 423 98 q 558 149 506 98 q 610 283 610 201 l 610 458 l 340 458 q 250 424 285 458 q 216 334 216 389 q 274 172 216 241 q 423 98 334 98 m 610 585 l 610 910 l 396 910 l 396 585 l 610 585 m 681 308 q 665 178 681 237 q 619 77 650 120 q 538 9 589 33 q 423 -15 488 -15 q 312 16 370 -15 q 185 142 234 58 q 136 335 136 227 q 318 585 136 585 l 324 585 l 324 1031 l 836 1031 l 836 910 l 681 910 l 681 585 l 944 585 l 944 994 l 1023 994 l 1023 458 l 681 458 l 681 308 z "},"௫":{"ha":1088,"x_min":136,"x_max":1088,"o":"m 868 731 q 987 692 937 731 q 1063 591 1038 654 q 1088 453 1088 529 q 954 126 1088 256 q 627 -5 818 -5 q 423 42 518 -5 q 212 257 289 109 q 136 604 136 405 q 252 990 136 814 l 334 939 q 220 602 220 790 q 457 133 220 252 q 635 91 539 91 q 890 189 782 91 q 997 433 997 286 q 960 562 997 509 q 860 616 923 616 q 788 587 820 616 q 740 514 756 557 q 724 425 724 471 l 724 359 l 652 359 l 652 911 l 464 911 l 464 359 l 391 359 l 391 1028 l 907 1028 l 907 911 l 724 911 l 724 642 q 868 731 777 731 z "},"௬":{"ha":1252,"x_min":136,"x_max":1252,"o":"m 433 98 q 564 149 515 98 q 613 283 613 201 l 613 458 l 343 458 q 251 424 288 458 q 214 334 214 389 q 279 170 214 243 q 433 98 343 98 m 613 585 l 613 909 l 399 909 l 399 585 l 613 585 m 1252 461 l 1120 461 l 1120 0 l 1047 0 l 1047 461 l 909 461 l 909 0 l 836 0 l 836 311 q 724 458 836 458 l 684 458 l 684 308 q 433 -15 684 -15 q 319 16 379 -15 q 187 143 239 58 q 136 335 136 229 q 324 585 136 585 l 327 585 l 327 1028 l 838 1028 l 838 909 l 684 909 l 684 585 q 844 544 797 585 l 844 581 l 1252 581 l 1252 461 z "},"௭":{"ha":1016,"x_min":136,"x_max":1016,"o":"m 338 271 q 349 188 338 226 q 388 124 361 150 q 452 98 414 98 q 541 156 511 98 q 567 267 567 203 q 554 356 567 315 q 511 425 541 397 q 442 453 482 453 q 383 425 408 453 q 348 356 359 396 q 338 271 338 316 m 441 551 q 553 512 505 551 q 626 414 602 474 q 650 282 650 353 q 604 88 650 168 q 438 -9 545 -9 q 202 170 286 -9 q 136 483 136 309 q 231 852 136 697 q 544 1031 340 1031 l 1016 1031 l 1016 911 l 935 911 l 935 19 l 853 19 l 853 911 l 519 911 q 286 773 372 911 q 216 496 216 653 q 248 294 216 376 q 243 345 243 330 q 300 490 243 429 q 441 551 358 551 z "},"௮":{"ha":1519,"x_min":136,"x_max":1519,"o":"m 1161 361 l 293 361 q 222 298 222 361 q 262 212 222 257 q 625 90 368 90 q 952 162 811 90 q 1161 361 1093 235 m 930 921 q 744 860 821 921 q 667 699 667 799 q 741 533 667 612 q 898 454 813 454 l 1188 454 q 1214 632 1214 545 q 1140 845 1214 770 q 930 921 1067 921 m 939 1043 q 1204 930 1113 1043 q 1295 624 1295 817 q 1278 454 1295 536 l 1434 454 l 1434 1034 l 1519 1034 l 1519 0 l 1434 0 l 1434 361 l 1253 361 q 1004 75 1189 176 q 628 -16 840 -16 q 178 176 298 -16 q 136 311 136 244 q 170 413 136 372 q 262 454 205 454 l 692 454 q 587 716 587 573 q 634 886 587 810 q 761 1002 681 961 q 939 1043 841 1043 z "},"௯":{"ha":1291,"x_min":136,"x_max":1291,"o":"m 433 98 q 564 153 514 98 q 613 292 613 208 l 613 458 l 343 458 q 250 428 286 458 q 214 342 214 397 q 244 226 214 282 q 325 134 274 170 q 433 98 376 98 m 613 585 l 613 909 l 399 909 l 399 585 l 613 585 m 914 260 q 980 293 953 260 q 1008 368 1008 326 q 980 444 1008 410 q 914 477 953 477 q 850 443 877 477 q 823 368 823 408 q 850 294 823 328 q 914 260 877 260 m 1016 585 q 1215 502 1138 585 q 1291 294 1291 420 q 1217 84 1291 172 q 1028 -16 1142 -3 l 1028 100 q 1160 161 1107 100 q 1213 307 1213 222 q 1170 422 1213 376 q 1059 469 1126 469 q 1089 366 1089 410 q 1040 214 1089 280 q 914 148 990 148 q 788 220 840 148 q 741 361 741 283 q 765 458 741 416 l 684 458 l 684 316 q 621 77 684 168 q 433 -15 557 -15 q 218 104 309 -15 q 136 343 136 214 q 323 585 136 585 l 327 585 l 327 1028 l 895 1028 l 895 909 l 684 909 l 684 585 l 1016 585 z "},"௰":{"ha":1078,"x_min":136,"x_max":1078,"o":"m 578 247 q 632 139 578 175 q 772 103 686 103 q 952 290 897 103 q 989 581 989 414 q 941 880 989 746 q 738 1063 874 1063 q 647 1050 699 1063 l 644 1171 q 736 1180 686 1180 q 1008 951 916 1180 q 1078 567 1078 777 q 1024 201 1078 353 q 772 -16 946 -16 q 534 104 606 -16 q 331 -16 506 -16 q 250 -1 285 -16 q 194 39 216 14 q 159 104 172 65 q 141 188 146 144 q 136 288 136 231 l 136 970 l 209 970 l 209 288 q 211 222 209 248 q 221 172 214 196 q 241 133 228 147 q 276 111 254 119 q 330 103 298 103 q 486 247 486 103 l 486 970 l 578 970 l 578 247 z "},"௱":{"ha":1236,"x_min":136,"x_max":1236,"o":"m 365 933 q 261 887 305 933 q 217 781 217 842 l 217 -1 l 136 -1 l 136 781 q 195 959 136 882 q 357 1044 262 1044 q 511 991 446 1044 l 511 1032 l 1236 1032 l 1236 918 l 971 918 l 971 0 l 886 0 l 886 918 l 568 918 q 605 781 605 855 l 605 -1 l 518 -1 l 518 781 q 472 887 518 841 q 365 933 425 933 z "},"௲":{"ha":1432,"x_min":136,"x_max":1432,"o":"m 423 98 q 558 149 506 98 q 610 283 610 201 l 610 458 l 340 458 q 250 424 285 458 q 216 334 216 389 q 274 172 216 241 q 423 98 334 98 m 610 585 l 610 910 l 396 910 l 396 585 l 610 585 m 952 309 q 981 269 952 284 q 1042 254 1009 254 q 1115 300 1115 254 l 1114 335 l 993 335 q 952 309 952 335 m 681 308 q 665 178 681 237 q 619 77 650 120 q 538 9 589 33 q 423 -15 488 -15 q 280 34 343 -15 q 180 152 217 82 q 136 335 136 237 q 321 585 136 585 l 324 585 l 324 1031 l 836 1031 l 836 910 l 681 910 l 681 585 l 1432 585 l 1432 458 l 1184 458 l 1184 415 l 1202 415 q 1291 370 1256 415 q 1326 266 1326 326 q 1278 129 1326 188 q 1153 71 1230 71 l 981 71 q 951 43 951 71 q 979 22 951 26 l 936 -30 q 891 49 891 -1 q 919 114 891 84 q 981 144 946 144 l 1154 144 q 1265 269 1265 144 q 1241 317 1265 299 q 1184 335 1217 335 l 1184 301 q 1050 179 1178 179 q 946 218 992 179 q 899 311 899 256 q 927 384 899 353 q 996 415 954 415 l 1114 415 l 1114 458 l 681 458 l 681 308 z "},"௳":{"ha":1131,"x_min":136,"x_max":1131,"o":"m 350 84 q 412 118 388 84 q 435 195 435 151 q 347 286 435 286 l 244 286 q 254 192 244 235 q 288 116 263 149 q 350 84 313 84 m 547 203 q 492 47 547 111 q 354 -16 438 -16 q 184 91 245 -16 q 136 298 136 178 q 229 600 136 477 q 502 732 330 732 q 768 612 665 732 q 864 331 864 497 q 830 109 864 224 l 1131 109 l 1131 -1 l 681 -1 q 749 312 749 146 q 693 526 749 439 q 506 627 629 627 q 335 560 408 627 q 252 396 264 496 l 370 396 q 498 341 450 396 q 547 203 547 286 z "},"௴":{"ha":1622,"x_min":136,"x_max":1622,"o":"m 761 618 q 692 590 720 618 q 665 521 665 562 l 665 117 l 865 117 q 990 285 990 117 q 932 498 990 397 q 761 618 862 618 m 979 887 q 1032 916 1010 887 q 1054 978 1054 944 q 1032 1039 1054 1011 q 979 1067 1010 1067 q 926 1039 948 1067 q 903 978 903 1011 q 925 915 903 943 q 979 887 947 887 m 540 515 q 583 648 540 591 q 690 724 625 705 q 617 898 617 800 q 707 1112 617 1033 q 932 1191 795 1191 q 1029 1166 975 1191 q 1138 1188 1084 1188 q 1308 1130 1231 1188 q 1463 1188 1374 1188 q 1622 1126 1554 1188 l 1552 1025 q 1468 1076 1527 1076 q 1402 1052 1432 1076 q 1373 996 1373 1029 l 1373 798 l 1251 798 l 1251 994 q 1153 1073 1251 1067 q 1171 985 1171 1036 q 1121 843 1171 899 q 990 787 1072 787 q 861 839 913 787 q 810 968 810 891 q 825 1050 810 1011 q 731 892 731 997 q 821 726 731 791 q 1042 562 956 697 q 1122 294 1122 436 q 1047 80 1122 161 q 841 0 972 0 l 136 0 l 136 713 l 252 713 l 252 117 l 540 117 l 540 515 z "},"௵":{"ha":2832,"x_min":136,"x_max":2832,"o":"m 700 92 q 759 123 734 92 q 784 190 784 153 q 760 257 784 228 q 700 286 735 286 q 638 257 663 286 q 613 190 613 229 q 638 122 613 153 q 700 92 664 92 m 2525 114 q 2626 152 2582 114 q 2689 247 2669 190 q 2710 369 2710 304 q 2565 692 2710 593 l 2661 773 q 2832 381 2832 641 q 2756 121 2832 229 q 2525 0 2670 0 q 2288 122 2382 0 q 2205 384 2205 233 l 2205 448 q 1857 911 2205 761 q 1233 1024 1599 1024 q 581 884 840 1024 q 252 350 252 708 q 556 -174 252 1 q 1177 -319 806 -319 q 1689 -222 1461 -319 q 1990 149 1990 -96 q 1943 275 1990 226 q 1820 324 1895 324 q 1750 304 1780 324 q 1721 251 1721 285 l 1721 -1 l 1609 -1 l 1609 594 l 1440 594 l 1440 -1 l 977 -1 l 970 75 q 1082 320 1082 177 q 997 534 1082 447 q 785 621 912 621 q 581 537 665 621 q 496 332 496 453 q 540 174 496 247 q 537 213 537 187 q 585 339 537 288 q 705 389 632 389 q 841 329 786 389 q 895 184 895 269 q 837 40 895 98 q 692 -18 779 -18 q 467 92 554 -18 q 385 336 385 196 q 499 620 385 510 q 787 731 614 731 q 1078 618 960 731 q 1196 332 1196 507 q 1123 109 1196 212 l 1322 109 l 1322 711 l 1953 711 l 1953 594 l 1721 594 l 1721 381 q 1842 441 1765 441 q 2036 353 1960 441 q 2110 145 2110 266 q 1786 -312 2110 -161 q 1192 -430 1538 -430 q 477 -258 757 -430 q 136 357 136 -50 q 496 974 136 768 q 1230 1139 783 1139 q 1937 1004 1643 1139 q 2321 463 2321 827 l 2321 396 q 2371 212 2321 292 q 2525 114 2432 114 z "},"௶":{"ha":970,"x_min":136,"x_max":970,"o":"m 288 -164 q 250 -170 259 -164 q 241 -197 241 -175 q 304 -255 241 -229 q 396 -278 358 -278 q 511 -254 463 -278 q 571 -164 571 -226 l 288 -164 m 433 103 q 532 149 492 103 q 572 258 572 195 l 572 715 l 690 715 l 690 -60 l 860 -60 l 860 465 l 970 465 l 970 -164 l 690 -164 q 593 -323 690 -262 q 407 -377 511 -377 q 231 -335 307 -377 q 136 -195 136 -285 q 278 -60 136 -60 l 571 -60 l 571 27 q 437 -8 514 -8 q 266 43 339 -8 q 180 195 180 104 l 180 715 l 300 715 l 300 217 q 342 138 300 173 q 433 103 385 103 z "},"௷":{"ha":1499,"x_min":136,"x_max":1499,"o":"m 450 92 q 511 121 488 92 q 534 190 534 149 q 512 259 534 232 q 450 286 490 286 q 388 258 412 286 q 363 190 363 231 q 388 121 363 150 q 450 92 413 92 m 1076 54 q 1100 54 1076 54 q 1124 103 1124 54 q 1076 152 1124 152 q 1027 103 1027 152 q 1076 54 1027 54 m 136 339 q 249 612 136 510 q 540 715 361 715 l 1005 715 l 1005 604 l 887 604 l 887 1 l 773 1 l 773 604 l 517 604 q 321 528 399 604 q 245 335 245 454 q 293 174 245 243 q 288 213 288 209 q 335 339 288 289 q 457 389 383 389 q 593 330 541 389 q 646 184 646 271 q 589 39 646 95 q 442 -18 532 -18 q 216 95 304 -18 q 136 339 136 197 m 1126 385 q 1274 326 1217 385 q 1332 174 1332 266 q 1303 68 1332 121 l 1427 68 l 1427 377 l 1499 377 l 1499 -3 l 1210 -3 l 1206 46 q 1261 170 1261 98 q 1222 272 1261 230 q 1124 315 1183 315 q 1030 274 1067 315 q 993 174 993 233 q 997 136 993 156 q 1086 212 1009 212 q 1158 179 1131 212 q 1185 99 1185 146 q 1157 19 1185 50 q 1078 -11 1128 -11 q 966 45 1010 -11 q 922 178 922 101 q 980 327 922 268 q 1126 385 1037 385 z "},"௸":{"ha":2304,"x_min":136,"x_max":2304,"o":"m 632 92 q 718 135 684 92 q 751 233 751 177 q 719 328 751 290 q 632 365 686 365 q 544 326 578 365 q 510 229 510 286 q 546 135 510 177 q 632 92 583 92 m 1194 423 q 1100 350 1137 408 q 1062 222 1062 292 q 1084 141 1062 186 q 1141 91 1108 91 q 1194 182 1194 91 l 1194 423 m 1842 617 q 1754 584 1789 617 q 1718 499 1718 551 q 1785 374 1718 422 q 1941 324 1852 326 l 1941 528 q 1911 591 1941 566 q 1842 617 1881 617 m 2195 107 l 2195 278 q 2053 214 2129 220 l 2053 107 l 2195 107 m 2053 328 q 2166 384 2118 340 q 2219 487 2215 427 l 2304 487 l 2304 -1 l 2053 -1 l 2053 -361 l 1941 -361 l 1941 -1 l 1336 -1 l 1329 79 q 1426 255 1426 157 q 1389 362 1426 315 q 1301 423 1352 410 l 1301 182 q 1257 39 1301 100 q 1143 -22 1214 -22 q 1002 68 1055 -22 q 956 239 956 147 q 1020 433 956 349 q 1190 537 1084 516 l 1190 628 q 1044 910 1190 798 q 736 1012 912 1012 q 384 873 518 1012 q 250 514 250 735 q 299 276 250 378 q 435 133 348 174 q 396 258 396 180 q 466 412 396 351 q 633 473 535 473 q 805 404 737 473 q 873 231 873 334 q 795 50 873 117 q 595 -18 716 -18 q 356 53 458 -18 q 199 233 254 123 q 136 519 136 361 q 304 960 136 788 q 742 1133 472 1133 q 1126 998 963 1133 q 1301 637 1301 856 l 1301 537 q 1470 444 1406 522 q 1535 259 1535 364 q 1491 107 1535 170 l 1941 107 l 1941 212 q 1710 288 1806 212 q 1605 503 1605 371 q 1675 667 1605 603 q 1851 731 1746 731 q 1996 677 1939 731 q 2053 536 2053 623 l 2053 328 z "},"௹":{"ha":1973,"x_min":136,"x_max":1973,"o":"m 1477 1142 q 1686 1056 1607 1142 q 1765 837 1765 970 q 1716 711 1765 758 l 1973 711 l 1973 591 l 1554 591 l 1554 678 q 1643 846 1643 732 q 1595 974 1643 924 q 1472 1024 1547 1024 q 1318 819 1318 1024 q 1326 591 1318 791 l 1217 591 q 1208 677 1208 644 q 1067 892 1208 819 q 803 952 958 952 q 502 871 627 952 q 314 650 376 790 q 252 323 252 509 q 283 90 252 196 q 374 -94 315 -16 q 527 -217 434 -173 q 738 -260 620 -260 q 1021 -157 904 -260 q 1139 109 1139 -54 q 1092 263 1139 201 q 960 324 1044 324 q 892 304 922 324 q 863 251 863 285 l 863 -1 l 750 -1 l 750 591 l 582 591 l 582 -1 l 464 0 l 464 711 l 1143 711 l 1143 591 l 863 591 l 863 381 q 981 438 903 438 q 1135 393 1071 438 q 1229 271 1198 347 q 1259 96 1259 195 q 1112 -248 1259 -116 q 753 -381 965 -381 q 285 -174 450 -381 q 136 328 136 16 q 300 854 136 662 q 803 1063 478 1063 q 1218 925 1035 1063 q 1477 1142 1271 1142 z "},"௺":{"ha":1653,"x_min":136,"x_max":1653,"o":"m 1173 1142 q 1373 1058 1301 1142 q 1444 837 1444 975 q 1396 711 1444 758 l 1653 711 l 1653 591 l 1234 591 l 1234 678 q 1322 846 1322 732 q 1282 976 1322 927 q 1168 1024 1242 1024 q 1006 819 1006 1024 l 1006 689 l 897 689 l 897 783 q 861 896 897 848 q 768 943 825 943 q 700 907 726 943 q 673 827 673 872 q 694 752 673 787 q 747 718 715 718 l 783 718 l 783 601 l 575 601 l 575 388 q 693 445 612 445 q 880 345 806 445 q 947 137 947 254 q 840 -96 947 -7 q 590 -179 739 -179 l 320 -179 q 270 -198 290 -179 q 250 -247 250 -218 q 288 -302 250 -290 l 213 -376 q 136 -237 136 -329 q 187 -122 136 -170 q 307 -75 238 -75 l 593 -75 q 755 -11 684 -75 q 827 141 827 54 q 785 275 827 219 q 673 331 742 331 q 605 311 635 331 q 575 258 575 292 l 575 5 l 463 5 l 463 601 l 294 601 l 294 5 l 176 5 l 176 718 l 590 718 q 563 827 563 766 q 623 983 563 918 q 769 1048 682 1048 q 939 949 878 1048 q 1021 1092 972 1047 q 1173 1142 1076 1142 z "},"‌":{"ha":285,"x_min":136,"x_max":285,"o":"m 136 -814 l 136 1347 l 285 1347 l 285 -814 l 136 -814 z "},"‍":{"ha":939,"x_min":136,"x_max":939,"o":"m 637 762 l 939 408 l 838 290 l 610 563 l 610 -707 l 464 -707 l 464 563 l 236 290 l 136 408 l 437 762 l 136 1112 l 236 1230 l 537 873 l 838 1230 l 939 1112 l 637 762 z "},"–":{"ha":720,"x_min":136,"x_max":720,"o":"m 136 347 l 720 347 l 720 237 l 136 237 l 136 347 z "},"—":{"ha":1061,"x_min":136,"x_max":1059,"o":"m 136 347 l 1059 347 l 1059 237 l 136 237 l 136 347 z "},"‘":{"ha":260,"x_min":136,"x_max":260,"o":"m 136 869 q 144 1006 139 958 q 160 1063 151 1032 l 194 1180 l 256 1180 l 260 1006 l 252 869 l 136 869 z "},"’":{"ha":260,"x_min":136,"x_max":260,"o":"m 260 1180 q 252 1043 257 1092 q 236 986 245 1017 l 202 869 l 140 869 l 136 1043 l 144 1180 l 260 1180 z "},"‚":{"ha":267,"x_min":42,"x_max":216,"o":"m 81 149 l 216 149 l 216 0 l 115 -210 l 42 -177 l 121 -7 l 81 -7 l 81 149 z "},"“":{"ha":449,"x_min":136,"x_max":449,"o":"m 324 869 q 332 1006 328 958 q 349 1063 339 1032 l 382 1180 l 445 1180 l 449 1006 l 441 869 l 324 869 m 136 869 q 144 1006 139 956 q 161 1063 145 1012 l 195 1180 l 256 1180 l 259 1006 l 251 869 l 136 869 z "},"”":{"ha":449,"x_min":136,"x_max":449,"o":"m 260 1180 q 252 1043 257 1092 q 236 986 245 1017 l 202 869 l 140 869 l 136 1043 l 144 1180 l 260 1180 m 449 1180 q 441 1043 446 1093 q 423 986 439 1038 l 389 869 l 330 869 l 326 1043 l 334 1180 l 449 1180 z "},"„":{"ha":1389,"x_min":0,"x_max":0,"o":""},"•":{"ha":353,"x_min":132,"x_max":351,"o":"m 241 594 q 320 556 290 594 q 351 465 351 518 q 333 394 351 425 q 288 347 316 363 q 241 336 267 336 q 162 374 191 336 q 132 465 132 412 q 151 535 132 504 q 197 583 169 567 q 241 594 217 594 z "},"…":{"ha":819,"x_min":166,"x_max":819,"o":"m 796 269 q 807 255 796 269 q 819 201 819 241 q 796 133 819 161 q 736 104 774 104 q 677 133 699 104 q 654 201 654 161 q 668 253 654 231 q 703 288 682 276 q 736 297 718 297 q 796 269 773 297 m 552 269 q 563 255 552 269 q 574 201 574 241 q 552 133 574 161 q 492 104 530 104 q 433 133 455 104 q 410 201 410 161 q 414 230 410 216 q 425 254 418 243 q 440 274 431 265 q 458 288 448 282 q 492 297 474 297 q 552 269 529 297 m 308 269 q 319 255 308 269 q 330 201 330 241 q 308 133 330 161 q 248 104 286 104 q 189 133 211 104 q 166 201 166 161 q 180 253 166 230 q 214 288 193 276 q 248 297 230 297 q 308 269 285 297 z "},"‹":{"ha":374,"x_min":132,"x_max":368,"o":"m 132 368 l 368 762 l 368 603 l 278 371 l 368 141 l 368 -17 l 132 368 z "},"›":{"ha":374,"x_min":132,"x_max":368,"o":"m 132 -17 l 132 141 l 222 371 l 132 603 l 132 762 l 368 368 l 132 -17 z "},"⁄":{"ha":815,"x_min":118,"x_max":765,"o":"m 765 970 l 192 -5 l 118 37 l 691 1012 l 765 970 z "},"⁴":{"ha":511,"x_min":136,"x_max":509,"o":"m 136 585 l 136 646 l 357 1006 l 451 1006 l 451 664 l 509 664 l 509 585 l 451 585 l 451 493 l 361 493 l 361 585 l 136 585 m 248 664 l 361 664 l 361 861 l 248 664 z "},"€":{"ha":846,"x_min":0,"x_max":873,"o":"m 523 95 q 673 145 618 95 q 755 285 728 195 l 873 250 q 783 97 840 159 q 643 5 726 34 q 523 -13 588 -13 q 233 132 338 -13 q 146 345 170 218 l 0 345 l 0 442 l 134 442 q 132 496 132 469 q 134 562 132 530 l 0 562 l 0 659 l 147 659 q 354 970 193 886 q 522 1008 427 1008 q 812 861 707 1008 q 869 753 846 813 l 752 720 q 670 853 724 807 q 522 899 616 899 q 275 659 325 899 l 605 659 l 605 562 l 262 562 q 260 496 260 530 q 261 442 260 469 l 605 442 l 605 345 l 273 345 q 406 123 303 182 q 523 95 456 95 z "},"₹":{"ha":783,"x_min":136,"x_max":783,"o":"m 486 830 q 407 911 463 890 q 252 932 352 932 l 136 932 l 183 1022 l 783 1022 l 745 932 l 567 932 q 611 830 599 891 l 783 830 l 745 740 l 612 740 q 519 568 599 635 q 321 494 440 501 l 668 2 l 515 2 l 171 469 l 171 561 l 262 561 q 465 646 403 561 q 496 739 496 690 l 496 740 l 136 740 l 183 830 l 486 830 z "},"−":{"ha":720,"x_min":136,"x_max":720,"o":"m 136 347 l 720 347 l 720 237 l 136 237 l 136 347 z "},"∕":{"ha":815,"x_min":118,"x_max":765,"o":"m 765 970 l 192 -5 l 118 37 l 691 1012 l 765 970 z "},"◌":{"ha":818,"x_min":136,"x_max":818,"o":"m 437 43 l 435 -15 q 255 72 334 -1 l 296 113 q 437 43 347 55 m 244 174 l 203 133 q 136 317 142 211 l 193 317 q 244 174 199 236 m 705 79 q 518 -15 634 3 l 518 43 q 665 119 603 56 l 705 79 m 244 540 q 193 396 201 469 l 136 396 q 201 581 144 493 l 244 540 m 818 317 q 758 144 812 220 l 716 184 q 761 317 757 246 l 818 317 m 437 670 q 297 604 351 652 l 256 644 q 435 730 328 720 l 437 670 m 818 396 l 761 396 q 716 532 750 480 l 757 575 q 818 396 814 493 m 705 636 l 665 595 q 518 670 612 652 l 521 730 q 705 636 634 711 z "}}}
